<?xml version="1.0" encoding="UTF-8" standalone="no"?>
<!DOCTYPE svg PUBLIC "-//W3C//DTD SVG 1.1//EN" "http://www.w3.org/Graphics/SVG/1.1/DTD/svg11.dtd">
<svg width="100%" height="100%" viewBox="0 0 4027 3012" version="1.1" xmlns="http://www.w3.org/2000/svg" xmlns:xlink="http://www.w3.org/1999/xlink" xml:space="preserve" xmlns:serif="http://www.serif.com/" style="fill-rule:evenodd;clip-rule:evenodd;stroke-linejoin:round;stroke-miterlimit:2;">
    <g id="Distribution-over-Transforms" serif:id="Distribution over Transforms" transform="matrix(1,0,0,1,1202.08,1102.83)">
        <rect x="-1202.08" y="-1102.84" width="4026.06" height="3011.13" style="fill:none;"/>
        <g transform="matrix(1,0,0,1,117.42,11.2585)">
            <clipPath id="_clip1">
                <rect x="-1063.63" y="-838.749" width="3520.78" height="2387.22"/>
            </clipPath>
            <g clip-path="url(#_clip1)">
                <g transform="matrix(1.03235,0,0,1.03235,2283.81,849.498)">
                    <g transform="matrix(1,0,0,1,-765.63,-887.427)">
                        <path d="M1548.46,670.609C1548.46,659.14 1539.15,649.829 1527.68,649.829L759.442,649.829C747.973,649.829 738.662,659.14 738.662,670.609L738.662,1321.72C738.662,1333.19 747.973,1342.5 759.442,1342.5L1527.68,1342.5C1539.15,1342.5 1548.46,1333.19 1548.46,1321.72L1548.46,670.609Z" style="fill:white;"/>
                        <path d="M1558.55,670.609C1558.55,653.572 1544.72,639.739 1527.68,639.739C1527.68,639.739 759.442,639.739 759.442,639.739C742.405,639.739 728.572,653.572 728.572,670.609C728.572,670.609 728.572,1321.72 728.572,1321.72C728.572,1338.76 742.405,1352.59 759.442,1352.59C759.442,1352.59 1527.68,1352.59 1527.68,1352.59C1544.72,1352.59 1558.55,1338.76 1558.55,1321.72C1558.55,1321.72 1558.55,670.609 1558.55,670.609ZM1538.37,670.609L1538.37,1321.72C1538.37,1327.62 1533.58,1332.41 1527.68,1332.41L759.442,1332.41C753.542,1332.41 748.752,1327.62 748.752,1321.72L748.752,670.609C748.752,664.709 753.542,659.919 759.442,659.919L1527.68,659.919C1533.58,659.919 1538.37,664.709 1538.37,670.609Z"/>
                    </g>
                    <g transform="matrix(1,0,0,1,-765.63,-887.427)">
                        <path d="M1548.46,670.609C1548.46,659.14 1539.15,649.829 1527.68,649.829L759.442,649.829C747.973,649.829 738.662,659.14 738.662,670.609L738.662,1321.72C738.662,1333.19 747.973,1342.5 759.442,1342.5L1527.68,1342.5C1539.15,1342.5 1548.46,1333.19 1548.46,1321.72L1548.46,670.609Z" style="fill:white;"/>
                        <path d="M1558.55,670.609C1558.55,653.572 1544.72,639.739 1527.68,639.739C1527.68,639.739 759.442,639.739 759.442,639.739C742.405,639.739 728.572,653.572 728.572,670.609C728.572,670.609 728.572,1321.72 728.572,1321.72C728.572,1338.76 742.405,1352.59 759.442,1352.59C759.442,1352.59 1527.68,1352.59 1527.68,1352.59C1544.72,1352.59 1558.55,1338.76 1558.55,1321.72C1558.55,1321.72 1558.55,670.609 1558.55,670.609ZM1538.37,670.609L1538.37,1321.72C1538.37,1327.62 1533.58,1332.41 1527.68,1332.41L759.442,1332.41C753.542,1332.41 748.752,1327.62 748.752,1321.72L748.752,670.609C748.752,664.709 753.542,659.919 759.442,659.919L1527.68,659.919C1533.58,659.919 1538.37,664.709 1538.37,670.609Z"/>
                    </g>
                    <g transform="matrix(-1.15907,0.0693233,-0.0693233,-1.15907,670.147,355.103)">
                        <path d="M219.982,466.882L219.984,466.882L219.99,466.88L220.005,466.875C220.131,466.836 220.255,466.794 220.378,466.749C221.043,466.513 221.606,466.23 222.076,465.909L222.089,465.901L222.146,465.862L222.168,465.898C221.681,466.206 221.156,466.467 220.599,466.676C220.552,466.693 220.126,466.838 220.126,466.838C220.126,466.838 220.661,466.659 220.702,466.644L220.283,466.789C223.358,465.812 226.506,465.244 229.671,465.087L230.046,465.151C232.957,465.701 235.985,466.734 239.119,467.883C249.107,471.548 259.946,476.095 270.964,475.895C292.613,475.503 316.448,464.705 331.072,457.004C331.072,457.004 331.072,457.004 331.072,457.004C372.443,435.213 405.62,392.49 421.773,339.536C421.773,339.536 421.773,339.536 421.773,339.536C435.181,295.575 435.013,250.167 421.493,211.675C421.493,211.675 421.493,211.675 421.493,211.675C407.264,171.168 380.084,143.059 345.379,132.126C326.449,126.162 306.591,125.696 286.353,130.81C273.417,134.078 260.214,136.164 246.937,137.074C246.175,131.357 245.053,124.451 244.227,118.906C307.532,111.994 359.71,72.713 359.71,7.5C359.71,-1.443 352.461,-8.69 343.52,-8.69C320.768,-8.69 299.716,1.535 281.598,17.339C262.041,34.399 245.918,57.981 234.727,80.968C232.449,72.956 230.861,66.241 230.265,63.681L230.222,63.473L230.225,63.509L230.006,62.574C229.704,61.569 210.707,54.875 213.318,67.556C214.844,74.971 224.218,114.311 228.65,137.003C211.93,136.068 189.422,134.029 176.687,130.811C176.687,130.811 176.687,130.811 176.687,130.811C156.452,125.698 136.593,126.164 117.661,132.126C117.661,132.127 117.661,132.127 117.661,132.127C82.957,143.059 55.776,171.168 41.547,211.676C41.547,211.676 41.547,211.676 41.547,211.676C28.026,250.168 27.858,295.577 41.267,339.537C57.419,392.49 90.596,435.215 131.967,457.004C150.618,466.827 169.733,471.729 188.417,471.729C188.417,471.729 188.418,471.729 188.418,471.729C199.128,471.728 209.702,470.119 219.982,466.882ZM244.641,101.359C297.494,94.823 341.681,63.012 342.322,8.708C324.165,9.071 307.534,17.778 293.023,30.436C271.516,49.197 254.661,76.654 244.641,101.359ZM238.875,154.855L238.822,154.855C221.658,154.31 189.124,151.879 172.429,147.661C155.444,143.37 138.774,143.698 122.883,148.703C93.077,158.093 70.166,182.646 57.945,217.436C45.57,252.668 45.618,294.231 57.891,334.467C72.588,382.65 102.422,421.8 140.066,441.626C140.066,441.626 140.067,441.626 140.067,441.626C156.05,450.045 172.405,454.349 188.417,454.349C197.155,454.348 205.785,453.066 214.181,450.482C219.208,447.733 224.638,447.014 230.399,447.666C236.335,447.544 242.295,448.404 248.106,450.25L247.385,452.519C254.781,455.428 262.611,458.664 270.649,458.518C289.541,458.176 310.212,448.347 322.972,441.626C360.617,421.799 390.451,382.65 405.149,334.466C417.421,294.229 417.47,252.667 405.095,217.435C392.874,182.645 369.963,158.093 340.157,148.702C324.267,143.696 307.597,143.368 290.611,147.66C290.611,147.66 290.611,147.66 290.611,147.66C273.828,151.9 256.631,154.295 239.379,154.854L239.339,154.855L239.303,154.857L239.156,154.856L238.936,154.857L238.875,154.855ZM214.872,450.273L214.932,450.255L214.984,450.237L214.927,450.254L214.872,450.273ZM218.022,459.113C218.174,463.319 218.665,467.289 219.982,466.882L219.99,466.88L220.378,466.749C220.982,466.528 221.55,466.245 222.076,465.909L222.145,465.859L218.022,459.113Z"/>
                    </g>
                </g>
                <g transform="matrix(1.03235,0,0,1.03235,1805.11,640.072)">
                    <g transform="matrix(1,0,0,1,-765.63,-887.427)">
                        <path d="M1548.46,670.609C1548.46,659.14 1539.15,649.829 1527.68,649.829L759.442,649.829C747.973,649.829 738.662,659.14 738.662,670.609L738.662,1321.72C738.662,1333.19 747.973,1342.5 759.442,1342.5L1527.68,1342.5C1539.15,1342.5 1548.46,1333.19 1548.46,1321.72L1548.46,670.609Z" style="fill:white;"/>
                        <path d="M1558.55,670.609C1558.55,653.572 1544.72,639.739 1527.68,639.739C1527.68,639.739 759.442,639.739 759.442,639.739C742.405,639.739 728.572,653.572 728.572,670.609L728.572,1321.72C728.572,1338.76 742.405,1352.59 759.442,1352.59L1527.68,1352.59C1544.72,1352.59 1558.55,1338.76 1558.55,1321.72L1558.55,670.609ZM1538.37,670.609L1538.37,1321.72C1538.37,1327.62 1533.58,1332.41 1527.68,1332.41C1527.68,1332.41 759.442,1332.41 759.442,1332.41C753.542,1332.41 748.752,1327.62 748.752,1321.72C748.752,1321.72 748.752,670.609 748.752,670.609C748.752,664.709 753.542,659.919 759.442,659.919L1527.68,659.919C1533.58,659.919 1538.37,664.709 1538.37,670.609Z"/>
                    </g>
                    <g transform="matrix(1,0,0,1,-765.63,-887.427)">
                        <path d="M1548.46,670.609C1548.46,659.14 1539.15,649.829 1527.68,649.829L759.442,649.829C747.973,649.829 738.662,659.14 738.662,670.609L738.662,1321.72C738.662,1333.19 747.973,1342.5 759.442,1342.5L1527.68,1342.5C1539.15,1342.5 1548.46,1333.19 1548.46,1321.72L1548.46,670.609Z" style="fill:white;"/>
                        <path d="M1558.55,670.609C1558.55,653.572 1544.72,639.739 1527.68,639.739C1527.68,639.739 759.442,639.739 759.442,639.739C742.405,639.739 728.572,653.572 728.572,670.609L728.572,1321.72C728.572,1338.76 742.405,1352.59 759.442,1352.59L1527.68,1352.59C1544.72,1352.59 1558.55,1338.76 1558.55,1321.72L1558.55,670.609ZM1538.37,670.609L1538.37,1321.72C1538.37,1327.62 1533.58,1332.41 1527.68,1332.41C1527.68,1332.41 759.442,1332.41 759.442,1332.41C753.542,1332.41 748.752,1327.62 748.752,1321.72C748.752,1321.72 748.752,670.609 748.752,670.609C748.752,664.709 753.542,659.919 759.442,659.919L1527.68,659.919C1533.58,659.919 1538.37,664.709 1538.37,670.609Z"/>
                    </g>
                    <g transform="matrix(-1.01063,0.571727,-0.571727,-1.01063,753.145,204.111)">
                        <path d="M219.982,466.882L219.984,466.882L219.99,466.88L220.005,466.875L220.03,466.866C220.864,466.604 221.566,466.268 222.153,465.873L222.144,465.859L222.289,465.768L222.705,465.461C222.534,465.605 222.35,465.742 222.153,465.873L222.167,465.896C221.679,466.206 221.154,466.468 220.599,466.676C220.552,466.693 220.126,466.838 220.126,466.838C220.126,466.838 220.661,466.659 220.702,466.644L220.283,466.789C223.358,465.812 226.506,465.244 229.671,465.087L230.046,465.151C232.957,465.701 235.985,466.734 239.119,467.883C249.107,471.548 259.946,476.095 270.964,475.895C292.613,475.503 316.448,464.705 331.072,457.004C331.072,457.004 331.072,457.004 331.072,457.004C372.443,435.213 405.62,392.49 421.773,339.536C421.773,339.536 421.773,339.536 421.773,339.536C435.181,295.575 435.013,250.167 421.493,211.675C421.493,211.675 421.493,211.675 421.493,211.675C407.264,171.168 380.084,143.059 345.379,132.126C326.449,126.162 306.591,125.696 286.353,130.81C273.417,134.078 260.214,136.164 246.937,137.074C246.175,131.357 245.053,124.451 244.227,118.906C307.532,111.994 359.71,72.713 359.71,7.5C359.71,-1.443 352.461,-8.69 343.52,-8.69C320.768,-8.69 299.716,1.535 281.598,17.339C262.041,34.399 245.918,57.981 234.727,80.968C232.449,72.956 230.861,66.241 230.265,63.681L230.222,63.473L230.225,63.509L230.006,62.574C229.704,61.569 210.707,54.875 213.318,67.556C214.844,74.971 224.218,114.311 228.65,137.003C211.93,136.068 189.422,134.029 176.687,130.811C176.687,130.811 176.687,130.811 176.687,130.811C156.452,125.698 136.593,126.164 117.661,132.126C117.661,132.127 117.661,132.127 117.661,132.127C82.957,143.059 55.776,171.168 41.547,211.676C41.547,211.676 41.547,211.676 41.547,211.676C28.026,250.168 27.858,295.577 41.267,339.537C57.419,392.49 90.596,435.215 131.967,457.004C150.618,466.827 169.733,471.729 188.417,471.729C188.417,471.729 188.418,471.729 188.418,471.729C199.128,471.728 209.702,470.119 219.982,466.882ZM244.641,101.359C297.494,94.823 341.681,63.012 342.322,8.708C324.165,9.071 307.534,17.778 293.023,30.436C271.516,49.197 254.661,76.654 244.641,101.359ZM238.875,154.855L238.822,154.855C221.658,154.31 189.124,151.879 172.429,147.661C155.444,143.37 138.774,143.698 122.883,148.703C93.077,158.093 70.166,182.646 57.945,217.436C45.57,252.668 45.618,294.231 57.891,334.467C72.588,382.65 102.422,421.8 140.066,441.626C140.066,441.626 140.067,441.626 140.067,441.626C156.05,450.045 172.405,454.349 188.417,454.349C197.155,454.348 205.785,453.066 214.181,450.482C219.208,447.733 224.638,447.014 230.399,447.666C236.335,447.544 242.295,448.404 248.106,450.25L247.385,452.519C254.781,455.428 262.611,458.664 270.649,458.518C289.541,458.176 310.212,448.347 322.972,441.626C360.617,421.799 390.451,382.65 405.149,334.466C417.421,294.229 417.47,252.667 405.095,217.435C392.874,182.645 369.963,158.093 340.157,148.702C324.267,143.696 307.597,143.368 290.611,147.66C290.611,147.66 290.611,147.66 290.611,147.66C273.828,151.9 256.631,154.295 239.379,154.854L239.339,154.855L239.303,154.857L239.156,154.856L238.936,154.857L238.875,154.855ZM214.877,450.272L214.923,450.258L214.993,450.234L214.951,450.246L214.877,450.272ZM219.541,461.6C219.057,464.701 218.962,467.197 219.982,466.882L219.99,466.88L220.03,466.866C220.79,466.625 221.499,466.285 222.144,465.859L219.541,461.6Z"/>
                    </g>
                </g>
                <g transform="matrix(1.03235,0,0,1.03235,2276.25,854.982)">
                    <g transform="matrix(1,0,0,1,-1678.39,-1303.78)">
                        <path d="M1548.46,670.609C1548.46,659.14 1539.15,649.829 1527.68,649.829L759.442,649.829C747.973,649.829 738.662,659.14 738.662,670.609L738.662,1321.72C738.662,1333.19 747.973,1342.5 759.442,1342.5L1527.68,1342.5C1539.15,1342.5 1548.46,1333.19 1548.46,1321.72L1548.46,670.609Z" style="fill:white;"/>
                        <path d="M1558.55,670.609C1558.55,653.572 1544.72,639.739 1527.68,639.739L759.442,639.739C742.405,639.739 728.572,653.572 728.572,670.609L728.572,1321.72C728.572,1338.76 742.405,1352.59 759.442,1352.59C759.442,1352.59 1527.68,1352.59 1527.68,1352.59C1544.72,1352.59 1558.55,1338.76 1558.55,1321.72C1558.55,1321.72 1558.55,670.609 1558.55,670.609ZM1538.37,670.609L1538.37,1321.72C1538.37,1327.62 1533.58,1332.41 1527.68,1332.41L759.442,1332.41C753.542,1332.41 748.752,1327.62 748.752,1321.72C748.752,1321.72 748.752,670.609 748.752,670.609C748.752,664.709 753.542,659.919 759.442,659.919C759.442,659.919 1527.68,659.919 1527.68,659.919C1533.58,659.919 1538.37,664.709 1538.37,670.609Z"/>
                    </g>
                    <g transform="matrix(-0.729779,0.903142,-0.903142,-0.729779,-147.219,-354.577)">
                        <path d="M219.982,466.882L219.984,466.882L219.991,466.88L220.005,466.875L220.034,466.865C220.856,466.606 221.56,466.273 222.159,465.884L222.144,465.859C222.591,465.57 223.008,465.239 223.39,464.872C223.038,465.239 222.63,465.579 222.159,465.884L222.167,465.896C221.678,466.207 221.153,466.468 220.599,466.676C220.552,466.693 220.126,466.838 220.126,466.838C220.126,466.838 220.661,466.659 220.702,466.644L220.283,466.789C223.358,465.812 226.506,465.244 229.671,465.087L230.046,465.151C232.957,465.701 235.985,466.734 239.119,467.883C249.107,471.548 259.946,476.095 270.964,475.895C292.613,475.503 316.448,464.705 331.072,457.004C331.072,457.004 331.072,457.004 331.072,457.004C372.443,435.213 405.62,392.49 421.773,339.536C421.773,339.536 421.773,339.536 421.773,339.536C435.181,295.575 435.013,250.167 421.493,211.675C421.493,211.675 421.493,211.675 421.493,211.675C407.264,171.168 380.084,143.059 345.379,132.126C326.449,126.162 306.591,125.696 286.353,130.81C273.417,134.078 260.214,136.164 246.937,137.074C246.175,131.357 245.053,124.451 244.227,118.906C307.532,111.994 359.71,72.713 359.71,7.5C359.71,-1.443 352.461,-8.69 343.52,-8.69C320.768,-8.69 299.716,1.535 281.598,17.339C262.041,34.399 245.918,57.981 234.727,80.968C232.449,72.956 230.861,66.241 230.265,63.681L230.222,63.473L230.225,63.509L230.006,62.574C229.704,61.569 210.707,54.875 213.318,67.556C214.844,74.971 224.218,114.311 228.65,137.003C211.93,136.068 189.422,134.029 176.687,130.811C176.687,130.811 176.687,130.811 176.687,130.811C156.452,125.698 136.593,126.164 117.661,132.126C117.661,132.127 117.661,132.127 117.661,132.127C82.957,143.059 55.776,171.168 41.547,211.676C41.547,211.676 41.547,211.676 41.547,211.676C28.026,250.168 27.858,295.577 41.267,339.537C57.419,392.49 90.596,435.215 131.967,457.004C150.618,466.827 169.733,471.729 188.417,471.729C188.417,471.729 188.418,471.729 188.418,471.729C199.128,471.728 209.702,470.119 219.982,466.882ZM244.641,101.359C297.494,94.823 341.681,63.012 342.322,8.708C324.165,9.071 307.534,17.778 293.023,30.436C271.516,49.197 254.661,76.654 244.641,101.359ZM238.875,154.855L238.822,154.855C221.658,154.31 189.124,151.879 172.429,147.661C155.444,143.37 138.774,143.698 122.883,148.703C93.077,158.093 70.166,182.646 57.945,217.436C45.57,252.668 45.618,294.231 57.891,334.467C72.588,382.65 102.422,421.8 140.066,441.626C140.066,441.626 140.067,441.626 140.067,441.626C156.05,450.045 172.405,454.349 188.417,454.349C197.155,454.348 205.785,453.066 214.181,450.482C219.208,447.733 224.638,447.014 230.399,447.666C236.335,447.544 242.295,448.404 248.106,450.25L247.385,452.519C254.781,455.428 262.611,458.664 270.649,458.518C289.541,458.176 310.212,448.347 322.972,441.626C360.617,421.799 390.451,382.65 405.149,334.466C417.421,294.229 417.47,252.667 405.095,217.435C392.874,182.645 369.963,158.093 340.157,148.702C324.267,143.696 307.597,143.368 290.611,147.66C290.611,147.66 290.611,147.66 290.611,147.66C273.828,151.9 256.631,154.295 239.379,154.854L239.339,154.855L239.303,154.857L239.156,154.856L238.936,154.857L238.875,154.855ZM214.82,450.289L214.898,450.267L214.977,450.24L214.827,450.286L214.82,450.289ZM220.324,462.881C219.509,465.301 219.128,467.146 219.982,466.882L219.991,466.88L220.034,466.865C220.789,466.625 221.498,466.285 222.144,465.859L220.324,462.881Z"/>
                    </g>
                </g>
                <g transform="matrix(1.03235,0,0,1.03235,1287.58,471.949)">
                    <g transform="matrix(1,0,0,1,-1222.01,-1095.6)">
                        <path d="M1548.46,670.609C1548.46,659.14 1539.15,649.829 1527.68,649.829L759.442,649.829C747.973,649.829 738.662,659.14 738.662,670.609L738.662,1321.72C738.662,1333.19 747.973,1342.5 759.442,1342.5L1527.68,1342.5C1539.15,1342.5 1548.46,1333.19 1548.46,1321.72L1548.46,670.609Z" style="fill:white;"/>
                        <path d="M1558.55,670.609C1558.55,653.572 1544.72,639.739 1527.68,639.739L759.442,639.739C742.405,639.739 728.572,653.572 728.572,670.609C728.572,670.609 728.572,1321.72 728.572,1321.72C728.572,1338.76 742.405,1352.59 759.442,1352.59C759.442,1352.59 1527.68,1352.59 1527.68,1352.59C1544.72,1352.59 1558.55,1338.76 1558.55,1321.72L1558.55,670.609ZM1538.37,670.609L1538.37,1321.72C1538.37,1327.62 1533.58,1332.41 1527.68,1332.41L759.442,1332.41C753.542,1332.41 748.752,1327.62 748.752,1321.72L748.752,670.609C748.752,664.709 753.542,659.919 759.442,659.919C759.442,659.919 1527.68,659.919 1527.68,659.919C1533.58,659.919 1538.37,664.709 1538.37,670.609Z"/>
                    </g>
                    <g transform="matrix(-0.123513,1.15455,-1.15455,-0.123513,227.53,-346.236)">
                        <path d="M219.984,466.882L219.984,466.882L219.984,466.882L220.005,466.875C220.778,466.632 221.496,466.289 222.146,465.862L222.168,465.898C221.68,466.206 221.156,466.467 220.599,466.676C220.552,466.693 220.126,466.838 220.126,466.838C220.126,466.838 220.661,466.659 220.702,466.644L220.283,466.789C223.358,465.812 226.506,465.244 229.671,465.087L230.046,465.151C232.957,465.701 235.985,466.734 239.119,467.883C249.107,471.548 259.946,476.095 270.964,475.895C292.613,475.503 316.448,464.705 331.072,457.004C331.072,457.004 331.072,457.004 331.072,457.004C372.443,435.213 405.62,392.49 421.773,339.536C421.773,339.536 421.773,339.536 421.773,339.536C435.181,295.575 435.013,250.167 421.493,211.675C421.493,211.675 421.493,211.675 421.493,211.675C407.264,171.168 380.084,143.059 345.379,132.126C326.449,126.162 306.591,125.696 286.353,130.81C273.417,134.078 260.214,136.164 246.937,137.074C246.175,131.357 245.053,124.451 244.227,118.906C307.532,111.994 359.71,72.713 359.71,7.5C359.71,-1.443 352.461,-8.69 343.52,-8.69C320.768,-8.69 299.716,1.535 281.598,17.339C262.041,34.399 245.918,57.981 234.727,80.968C232.449,72.956 230.861,66.241 230.265,63.681L230.222,63.473L230.225,63.509L230.006,62.574C229.704,61.569 210.707,54.875 213.318,67.556C214.844,74.971 224.218,114.311 228.65,137.003C211.93,136.068 189.422,134.029 176.687,130.811C176.687,130.811 176.687,130.811 176.687,130.811C156.452,125.698 136.593,126.164 117.661,132.126C117.661,132.127 117.661,132.127 117.661,132.127C82.957,143.059 55.776,171.168 41.547,211.676C41.547,211.676 41.547,211.676 41.547,211.676C28.026,250.168 27.858,295.577 41.267,339.537C57.419,392.49 90.596,435.215 131.967,457.004C150.618,466.827 169.733,471.729 188.417,471.729C188.417,471.729 188.418,471.729 188.418,471.729C199.129,471.728 209.704,470.118 219.984,466.882ZM238.875,154.855L238.822,154.855C221.658,154.31 189.124,151.879 172.429,147.661C155.444,143.37 138.774,143.698 122.883,148.703C93.077,158.093 70.166,182.646 57.945,217.436C45.57,252.668 45.618,294.231 57.891,334.467C72.588,382.65 102.422,421.8 140.066,441.626C140.066,441.626 140.067,441.626 140.067,441.626C156.05,450.045 172.405,454.349 188.417,454.349C197.155,454.348 205.785,453.066 214.181,450.482C219.208,447.733 224.638,447.014 230.399,447.666C236.335,447.544 242.295,448.404 248.106,450.25L247.385,452.519C254.781,455.428 262.611,458.664 270.649,458.518C289.541,458.176 310.212,448.347 322.972,441.626C360.617,421.799 390.451,382.65 405.149,334.466C417.421,294.229 417.47,252.667 405.095,217.435C392.874,182.645 369.963,158.093 340.157,148.702C324.267,143.696 307.597,143.368 290.611,147.66C290.611,147.66 290.611,147.66 290.611,147.66C273.828,151.9 256.631,154.295 239.379,154.854L239.339,154.855L239.303,154.857L239.156,154.856L238.936,154.857L238.875,154.855ZM244.641,101.359C297.494,94.823 341.681,63.012 342.322,8.708C324.165,9.071 307.534,17.778 293.023,30.436C271.516,49.197 254.661,76.654 244.641,101.359ZM214.882,450.27L214.918,450.26L215,450.232L214.972,450.24L214.882,450.27Z"/>
                    </g>
                </g>
                <g transform="matrix(1.03235,0,0,1.03235,679.972,349.811)">
                    <g transform="matrix(1,0,0,1,-1222.01,-1095.6)">
                        <path d="M1548.46,670.609C1548.46,659.14 1539.15,649.829 1527.68,649.829L759.442,649.829C747.973,649.829 738.662,659.14 738.662,670.609L738.662,1321.72C738.662,1333.19 747.973,1342.5 759.442,1342.5L1527.68,1342.5C1539.15,1342.5 1548.46,1333.19 1548.46,1321.72L1548.46,670.609Z" style="fill:white;"/>
                        <path d="M1558.55,670.609C1558.55,653.572 1544.72,639.739 1527.68,639.739L759.442,639.739C742.405,639.739 728.572,653.572 728.572,670.609L728.572,1321.72C728.572,1338.76 742.405,1352.59 759.442,1352.59C759.442,1352.59 1527.68,1352.59 1527.68,1352.59C1544.72,1352.59 1558.55,1338.76 1558.55,1321.72L1558.55,670.609ZM1538.37,670.609L1538.37,1321.72C1538.37,1327.62 1533.58,1332.41 1527.68,1332.41L759.442,1332.41C753.542,1332.41 748.752,1327.62 748.752,1321.72C748.752,1321.72 748.752,670.609 748.752,670.609C748.752,664.709 753.542,659.919 759.442,659.919C759.442,659.919 1527.68,659.919 1527.68,659.919C1533.58,659.919 1538.37,664.709 1538.37,670.609Z"/>
                    </g>
                    <g transform="matrix(0.572954,1.00993,-1.00993,0.572954,32.5013,-475.453)">
                        <path d="M219.985,466.882L219.984,466.882L219.985,466.882L220.005,466.875C220.768,466.635 221.488,466.293 222.146,465.861L222.168,465.897C221.676,466.208 221.151,466.469 220.599,466.676C220.552,466.693 220.126,466.838 220.126,466.838C220.126,466.838 220.661,466.659 220.702,466.644L220.283,466.789C223.358,465.812 226.506,465.244 229.671,465.087L230.046,465.151C232.957,465.701 235.985,466.734 239.119,467.883C249.107,471.548 259.946,476.095 270.964,475.895C292.613,475.503 316.448,464.705 331.072,457.004C331.072,457.004 331.072,457.004 331.072,457.004C372.443,435.213 405.62,392.49 421.773,339.536C421.773,339.536 421.773,339.536 421.773,339.536C435.181,295.575 435.013,250.167 421.493,211.675C421.493,211.675 421.493,211.675 421.493,211.675C407.264,171.168 380.084,143.059 345.379,132.126C326.449,126.162 306.591,125.696 286.353,130.81C273.417,134.078 260.214,136.164 246.937,137.074C246.175,131.357 245.053,124.451 244.227,118.906C307.532,111.994 359.71,72.713 359.71,7.5C359.71,-1.443 352.461,-8.69 343.52,-8.69C320.768,-8.69 299.716,1.535 281.598,17.339C262.041,34.399 245.918,57.981 234.727,80.968C232.449,72.956 230.861,66.241 230.265,63.681L230.222,63.473L230.225,63.509L230.006,62.574C229.704,61.569 210.707,54.875 213.318,67.556C214.844,74.971 224.218,114.311 228.65,137.003C211.93,136.068 189.422,134.029 176.687,130.811C176.687,130.811 176.687,130.811 176.687,130.811C156.452,125.698 136.593,126.164 117.661,132.126C117.661,132.127 117.661,132.127 117.661,132.127C82.957,143.059 55.776,171.168 41.547,211.676C41.547,211.676 41.547,211.676 41.547,211.676C28.026,250.168 27.858,295.577 41.267,339.537C57.419,392.49 90.596,435.215 131.967,457.004C150.618,466.827 169.733,471.729 188.417,471.729C188.417,471.729 188.418,471.729 188.418,471.729C199.129,471.728 209.704,470.118 219.985,466.882ZM238.875,154.855L238.822,154.855C221.658,154.31 189.124,151.879 172.429,147.661C155.444,143.37 138.774,143.698 122.883,148.703C93.077,158.093 70.166,182.646 57.945,217.436C45.57,252.668 45.618,294.231 57.891,334.467C72.588,382.65 102.422,421.8 140.066,441.626C140.066,441.626 140.067,441.626 140.067,441.626C156.05,450.045 172.405,454.349 188.417,454.349C197.155,454.348 205.785,453.066 214.181,450.482C219.208,447.733 224.638,447.014 230.399,447.666C236.335,447.544 242.295,448.404 248.106,450.25L247.385,452.519C254.781,455.428 262.611,458.664 270.649,458.518C289.541,458.176 310.212,448.347 322.972,441.626C360.617,421.799 390.451,382.65 405.149,334.466C417.421,294.229 417.47,252.667 405.095,217.435C392.874,182.645 369.963,158.093 340.157,148.702C324.267,143.696 307.597,143.368 290.611,147.66C290.611,147.66 290.611,147.66 290.611,147.66C273.828,151.9 256.631,154.295 239.379,154.854L239.339,154.855L239.303,154.857L239.156,154.856L238.936,154.857L238.875,154.855ZM214.834,450.285L214.898,450.267L214.978,450.239L214.827,450.286L214.834,450.285ZM342.322,8.708C324.165,9.071 307.534,17.778 293.023,30.436C271.516,49.197 254.661,76.654 244.641,101.359C297.494,94.823 341.681,63.012 342.322,8.708Z"/>
                    </g>
                </g>
                <g transform="matrix(1.03235,0,0,1.03235,85.4639,224.291)">
                    <g transform="matrix(1,0,0,1,-1222.01,-1095.6)">
                        <path d="M1548.46,670.609C1548.46,659.14 1539.15,649.829 1527.68,649.829L759.442,649.829C747.973,649.829 738.662,659.14 738.662,670.609L738.662,1321.72C738.662,1333.19 747.973,1342.5 759.442,1342.5L1527.68,1342.5C1539.15,1342.5 1548.46,1333.19 1548.46,1321.72L1548.46,670.609Z" style="fill:white;"/>
                        <path d="M1558.55,670.609C1558.55,653.572 1544.72,639.739 1527.68,639.739L759.442,639.739C742.405,639.739 728.572,653.572 728.572,670.609L728.572,1321.72C728.572,1338.76 742.405,1352.59 759.442,1352.59C759.442,1352.59 1527.68,1352.59 1527.68,1352.59C1544.72,1352.59 1558.55,1338.76 1558.55,1321.72C1558.55,1321.72 1558.55,670.609 1558.55,670.609ZM1538.37,670.609L1538.37,1321.72C1538.37,1327.62 1533.58,1332.41 1527.68,1332.41L759.442,1332.41C753.542,1332.41 748.752,1327.62 748.752,1321.72C748.752,1321.72 748.752,670.609 748.752,670.609C748.752,664.709 753.542,659.919 759.442,659.919C759.442,659.919 1527.68,659.919 1527.68,659.919C1533.58,659.919 1538.37,664.709 1538.37,670.609Z"/>
                    </g>
                    <g transform="matrix(1.02468,0.546146,-0.546146,1.02468,-180.426,-473.603)">
                        <path d="M230.265,63.681L230.222,63.473L230.225,63.509L230.006,62.574C229.704,61.569 210.707,54.875 213.318,67.556C214.844,74.971 224.218,114.311 228.65,137.003C211.93,136.068 189.422,134.029 176.687,130.811C176.687,130.811 176.687,130.811 176.687,130.811C156.452,125.698 136.593,126.164 117.661,132.126C117.661,132.127 117.661,132.127 117.661,132.127C82.957,143.059 55.776,171.168 41.547,211.676C41.547,211.676 41.547,211.676 41.547,211.676C28.026,250.168 27.858,295.577 41.267,339.537C57.419,392.49 90.596,435.215 131.967,457.004C150.618,466.827 169.733,471.729 188.417,471.729C188.417,471.729 188.418,471.729 188.418,471.729C199.13,471.728 209.707,470.118 219.986,466.881L219.984,466.882L219.986,466.881L220.005,466.875C220.46,466.732 220.902,466.552 221.325,466.334L221.635,466.208C221.301,466.386 220.954,466.542 220.599,466.676C220.552,466.693 220.126,466.838 220.126,466.838C220.126,466.838 220.661,466.659 220.702,466.644L220.283,466.789C223.358,465.812 226.506,465.244 229.671,465.087L230.046,465.151C232.957,465.701 235.985,466.734 239.119,467.883C249.107,471.548 259.946,476.095 270.964,475.895C292.613,475.503 316.448,464.705 331.072,457.004C331.072,457.004 331.072,457.004 331.072,457.004C372.443,435.213 405.62,392.49 421.773,339.536C421.773,339.536 421.773,339.536 421.773,339.536C435.181,295.575 435.013,250.167 421.493,211.675C421.493,211.675 421.493,211.675 421.493,211.675C407.264,171.168 380.084,143.059 345.379,132.126C326.449,126.162 306.591,125.696 286.353,130.81C273.417,134.078 260.214,136.164 246.937,137.074C246.175,131.357 245.053,124.451 244.227,118.906C307.532,111.994 359.71,72.713 359.71,7.5C359.71,-1.443 352.461,-8.69 343.52,-8.69C320.768,-8.69 299.716,1.535 281.598,17.339C262.041,34.399 245.918,57.981 234.727,80.968C232.449,72.956 230.861,66.241 230.265,63.681ZM238.875,154.855L238.822,154.855C221.658,154.31 189.124,151.879 172.429,147.661C155.444,143.37 138.774,143.698 122.883,148.703C93.077,158.093 70.166,182.646 57.945,217.436C45.57,252.668 45.618,294.231 57.891,334.467C72.588,382.65 102.422,421.8 140.066,441.626C140.066,441.626 140.067,441.626 140.067,441.626C156.05,450.045 172.405,454.349 188.417,454.349C197.155,454.348 205.785,453.066 214.181,450.482C219.208,447.733 224.638,447.014 230.399,447.666C236.335,447.544 242.295,448.404 248.106,450.25L247.385,452.519C254.781,455.428 262.611,458.664 270.649,458.518C289.541,458.176 310.212,448.347 322.972,441.626C360.617,421.799 390.451,382.65 405.149,334.466C417.421,294.229 417.47,252.667 405.095,217.435C392.874,182.645 369.963,158.093 340.157,148.702C324.267,143.696 307.597,143.368 290.611,147.66C290.611,147.66 290.611,147.66 290.611,147.66C273.828,151.9 256.631,154.295 239.379,154.854L239.339,154.855L239.303,154.857L239.156,154.856L238.936,154.857L238.875,154.855ZM221.846,466.05L221.627,466.174L221.635,466.208C221.818,466.11 221.996,466.007 222.167,465.897L222.146,465.862L221.846,466.05ZM214.856,450.278L214.929,450.256L214.982,450.238L214.9,450.262L214.856,450.278ZM342.322,8.708C324.165,9.071 307.534,17.778 293.023,30.436C271.516,49.197 254.661,76.654 244.641,101.359C297.494,94.823 341.681,63.012 342.322,8.708Z"/>
                    </g>
                </g>
                <g transform="matrix(1.03235,0,0,1.03235,-512.278,130.043)">
                    <g transform="matrix(1,0,0,1,-1222.01,-1095.6)">
                        <path d="M1548.46,670.609C1548.46,659.14 1539.15,649.829 1527.68,649.829L759.442,649.829C747.973,649.829 738.662,659.14 738.662,670.609L738.662,1321.72C738.662,1333.19 747.973,1342.5 759.442,1342.5L1527.68,1342.5C1539.15,1342.5 1548.46,1333.19 1548.46,1321.72L1548.46,670.609Z" style="fill:white;"/>
                        <path d="M1558.55,670.609C1558.55,653.572 1544.72,639.739 1527.68,639.739L759.442,639.739C742.405,639.739 728.572,653.572 728.572,670.609L728.572,1321.72C728.572,1338.76 742.405,1352.59 759.442,1352.59L1527.68,1352.59C1544.72,1352.59 1558.55,1338.76 1558.55,1321.72C1558.55,1321.72 1558.55,670.609 1558.55,670.609ZM1538.37,670.609L1538.37,1321.72C1538.37,1327.62 1533.58,1332.41 1527.68,1332.41C1527.68,1332.41 759.442,1332.41 759.442,1332.41C753.542,1332.41 748.752,1327.62 748.752,1321.72C748.752,1321.72 748.752,670.609 748.752,670.609C748.752,664.709 753.542,659.919 759.442,659.919C759.442,659.919 1527.68,659.919 1527.68,659.919C1533.58,659.919 1538.37,664.709 1538.37,670.609Z"/>
                    </g>
                    <g transform="matrix(1.16114,0,0,1.16114,-339.602,-379.037)">
                        <path d="M230.265,63.681L230.222,63.473L230.225,63.509L230.006,62.574C229.704,61.569 210.707,54.875 213.318,67.556C214.844,74.971 224.218,114.311 228.65,137.003C211.93,136.068 189.422,134.029 176.687,130.811C176.687,130.811 176.687,130.811 176.687,130.811C156.452,125.698 136.593,126.164 117.661,132.126C117.661,132.127 117.661,132.127 117.661,132.127C82.957,143.059 55.776,171.168 41.547,211.676C41.547,211.676 41.547,211.676 41.547,211.676C28.026,250.168 27.858,295.577 41.267,339.537C57.419,392.49 90.596,435.215 131.967,457.004C150.618,466.827 169.733,471.729 188.417,471.729C188.417,471.729 188.418,471.729 188.418,471.729C199.137,471.728 209.719,470.116 220.005,466.875L219.883,466.909L220.117,466.839L220.128,466.837L220.126,466.838L220.128,466.837L220.13,466.837L220.128,466.837L220.172,466.822L220.231,466.804L220.396,466.747L220.702,466.644L220.283,466.789C223.358,465.812 226.506,465.244 229.671,465.087L230.046,465.151C232.957,465.701 235.985,466.734 239.119,467.883C249.107,471.548 259.946,476.095 270.964,475.895C292.613,475.503 316.448,464.705 331.072,457.004C331.072,457.004 331.072,457.004 331.072,457.004C372.443,435.213 405.62,392.49 421.773,339.536C421.773,339.536 421.773,339.536 421.773,339.536C435.181,295.575 435.013,250.167 421.493,211.675C421.493,211.675 421.493,211.675 421.493,211.675C407.264,171.168 380.084,143.059 345.379,132.126C326.449,126.162 306.591,125.696 286.353,130.81C273.417,134.078 260.214,136.164 246.937,137.074C246.175,131.357 245.053,124.451 244.227,118.906C307.532,111.994 359.71,72.713 359.71,7.5C359.71,-1.443 352.461,-8.69 343.52,-8.69C320.768,-8.69 299.716,1.535 281.598,17.339C262.041,34.399 245.918,57.981 234.727,80.968C232.449,72.956 230.861,66.241 230.265,63.681ZM219.826,466.924C219.139,467.112 218.43,467.214 217.716,467.225L217.394,467.277C218.218,467.277 219.037,467.16 219.826,466.924ZM213.927,450.62L213.855,450.659L213.796,450.694C213.455,450.851 213.149,451.026 212.875,451.213C209.95,453.075 208.358,456.562 208.997,460.09C209.738,464.173 213.259,467.155 217.395,467.226L217.394,467.277C213.105,467.277 209.457,464.147 208.805,459.908C208.2,455.973 210.344,452.174 213.927,450.62ZM214.975,450.24L214.958,450.244C214.533,450.376 214.146,450.526 213.796,450.694L213.723,450.737L213.434,450.884C213.323,450.947 213.212,451.01 213.1,451.073L212.875,451.213C206.87,455.314 216.076,465.639 217.396,467.063C217.408,466.061 217.438,461.713 217.148,457.684L213.119,451.092L213.723,450.737C213.973,450.613 214.231,450.502 214.497,450.402L214.876,450.275L214.975,450.24ZM220.117,466.839L220.128,466.837L220.166,466.824L220.117,466.839ZM247.385,452.519C254.781,455.428 262.611,458.664 270.649,458.518C289.541,458.176 310.212,448.347 322.972,441.626C360.617,421.799 390.451,382.65 405.149,334.466C417.421,294.229 417.47,252.667 405.095,217.435C392.874,182.645 369.963,158.093 340.157,148.702C324.267,143.696 307.597,143.368 290.611,147.66C290.611,147.66 290.611,147.66 290.611,147.66C273.828,151.9 256.631,154.295 239.379,154.854L239.339,154.855L239.303,154.857L239.156,154.856L238.936,154.857L238.875,154.855L238.822,154.855C221.658,154.31 189.124,151.879 172.429,147.661C155.444,143.37 138.774,143.698 122.883,148.703C93.077,158.093 70.166,182.646 57.945,217.436C45.57,252.668 45.618,294.231 57.891,334.467C72.588,382.65 102.422,421.8 140.066,441.626C140.066,441.626 140.067,441.626 140.067,441.626C156.05,450.045 172.405,454.349 188.417,454.349C197.155,454.348 205.785,453.066 214.181,450.482C219.208,447.733 224.638,447.014 230.399,447.666C236.335,447.544 242.295,448.404 248.106,450.25L247.385,452.519ZM342.322,8.708C324.165,9.071 307.534,17.778 293.023,30.436C271.516,49.197 254.661,76.654 244.641,101.359C297.494,94.823 341.681,63.012 342.322,8.708Z"/>
                    </g>
                </g>
            </g>
        </g>
        <g transform="matrix(0.934882,0,0,1,-1132.73,-1103.66)">
            <path d="M3973.24,218.397C3973.24,203.792 3960.56,191.934 3944.94,191.934L186.188,191.934C170.565,191.934 157.881,203.792 157.881,218.397L157.881,2811.78C157.881,2826.39 170.565,2838.24 186.188,2838.24L3944.94,2838.24C3960.56,2838.24 3973.24,2826.39 3973.24,2811.78L3973.24,218.397Z" style="fill:white;fill-opacity:0;stroke:black;stroke-width:21.52px;stroke-linecap:round;stroke-miterlimit:1.5;"/>
        </g>
        <g transform="matrix(1,0,0,1,-1438.9,-724.522)">
            <g transform="matrix(200,0,0,200,526.99,2065.22)">
                <path d="M0.257,-0.699C0.27,-0.701 0.285,-0.701 0.302,-0.699C0.319,-0.696 0.331,-0.692 0.338,-0.687C0.342,-0.684 0.345,-0.682 0.347,-0.682C0.349,-0.682 0.357,-0.676 0.369,-0.665C0.382,-0.653 0.39,-0.644 0.395,-0.637C0.411,-0.61 0.42,-0.595 0.422,-0.592C0.423,-0.588 0.425,-0.583 0.428,-0.577C0.431,-0.571 0.433,-0.567 0.433,-0.565C0.439,-0.553 0.446,-0.526 0.454,-0.484C0.463,-0.443 0.469,-0.408 0.472,-0.382L0.477,-0.34C0.484,-0.273 0.486,-0.201 0.48,-0.125C0.478,-0.098 0.474,-0.082 0.47,-0.077L0.467,-0.074C0.467,-0.071 0.466,-0.07 0.465,-0.069C0.458,-0.057 0.448,-0.051 0.435,-0.051C0.429,-0.051 0.419,-0.056 0.405,-0.064C0.391,-0.072 0.384,-0.078 0.382,-0.084C0.38,-0.089 0.381,-0.103 0.384,-0.127C0.388,-0.167 0.389,-0.21 0.387,-0.257L0.386,-0.285C0.361,-0.288 0.325,-0.291 0.28,-0.293C0.234,-0.295 0.199,-0.294 0.174,-0.292L0.15,-0.29L0.145,-0.289L0.132,-0.237C0.13,-0.231 0.129,-0.218 0.127,-0.199C0.125,-0.18 0.124,-0.169 0.124,-0.166C0.118,-0.131 0.116,-0.109 0.116,-0.1C0.116,-0.085 0.114,-0.069 0.11,-0.054C0.108,-0.045 0.104,-0.039 0.098,-0.036C0.091,-0.033 0.079,-0.032 0.063,-0.032C0.047,-0.032 0.037,-0.033 0.033,-0.037C0.029,-0.041 0.026,-0.051 0.026,-0.067C0.022,-0.112 0.025,-0.164 0.034,-0.224C0.049,-0.316 0.059,-0.371 0.065,-0.389C0.068,-0.396 0.07,-0.403 0.071,-0.409C0.072,-0.42 0.079,-0.442 0.092,-0.475C0.124,-0.564 0.157,-0.626 0.192,-0.661C0.214,-0.684 0.236,-0.696 0.257,-0.699ZM0.304,-0.598C0.288,-0.609 0.274,-0.609 0.261,-0.597C0.234,-0.573 0.213,-0.538 0.199,-0.492C0.197,-0.486 0.192,-0.475 0.185,-0.457C0.181,-0.451 0.179,-0.446 0.178,-0.442C0.177,-0.438 0.176,-0.433 0.175,-0.427C0.173,-0.421 0.172,-0.415 0.171,-0.41C0.167,-0.4 0.165,-0.393 0.165,-0.39C0.165,-0.389 0.18,-0.388 0.211,-0.387C0.242,-0.386 0.273,-0.385 0.305,-0.384C0.337,-0.383 0.354,-0.382 0.355,-0.382L0.375,-0.381C0.376,-0.382 0.373,-0.398 0.368,-0.429C0.363,-0.461 0.359,-0.477 0.359,-0.478C0.354,-0.485 0.35,-0.5 0.348,-0.522C0.348,-0.526 0.347,-0.529 0.346,-0.532C0.344,-0.535 0.342,-0.538 0.341,-0.54C0.339,-0.543 0.337,-0.546 0.335,-0.55C0.325,-0.575 0.315,-0.591 0.304,-0.598Z" style="fill-rule:nonzero;"/>
            </g>
            <g transform="matrix(200,0,0,200,692.411,2065.22)">
                <path d="M0.412,-0.617C0.421,-0.611 0.426,-0.607 0.426,-0.607C0.427,-0.607 0.431,-0.604 0.438,-0.598C0.445,-0.591 0.449,-0.588 0.451,-0.588L0.457,-0.582C0.458,-0.582 0.46,-0.579 0.463,-0.575C0.467,-0.57 0.47,-0.566 0.472,-0.563C0.484,-0.549 0.496,-0.532 0.506,-0.512C0.519,-0.486 0.526,-0.471 0.527,-0.466C0.528,-0.463 0.529,-0.459 0.53,-0.454C0.531,-0.449 0.532,-0.442 0.533,-0.435C0.534,-0.424 0.536,-0.417 0.537,-0.416C0.539,-0.414 0.54,-0.411 0.539,-0.408C0.539,-0.406 0.538,-0.401 0.536,-0.393C0.535,-0.386 0.534,-0.38 0.534,-0.376C0.532,-0.354 0.528,-0.335 0.522,-0.319C0.521,-0.314 0.519,-0.309 0.517,-0.304C0.515,-0.298 0.513,-0.294 0.512,-0.29C0.511,-0.286 0.511,-0.283 0.511,-0.283C0.51,-0.279 0.505,-0.269 0.496,-0.254C0.487,-0.239 0.482,-0.231 0.48,-0.23C0.479,-0.23 0.479,-0.229 0.479,-0.228C0.479,-0.227 0.477,-0.224 0.474,-0.22C0.471,-0.216 0.47,-0.213 0.471,-0.213C0.472,-0.212 0.464,-0.203 0.449,-0.187C0.433,-0.172 0.42,-0.159 0.409,-0.15C0.379,-0.124 0.348,-0.103 0.315,-0.088C0.3,-0.079 0.291,-0.074 0.29,-0.072C0.286,-0.067 0.265,-0.059 0.228,-0.048C0.19,-0.037 0.165,-0.032 0.152,-0.032C0.146,-0.032 0.141,-0.031 0.134,-0.029C0.113,-0.025 0.093,-0.025 0.076,-0.03C0.073,-0.031 0.068,-0.033 0.061,-0.034C0.054,-0.036 0.048,-0.039 0.044,-0.041C0.04,-0.043 0.038,-0.046 0.036,-0.049C0.035,-0.054 0.033,-0.056 0.033,-0.056C0.031,-0.056 0.029,-0.058 0.027,-0.063C0.025,-0.069 0.023,-0.085 0.023,-0.111C0.023,-0.13 0.024,-0.147 0.026,-0.162C0.028,-0.176 0.029,-0.193 0.029,-0.211C0.03,-0.226 0.032,-0.279 0.036,-0.371C0.04,-0.462 0.042,-0.533 0.042,-0.583L0.041,-0.605C0.04,-0.618 0.048,-0.637 0.065,-0.66C0.071,-0.668 0.075,-0.673 0.078,-0.675C0.08,-0.677 0.084,-0.678 0.088,-0.679C0.092,-0.68 0.097,-0.681 0.103,-0.683C0.107,-0.685 0.121,-0.689 0.145,-0.695L0.186,-0.695C0.24,-0.694 0.284,-0.685 0.318,-0.668C0.322,-0.667 0.33,-0.663 0.342,-0.658C0.354,-0.653 0.364,-0.648 0.374,-0.641C0.389,-0.632 0.397,-0.627 0.4,-0.627L0.412,-0.617ZM0.279,-0.59C0.261,-0.599 0.237,-0.606 0.209,-0.611C0.18,-0.616 0.157,-0.617 0.14,-0.613C0.134,-0.612 0.129,-0.61 0.126,-0.609C0.123,-0.608 0.121,-0.607 0.12,-0.605C0.12,-0.604 0.12,-0.602 0.12,-0.601C0.121,-0.6 0.122,-0.598 0.123,-0.594C0.124,-0.591 0.125,-0.587 0.125,-0.583C0.125,-0.581 0.126,-0.569 0.129,-0.546C0.131,-0.523 0.13,-0.443 0.125,-0.306C0.123,-0.213 0.12,-0.155 0.114,-0.134C0.111,-0.123 0.113,-0.118 0.12,-0.118C0.136,-0.118 0.172,-0.127 0.228,-0.145C0.254,-0.153 0.283,-0.169 0.317,-0.19C0.334,-0.202 0.354,-0.22 0.376,-0.245C0.399,-0.27 0.414,-0.292 0.423,-0.311C0.433,-0.334 0.44,-0.363 0.444,-0.396C0.445,-0.417 0.44,-0.44 0.429,-0.465C0.426,-0.47 0.423,-0.476 0.42,-0.481C0.416,-0.487 0.411,-0.493 0.405,-0.5C0.398,-0.507 0.393,-0.512 0.391,-0.515C0.388,-0.517 0.382,-0.523 0.373,-0.531C0.363,-0.539 0.358,-0.544 0.357,-0.544C0.33,-0.567 0.314,-0.578 0.308,-0.578C0.299,-0.581 0.289,-0.585 0.279,-0.59Z" style="fill-rule:nonzero;"/>
            </g>
            <g transform="matrix(200,0,0,200,809.233,2065.22)">
                <path d="M0.05,-0.658C0.051,-0.658 0.055,-0.658 0.061,-0.659C0.067,-0.66 0.072,-0.66 0.077,-0.66C0.09,-0.66 0.098,-0.659 0.102,-0.657C0.107,-0.655 0.109,-0.651 0.111,-0.644C0.113,-0.632 0.114,-0.593 0.114,-0.528C0.114,-0.49 0.115,-0.448 0.117,-0.401C0.119,-0.355 0.12,-0.315 0.12,-0.28C0.12,-0.238 0.122,-0.193 0.124,-0.147C0.127,-0.1 0.13,-0.074 0.133,-0.068C0.135,-0.064 0.136,-0.057 0.136,-0.048C0.136,-0.04 0.136,-0.032 0.134,-0.027C0.131,-0.018 0.127,-0.012 0.121,-0.009C0.115,-0.007 0.103,-0.006 0.085,-0.006C0.077,-0.006 0.071,-0.007 0.067,-0.009C0.064,-0.011 0.059,-0.016 0.054,-0.025C0.05,-0.032 0.046,-0.044 0.043,-0.061C0.038,-0.091 0.034,-0.156 0.032,-0.256C0.03,-0.337 0.028,-0.378 0.027,-0.38C0.026,-0.38 0.025,-0.413 0.024,-0.477C0.023,-0.54 0.023,-0.576 0.023,-0.583C0.026,-0.63 0.035,-0.655 0.05,-0.658Z" style="fill-rule:nonzero;"/>
            </g>
            <g transform="matrix(200,0,0,200,845.682,2065.22)">
                <path d="M0.063,-0.131C0.055,-0.142 0.051,-0.148 0.051,-0.148C0.051,-0.149 0.05,-0.151 0.048,-0.153C0.046,-0.155 0.044,-0.157 0.044,-0.159C0.044,-0.161 0.042,-0.165 0.039,-0.171C0.025,-0.192 0.026,-0.21 0.042,-0.224C0.052,-0.234 0.06,-0.238 0.065,-0.238C0.071,-0.238 0.079,-0.233 0.09,-0.223C0.099,-0.216 0.117,-0.196 0.146,-0.164C0.167,-0.139 0.184,-0.122 0.197,-0.112C0.21,-0.101 0.224,-0.093 0.239,-0.088C0.247,-0.085 0.26,-0.083 0.277,-0.083C0.292,-0.083 0.304,-0.085 0.313,-0.09C0.323,-0.095 0.337,-0.106 0.354,-0.125C0.375,-0.149 0.389,-0.17 0.396,-0.187C0.403,-0.204 0.407,-0.232 0.408,-0.27C0.408,-0.307 0.398,-0.336 0.377,-0.355C0.367,-0.365 0.359,-0.371 0.353,-0.374C0.348,-0.376 0.338,-0.377 0.326,-0.377C0.292,-0.377 0.243,-0.367 0.176,-0.347C0.137,-0.334 0.11,-0.33 0.097,-0.335C0.095,-0.336 0.09,-0.337 0.084,-0.339C0.077,-0.341 0.071,-0.344 0.067,-0.348C0.049,-0.364 0.04,-0.378 0.037,-0.388L0.033,-0.398C0.031,-0.398 0.029,-0.408 0.026,-0.426C0.023,-0.434 0.022,-0.444 0.024,-0.457C0.026,-0.469 0.027,-0.478 0.027,-0.484C0.027,-0.489 0.029,-0.497 0.033,-0.508C0.038,-0.518 0.041,-0.525 0.043,-0.529C0.045,-0.533 0.048,-0.54 0.054,-0.55C0.059,-0.559 0.063,-0.566 0.064,-0.57C0.07,-0.582 0.089,-0.602 0.123,-0.631C0.13,-0.637 0.155,-0.651 0.199,-0.673C0.201,-0.674 0.208,-0.677 0.219,-0.68C0.23,-0.683 0.238,-0.685 0.241,-0.686C0.246,-0.687 0.257,-0.688 0.275,-0.689C0.292,-0.689 0.301,-0.688 0.303,-0.687C0.304,-0.685 0.306,-0.685 0.31,-0.685C0.324,-0.685 0.347,-0.677 0.376,-0.661C0.403,-0.646 0.416,-0.637 0.416,-0.633C0.416,-0.632 0.417,-0.63 0.42,-0.627C0.423,-0.623 0.424,-0.621 0.424,-0.619C0.425,-0.612 0.428,-0.607 0.433,-0.605C0.441,-0.6 0.438,-0.588 0.425,-0.568C0.42,-0.56 0.411,-0.558 0.4,-0.562C0.396,-0.563 0.392,-0.564 0.386,-0.564C0.383,-0.564 0.381,-0.565 0.379,-0.566C0.377,-0.567 0.376,-0.568 0.375,-0.568C0.37,-0.568 0.356,-0.573 0.333,-0.584C0.31,-0.595 0.285,-0.599 0.261,-0.597C0.233,-0.594 0.206,-0.582 0.18,-0.561C0.153,-0.54 0.134,-0.517 0.123,-0.492C0.117,-0.481 0.115,-0.468 0.116,-0.454C0.117,-0.434 0.12,-0.424 0.124,-0.423C0.125,-0.422 0.127,-0.423 0.13,-0.425C0.131,-0.427 0.138,-0.429 0.15,-0.433C0.162,-0.436 0.171,-0.438 0.176,-0.439C0.177,-0.439 0.192,-0.443 0.222,-0.451C0.266,-0.462 0.303,-0.467 0.333,-0.466L0.368,-0.466L0.397,-0.451C0.442,-0.425 0.47,-0.396 0.48,-0.364C0.492,-0.328 0.498,-0.299 0.499,-0.279C0.5,-0.247 0.497,-0.217 0.491,-0.188C0.48,-0.14 0.449,-0.091 0.4,-0.042C0.366,-0.009 0.327,0.008 0.282,0.008L0.255,0.008C0.239,0.008 0.218,0.002 0.192,-0.011C0.166,-0.024 0.143,-0.039 0.124,-0.057C0.098,-0.081 0.083,-0.097 0.078,-0.107C0.074,-0.117 0.069,-0.125 0.063,-0.131Z" style="fill-rule:nonzero;"/>
            </g>
            <g transform="matrix(200,0,0,200,954.794,2065.22)">
                <path d="M0.375,-0.722C0.422,-0.725 0.451,-0.727 0.464,-0.727L0.501,-0.728C0.503,-0.725 0.505,-0.722 0.509,-0.718C0.513,-0.714 0.516,-0.711 0.519,-0.709L0.52,-0.685C0.521,-0.664 0.518,-0.651 0.512,-0.645C0.509,-0.642 0.501,-0.64 0.488,-0.64C0.477,-0.64 0.469,-0.639 0.463,-0.638C0.459,-0.637 0.442,-0.635 0.412,-0.632C0.369,-0.628 0.326,-0.623 0.283,-0.616C0.278,-0.615 0.276,-0.614 0.275,-0.613C0.275,-0.613 0.275,-0.61 0.275,-0.606C0.277,-0.59 0.277,-0.58 0.276,-0.576C0.274,-0.572 0.273,-0.538 0.273,-0.474C0.272,-0.409 0.273,-0.357 0.275,-0.315C0.277,-0.245 0.278,-0.195 0.278,-0.164C0.279,-0.105 0.278,-0.074 0.275,-0.071C0.272,-0.069 0.271,-0.066 0.271,-0.063C0.271,-0.058 0.266,-0.053 0.257,-0.05C0.255,-0.049 0.248,-0.05 0.236,-0.051L0.216,-0.053C0.208,-0.051 0.2,-0.055 0.192,-0.063C0.185,-0.07 0.181,-0.08 0.182,-0.093C0.184,-0.138 0.184,-0.205 0.182,-0.295C0.18,-0.385 0.179,-0.447 0.179,-0.48L0.179,-0.596C0.173,-0.595 0.161,-0.592 0.143,-0.588C0.125,-0.584 0.11,-0.581 0.099,-0.579C0.071,-0.576 0.049,-0.581 0.032,-0.596L0.023,-0.603L0.025,-0.623C0.025,-0.64 0.028,-0.651 0.033,-0.657C0.038,-0.663 0.048,-0.667 0.063,-0.668C0.076,-0.669 0.104,-0.674 0.15,-0.685C0.153,-0.685 0.161,-0.687 0.171,-0.689C0.182,-0.692 0.188,-0.693 0.192,-0.694C0.21,-0.699 0.24,-0.704 0.283,-0.71C0.326,-0.717 0.356,-0.72 0.375,-0.722Z" style="fill-rule:nonzero;"/>
            </g>
            <g transform="matrix(200,0,0,200,1068.11,2065.22)">
                <path d="M0.296,-0.706C0.297,-0.707 0.307,-0.707 0.326,-0.704C0.345,-0.702 0.36,-0.699 0.371,-0.696C0.383,-0.692 0.391,-0.69 0.394,-0.69C0.394,-0.69 0.399,-0.689 0.406,-0.686C0.413,-0.683 0.418,-0.681 0.419,-0.681C0.421,-0.682 0.423,-0.681 0.427,-0.678C0.43,-0.674 0.433,-0.673 0.433,-0.673C0.434,-0.673 0.436,-0.671 0.439,-0.668C0.442,-0.664 0.445,-0.662 0.446,-0.661C0.449,-0.66 0.452,-0.656 0.456,-0.648C0.46,-0.64 0.463,-0.635 0.465,-0.634C0.467,-0.633 0.467,-0.63 0.467,-0.627C0.467,-0.626 0.469,-0.622 0.472,-0.615C0.475,-0.608 0.476,-0.604 0.475,-0.602C0.471,-0.572 0.468,-0.556 0.466,-0.553C0.463,-0.547 0.46,-0.541 0.459,-0.533C0.457,-0.526 0.454,-0.519 0.45,-0.513C0.444,-0.503 0.436,-0.492 0.428,-0.48C0.424,-0.475 0.42,-0.471 0.418,-0.467C0.415,-0.462 0.412,-0.459 0.41,-0.456C0.408,-0.452 0.403,-0.447 0.395,-0.44C0.363,-0.411 0.333,-0.388 0.304,-0.373C0.277,-0.358 0.25,-0.344 0.223,-0.332L0.255,-0.304C0.275,-0.287 0.288,-0.274 0.293,-0.266C0.296,-0.262 0.299,-0.259 0.301,-0.259C0.303,-0.26 0.312,-0.252 0.329,-0.234C0.347,-0.217 0.357,-0.205 0.361,-0.2C0.363,-0.198 0.364,-0.196 0.366,-0.193L0.368,-0.189C0.373,-0.185 0.383,-0.173 0.395,-0.153C0.408,-0.134 0.415,-0.122 0.415,-0.119C0.415,-0.117 0.415,-0.116 0.417,-0.118C0.418,-0.119 0.422,-0.112 0.429,-0.098C0.437,-0.083 0.444,-0.068 0.45,-0.053C0.457,-0.037 0.46,-0.028 0.46,-0.027C0.459,-0.018 0.457,-0.011 0.454,-0.008C0.451,-0.005 0.443,0 0.43,0.007C0.419,0.013 0.412,0.016 0.408,0.014C0.393,0.01 0.384,0.006 0.381,0.002C0.379,0 0.372,-0.011 0.362,-0.032C0.339,-0.076 0.32,-0.107 0.306,-0.124C0.296,-0.136 0.29,-0.143 0.289,-0.146C0.28,-0.158 0.251,-0.186 0.201,-0.23C0.169,-0.258 0.144,-0.283 0.126,-0.305L0.124,-0.27C0.124,-0.264 0.124,-0.256 0.123,-0.246C0.123,-0.237 0.122,-0.226 0.121,-0.213C0.121,-0.2 0.12,-0.191 0.12,-0.185C0.117,-0.164 0.117,-0.146 0.119,-0.129C0.121,-0.112 0.123,-0.097 0.124,-0.082C0.125,-0.06 0.121,-0.04 0.112,-0.022C0.109,-0.017 0.106,-0.012 0.103,-0.009C0.1,-0.006 0.097,-0.005 0.096,-0.006C0.095,-0.007 0.095,-0.006 0.095,-0.005C0.095,-0.004 0.088,-0.004 0.075,-0.004C0.06,-0.004 0.05,-0.005 0.044,-0.009C0.038,-0.013 0.033,-0.021 0.029,-0.034L0.023,-0.051L0.025,-0.106C0.027,-0.162 0.028,-0.194 0.029,-0.203C0.04,-0.329 0.042,-0.428 0.034,-0.498C0.033,-0.506 0.033,-0.516 0.032,-0.526C0.032,-0.536 0.031,-0.544 0.029,-0.551C0.026,-0.562 0.026,-0.576 0.03,-0.593C0.034,-0.61 0.039,-0.62 0.043,-0.625C0.045,-0.627 0.047,-0.63 0.05,-0.634C0.053,-0.638 0.066,-0.647 0.09,-0.661C0.129,-0.684 0.185,-0.697 0.257,-0.702C0.282,-0.704 0.295,-0.705 0.296,-0.706ZM0.11,-0.572C0.11,-0.569 0.111,-0.566 0.113,-0.563C0.116,-0.559 0.117,-0.555 0.117,-0.55C0.117,-0.545 0.118,-0.538 0.119,-0.53C0.125,-0.505 0.127,-0.468 0.127,-0.422L0.127,-0.401L0.176,-0.411C0.195,-0.415 0.22,-0.426 0.25,-0.445C0.28,-0.463 0.305,-0.481 0.325,-0.499C0.364,-0.535 0.383,-0.566 0.383,-0.591L0.383,-0.602L0.37,-0.607C0.351,-0.616 0.335,-0.621 0.322,-0.621C0.316,-0.622 0.309,-0.623 0.301,-0.623C0.297,-0.623 0.282,-0.623 0.257,-0.622C0.232,-0.621 0.216,-0.62 0.209,-0.618C0.143,-0.607 0.11,-0.592 0.11,-0.572Z" style="fill-rule:nonzero;"/>
            </g>
            <g transform="matrix(200,0,0,200,1172.32,2065.22)">
                <path d="M0.05,-0.658C0.051,-0.658 0.055,-0.658 0.061,-0.659C0.067,-0.66 0.072,-0.66 0.077,-0.66C0.09,-0.66 0.098,-0.659 0.102,-0.657C0.107,-0.655 0.109,-0.651 0.111,-0.644C0.113,-0.632 0.114,-0.593 0.114,-0.528C0.114,-0.49 0.115,-0.448 0.117,-0.401C0.119,-0.355 0.12,-0.315 0.12,-0.28C0.12,-0.238 0.122,-0.193 0.124,-0.147C0.127,-0.1 0.13,-0.074 0.133,-0.068C0.135,-0.064 0.136,-0.057 0.136,-0.048C0.136,-0.04 0.136,-0.032 0.134,-0.027C0.131,-0.018 0.127,-0.012 0.121,-0.009C0.115,-0.007 0.103,-0.006 0.085,-0.006C0.077,-0.006 0.071,-0.007 0.067,-0.009C0.064,-0.011 0.059,-0.016 0.054,-0.025C0.05,-0.032 0.046,-0.044 0.043,-0.061C0.038,-0.091 0.034,-0.156 0.032,-0.256C0.03,-0.337 0.028,-0.378 0.027,-0.38C0.026,-0.38 0.025,-0.413 0.024,-0.477C0.023,-0.54 0.023,-0.576 0.023,-0.583C0.026,-0.63 0.035,-0.655 0.05,-0.658Z" style="fill-rule:nonzero;"/>
            </g>
            <g transform="matrix(200,0,0,200,1208.77,2065.22)">
                <path d="M0.393,-0.636C0.398,-0.632 0.401,-0.631 0.402,-0.631C0.403,-0.631 0.405,-0.629 0.408,-0.626C0.411,-0.623 0.413,-0.621 0.415,-0.621C0.417,-0.621 0.419,-0.62 0.421,-0.616C0.427,-0.604 0.432,-0.598 0.437,-0.598C0.44,-0.598 0.443,-0.589 0.447,-0.571C0.45,-0.552 0.451,-0.542 0.449,-0.539C0.448,-0.538 0.447,-0.532 0.445,-0.522C0.443,-0.499 0.431,-0.474 0.41,-0.446C0.388,-0.421 0.373,-0.405 0.363,-0.401C0.362,-0.4 0.36,-0.398 0.357,-0.396C0.355,-0.394 0.347,-0.389 0.334,-0.381C0.321,-0.373 0.312,-0.368 0.307,-0.367L0.299,-0.362C0.299,-0.361 0.303,-0.359 0.311,-0.355C0.32,-0.35 0.328,-0.346 0.336,-0.341L0.35,-0.334C0.353,-0.333 0.357,-0.33 0.363,-0.327C0.37,-0.323 0.375,-0.32 0.381,-0.316C0.386,-0.312 0.391,-0.309 0.394,-0.306C0.4,-0.3 0.403,-0.297 0.404,-0.297C0.406,-0.297 0.41,-0.292 0.418,-0.282C0.426,-0.271 0.431,-0.264 0.433,-0.259C0.438,-0.252 0.443,-0.242 0.449,-0.229C0.452,-0.223 0.454,-0.207 0.456,-0.182C0.457,-0.157 0.457,-0.138 0.456,-0.125L0.447,-0.082C0.441,-0.061 0.437,-0.049 0.435,-0.046C0.431,-0.04 0.429,-0.037 0.429,-0.035C0.429,-0.033 0.424,-0.027 0.414,-0.018C0.404,-0.008 0.396,-0.002 0.389,0.001C0.38,0.006 0.361,0.012 0.333,0.019C0.326,0.02 0.31,0.021 0.286,0.022C0.262,0.023 0.246,0.023 0.238,0.021C0.236,0.021 0.232,0.021 0.226,0.02C0.22,0.019 0.216,0.018 0.214,0.018C0.203,0.016 0.187,0.01 0.166,0.001C0.145,-0.009 0.13,-0.017 0.123,-0.023C0.12,-0.026 0.113,-0.027 0.102,-0.027C0.085,-0.027 0.074,-0.03 0.069,-0.036C0.062,-0.044 0.058,-0.09 0.056,-0.175C0.055,-0.235 0.053,-0.278 0.051,-0.303C0.045,-0.36 0.043,-0.392 0.044,-0.398C0.045,-0.402 0.045,-0.415 0.043,-0.436C0.041,-0.458 0.039,-0.474 0.036,-0.484C0.031,-0.515 0.028,-0.535 0.028,-0.544C0.028,-0.569 0.027,-0.584 0.025,-0.591C0.023,-0.598 0.023,-0.603 0.025,-0.606C0.026,-0.612 0.035,-0.617 0.05,-0.623C0.053,-0.623 0.057,-0.627 0.063,-0.633C0.069,-0.638 0.076,-0.641 0.082,-0.641C0.085,-0.641 0.089,-0.642 0.094,-0.644C0.099,-0.645 0.102,-0.647 0.102,-0.648L0.136,-0.66C0.174,-0.673 0.204,-0.678 0.225,-0.675C0.229,-0.674 0.234,-0.675 0.238,-0.676C0.243,-0.678 0.247,-0.678 0.25,-0.678C0.251,-0.678 0.253,-0.677 0.255,-0.677C0.258,-0.677 0.261,-0.676 0.266,-0.676C0.27,-0.675 0.274,-0.675 0.277,-0.675C0.305,-0.674 0.331,-0.667 0.354,-0.657C0.368,-0.65 0.375,-0.647 0.376,-0.646C0.381,-0.643 0.384,-0.641 0.384,-0.641C0.385,-0.641 0.388,-0.639 0.393,-0.636ZM0.276,-0.585C0.257,-0.588 0.234,-0.589 0.206,-0.586C0.168,-0.583 0.138,-0.577 0.116,-0.569C0.113,-0.567 0.113,-0.564 0.113,-0.561C0.114,-0.559 0.115,-0.555 0.116,-0.55C0.117,-0.545 0.118,-0.541 0.118,-0.539C0.118,-0.532 0.119,-0.524 0.121,-0.516C0.125,-0.505 0.128,-0.475 0.13,-0.427C0.133,-0.379 0.135,-0.349 0.137,-0.338C0.144,-0.264 0.146,-0.213 0.145,-0.185C0.145,-0.164 0.145,-0.149 0.146,-0.139L0.148,-0.111C0.158,-0.108 0.162,-0.105 0.162,-0.103C0.162,-0.1 0.171,-0.093 0.188,-0.084C0.205,-0.075 0.218,-0.07 0.225,-0.069C0.228,-0.068 0.243,-0.067 0.27,-0.065C0.295,-0.065 0.313,-0.066 0.325,-0.07C0.336,-0.074 0.345,-0.077 0.349,-0.081C0.356,-0.086 0.361,-0.099 0.365,-0.12C0.369,-0.14 0.37,-0.157 0.368,-0.171C0.363,-0.195 0.359,-0.21 0.355,-0.217C0.351,-0.225 0.346,-0.231 0.34,-0.236C0.321,-0.251 0.285,-0.271 0.232,-0.297C0.2,-0.313 0.178,-0.326 0.167,-0.335C0.16,-0.342 0.156,-0.347 0.155,-0.35C0.154,-0.354 0.153,-0.363 0.154,-0.377C0.154,-0.385 0.155,-0.391 0.158,-0.396C0.16,-0.4 0.167,-0.405 0.178,-0.411C0.188,-0.417 0.195,-0.421 0.199,-0.421C0.206,-0.421 0.225,-0.427 0.258,-0.44C0.277,-0.448 0.297,-0.461 0.318,-0.48C0.339,-0.498 0.352,-0.515 0.356,-0.532C0.359,-0.541 0.359,-0.548 0.356,-0.553C0.354,-0.556 0.346,-0.562 0.332,-0.57C0.318,-0.577 0.309,-0.581 0.305,-0.581C0.303,-0.581 0.293,-0.582 0.276,-0.585Z" style="fill-rule:nonzero;"/>
            </g>
            <g transform="matrix(200,0,0,200,1309.47,2065.22)">
                <path d="M0.368,-0.687C0.369,-0.688 0.38,-0.688 0.401,-0.687C0.405,-0.686 0.413,-0.681 0.422,-0.671C0.432,-0.66 0.437,-0.652 0.438,-0.645C0.439,-0.637 0.442,-0.627 0.446,-0.613C0.446,-0.613 0.447,-0.611 0.447,-0.609L0.452,-0.593C0.467,-0.544 0.476,-0.491 0.48,-0.437C0.48,-0.428 0.481,-0.423 0.482,-0.422C0.484,-0.419 0.485,-0.407 0.485,-0.384C0.485,-0.361 0.484,-0.341 0.484,-0.324C0.481,-0.282 0.477,-0.255 0.472,-0.242L0.466,-0.224C0.458,-0.2 0.444,-0.171 0.422,-0.136C0.401,-0.101 0.381,-0.074 0.362,-0.055C0.353,-0.046 0.346,-0.039 0.342,-0.034C0.337,-0.028 0.328,-0.02 0.317,-0.011C0.306,-0.001 0.299,0.004 0.298,0.004C0.292,0.004 0.281,0.009 0.264,0.021C0.26,0.023 0.252,0.027 0.238,0.032C0.225,0.035 0.211,0.037 0.196,0.035C0.164,0.032 0.134,0.02 0.109,-0.001C0.106,-0.004 0.1,-0.011 0.091,-0.022C0.083,-0.033 0.078,-0.039 0.078,-0.04L0.077,-0.043C0.076,-0.046 0.074,-0.049 0.072,-0.053C0.07,-0.056 0.068,-0.06 0.067,-0.064C0.048,-0.102 0.035,-0.143 0.029,-0.189C0.023,-0.234 0.022,-0.303 0.026,-0.398C0.028,-0.464 0.033,-0.505 0.041,-0.523C0.042,-0.526 0.043,-0.533 0.043,-0.542C0.043,-0.548 0.044,-0.555 0.046,-0.563C0.047,-0.57 0.048,-0.575 0.048,-0.578C0.049,-0.587 0.053,-0.599 0.06,-0.616C0.068,-0.635 0.079,-0.648 0.092,-0.654L0.116,-0.643C0.127,-0.637 0.135,-0.632 0.14,-0.629C0.144,-0.625 0.145,-0.621 0.144,-0.618C0.141,-0.616 0.14,-0.611 0.14,-0.603C0.138,-0.573 0.135,-0.555 0.132,-0.549C0.13,-0.542 0.129,-0.537 0.129,-0.533C0.129,-0.523 0.127,-0.505 0.123,-0.479C0.116,-0.426 0.113,-0.367 0.113,-0.303C0.113,-0.252 0.119,-0.201 0.13,-0.148C0.131,-0.139 0.136,-0.126 0.144,-0.109C0.151,-0.092 0.158,-0.081 0.165,-0.074C0.191,-0.042 0.231,-0.052 0.283,-0.104C0.303,-0.124 0.32,-0.144 0.333,-0.164C0.365,-0.21 0.384,-0.255 0.39,-0.298C0.394,-0.329 0.393,-0.377 0.387,-0.44C0.383,-0.476 0.374,-0.524 0.361,-0.584C0.359,-0.593 0.358,-0.597 0.356,-0.597C0.351,-0.597 0.345,-0.606 0.34,-0.623C0.336,-0.639 0.336,-0.653 0.34,-0.666C0.344,-0.678 0.35,-0.685 0.359,-0.685C0.362,-0.685 0.365,-0.685 0.368,-0.687Z" style="fill-rule:nonzero;"/>
            </g>
            <g transform="matrix(200,0,0,200,1415.54,2065.22)">
                <path d="M0.375,-0.722C0.422,-0.725 0.451,-0.727 0.464,-0.727L0.501,-0.728C0.503,-0.725 0.505,-0.722 0.509,-0.718C0.513,-0.714 0.516,-0.711 0.519,-0.709L0.52,-0.685C0.521,-0.664 0.518,-0.651 0.512,-0.645C0.509,-0.642 0.501,-0.64 0.488,-0.64C0.477,-0.64 0.469,-0.639 0.463,-0.638C0.459,-0.637 0.442,-0.635 0.412,-0.632C0.369,-0.628 0.326,-0.623 0.283,-0.616C0.278,-0.615 0.276,-0.614 0.275,-0.613C0.275,-0.613 0.275,-0.61 0.275,-0.606C0.277,-0.59 0.277,-0.58 0.276,-0.576C0.274,-0.572 0.273,-0.538 0.273,-0.474C0.272,-0.409 0.273,-0.357 0.275,-0.315C0.277,-0.245 0.278,-0.195 0.278,-0.164C0.279,-0.105 0.278,-0.074 0.275,-0.071C0.272,-0.069 0.271,-0.066 0.271,-0.063C0.271,-0.058 0.266,-0.053 0.257,-0.05C0.255,-0.049 0.248,-0.05 0.236,-0.051L0.216,-0.053C0.208,-0.051 0.2,-0.055 0.192,-0.063C0.185,-0.07 0.181,-0.08 0.182,-0.093C0.184,-0.138 0.184,-0.205 0.182,-0.295C0.18,-0.385 0.179,-0.447 0.179,-0.48L0.179,-0.596C0.173,-0.595 0.161,-0.592 0.143,-0.588C0.125,-0.584 0.11,-0.581 0.099,-0.579C0.071,-0.576 0.049,-0.581 0.032,-0.596L0.023,-0.603L0.025,-0.623C0.025,-0.64 0.028,-0.651 0.033,-0.657C0.038,-0.663 0.048,-0.667 0.063,-0.668C0.076,-0.669 0.104,-0.674 0.15,-0.685C0.153,-0.685 0.161,-0.687 0.171,-0.689C0.182,-0.692 0.188,-0.693 0.192,-0.694C0.21,-0.699 0.24,-0.704 0.283,-0.71C0.326,-0.717 0.356,-0.72 0.375,-0.722Z" style="fill-rule:nonzero;"/>
            </g>
            <g transform="matrix(200,0,0,200,1528.86,2065.22)">
                <path d="M0.05,-0.658C0.051,-0.658 0.055,-0.658 0.061,-0.659C0.067,-0.66 0.072,-0.66 0.077,-0.66C0.09,-0.66 0.098,-0.659 0.102,-0.657C0.107,-0.655 0.109,-0.651 0.111,-0.644C0.113,-0.632 0.114,-0.593 0.114,-0.528C0.114,-0.49 0.115,-0.448 0.117,-0.401C0.119,-0.355 0.12,-0.315 0.12,-0.28C0.12,-0.238 0.122,-0.193 0.124,-0.147C0.127,-0.1 0.13,-0.074 0.133,-0.068C0.135,-0.064 0.136,-0.057 0.136,-0.048C0.136,-0.04 0.136,-0.032 0.134,-0.027C0.131,-0.018 0.127,-0.012 0.121,-0.009C0.115,-0.007 0.103,-0.006 0.085,-0.006C0.077,-0.006 0.071,-0.007 0.067,-0.009C0.064,-0.011 0.059,-0.016 0.054,-0.025C0.05,-0.032 0.046,-0.044 0.043,-0.061C0.038,-0.091 0.034,-0.156 0.032,-0.256C0.03,-0.337 0.028,-0.378 0.027,-0.38C0.026,-0.38 0.025,-0.413 0.024,-0.477C0.023,-0.54 0.023,-0.576 0.023,-0.583C0.026,-0.63 0.035,-0.655 0.05,-0.658Z" style="fill-rule:nonzero;"/>
            </g>
            <g transform="matrix(200,0,0,200,1565.31,2065.22)">
                <path d="M0.22,-0.674C0.238,-0.682 0.262,-0.68 0.29,-0.668C0.293,-0.667 0.302,-0.665 0.317,-0.662C0.331,-0.659 0.34,-0.657 0.343,-0.655C0.344,-0.655 0.353,-0.651 0.369,-0.643C0.385,-0.635 0.394,-0.629 0.398,-0.626C0.4,-0.625 0.402,-0.624 0.404,-0.623C0.406,-0.621 0.407,-0.62 0.409,-0.619L0.41,-0.619C0.411,-0.619 0.417,-0.614 0.428,-0.605C0.438,-0.596 0.445,-0.59 0.447,-0.586L0.456,-0.578C0.477,-0.559 0.495,-0.527 0.512,-0.484C0.519,-0.465 0.523,-0.438 0.525,-0.402C0.525,-0.358 0.522,-0.327 0.518,-0.307C0.51,-0.273 0.496,-0.238 0.478,-0.202C0.452,-0.152 0.437,-0.125 0.431,-0.119C0.43,-0.118 0.425,-0.113 0.416,-0.102C0.375,-0.05 0.332,-0.016 0.287,-0C0.269,0.006 0.255,0.01 0.244,0.012C0.237,0.013 0.226,0.014 0.21,0.013C0.195,0.012 0.185,0.011 0.182,0.009L0.154,-0.005C0.119,-0.023 0.092,-0.051 0.074,-0.089C0.056,-0.124 0.044,-0.155 0.037,-0.183C0.033,-0.198 0.03,-0.218 0.028,-0.244C0.027,-0.257 0.026,-0.269 0.023,-0.282C0.023,-0.289 0.023,-0.308 0.025,-0.337C0.026,-0.366 0.028,-0.385 0.029,-0.394C0.03,-0.398 0.032,-0.405 0.034,-0.417C0.037,-0.429 0.039,-0.437 0.04,-0.442C0.043,-0.464 0.048,-0.479 0.054,-0.485L0.072,-0.52C0.101,-0.577 0.132,-0.618 0.165,-0.645C0.174,-0.653 0.181,-0.658 0.185,-0.66C0.188,-0.662 0.194,-0.665 0.2,-0.667C0.207,-0.669 0.213,-0.672 0.22,-0.674ZM0.237,-0.588C0.236,-0.589 0.234,-0.59 0.232,-0.59C0.23,-0.59 0.223,-0.583 0.21,-0.569C0.197,-0.555 0.187,-0.543 0.181,-0.533C0.142,-0.474 0.12,-0.412 0.113,-0.349C0.11,-0.319 0.112,-0.284 0.119,-0.245C0.12,-0.243 0.121,-0.232 0.124,-0.211C0.127,-0.187 0.137,-0.158 0.154,-0.125C0.158,-0.118 0.164,-0.11 0.172,-0.101C0.18,-0.092 0.188,-0.086 0.194,-0.083C0.21,-0.075 0.229,-0.075 0.249,-0.082L0.266,-0.088C0.268,-0.088 0.269,-0.089 0.27,-0.089C0.278,-0.091 0.293,-0.104 0.316,-0.127C0.339,-0.15 0.356,-0.169 0.366,-0.183C0.384,-0.209 0.399,-0.238 0.412,-0.27C0.427,-0.304 0.435,-0.346 0.435,-0.396C0.435,-0.416 0.432,-0.432 0.428,-0.444C0.423,-0.458 0.421,-0.466 0.421,-0.467C0.421,-0.47 0.416,-0.479 0.407,-0.492C0.398,-0.505 0.39,-0.516 0.382,-0.525C0.361,-0.547 0.339,-0.562 0.315,-0.569C0.298,-0.574 0.285,-0.575 0.279,-0.57C0.273,-0.566 0.265,-0.567 0.256,-0.572C0.247,-0.577 0.241,-0.582 0.237,-0.588Z" style="fill-rule:nonzero;"/>
            </g>
            <g transform="matrix(200,0,0,200,1679.56,2065.22)">
                <path d="M0.404,-0.725C0.418,-0.739 0.435,-0.74 0.456,-0.729C0.473,-0.72 0.482,-0.711 0.484,-0.704C0.484,-0.694 0.484,-0.686 0.482,-0.681C0.473,-0.66 0.468,-0.637 0.466,-0.612C0.461,-0.544 0.46,-0.486 0.463,-0.436C0.47,-0.34 0.471,-0.254 0.465,-0.179C0.463,-0.148 0.458,-0.126 0.45,-0.114C0.444,-0.106 0.439,-0.101 0.437,-0.1C0.42,-0.096 0.41,-0.093 0.409,-0.093C0.397,-0.093 0.387,-0.097 0.379,-0.104C0.378,-0.105 0.376,-0.106 0.373,-0.108C0.37,-0.11 0.367,-0.112 0.365,-0.113C0.363,-0.115 0.362,-0.117 0.362,-0.119C0.361,-0.124 0.351,-0.139 0.333,-0.165C0.315,-0.19 0.303,-0.207 0.296,-0.215C0.291,-0.22 0.274,-0.241 0.245,-0.278C0.204,-0.33 0.167,-0.384 0.134,-0.438L0.116,-0.468L0.118,-0.432C0.118,-0.424 0.119,-0.404 0.121,-0.372C0.123,-0.34 0.124,-0.313 0.125,-0.292C0.125,-0.282 0.126,-0.264 0.127,-0.238C0.129,-0.213 0.13,-0.194 0.13,-0.183C0.13,-0.18 0.13,-0.168 0.132,-0.15C0.138,-0.096 0.137,-0.063 0.13,-0.053C0.127,-0.047 0.113,-0.043 0.089,-0.04C0.076,-0.038 0.067,-0.038 0.063,-0.04C0.054,-0.044 0.049,-0.052 0.049,-0.062C0.049,-0.068 0.048,-0.072 0.047,-0.075C0.038,-0.093 0.034,-0.14 0.034,-0.215C0.034,-0.233 0.033,-0.26 0.03,-0.295C0.027,-0.33 0.025,-0.354 0.025,-0.364C0.023,-0.415 0.023,-0.486 0.023,-0.578C0.023,-0.627 0.027,-0.654 0.034,-0.66C0.05,-0.676 0.064,-0.684 0.076,-0.682L0.09,-0.682C0.093,-0.682 0.098,-0.679 0.105,-0.673L0.117,-0.665C0.118,-0.665 0.12,-0.663 0.121,-0.66C0.123,-0.657 0.125,-0.653 0.126,-0.65C0.128,-0.646 0.129,-0.643 0.13,-0.643C0.131,-0.639 0.132,-0.637 0.132,-0.637C0.131,-0.635 0.141,-0.616 0.161,-0.578C0.196,-0.515 0.222,-0.471 0.239,-0.445C0.277,-0.388 0.311,-0.342 0.341,-0.307C0.352,-0.295 0.36,-0.285 0.366,-0.278L0.373,-0.27L0.371,-0.324C0.371,-0.329 0.37,-0.37 0.368,-0.447C0.364,-0.54 0.366,-0.608 0.374,-0.651C0.38,-0.688 0.39,-0.713 0.404,-0.725Z" style="fill-rule:nonzero;"/>
            </g>
            <g transform="matrix(200,0,0,200,526.99,2283.21)">
                <path d="M0.22,-0.674C0.238,-0.682 0.262,-0.68 0.29,-0.668C0.293,-0.667 0.302,-0.665 0.317,-0.662C0.331,-0.659 0.34,-0.657 0.343,-0.655C0.344,-0.655 0.353,-0.651 0.369,-0.643C0.385,-0.635 0.394,-0.629 0.398,-0.626C0.4,-0.625 0.402,-0.624 0.404,-0.623C0.406,-0.621 0.407,-0.62 0.409,-0.619L0.41,-0.619C0.411,-0.619 0.417,-0.614 0.428,-0.605C0.438,-0.596 0.445,-0.59 0.447,-0.586L0.456,-0.578C0.477,-0.559 0.495,-0.527 0.512,-0.484C0.519,-0.465 0.523,-0.438 0.525,-0.402C0.525,-0.358 0.522,-0.327 0.518,-0.307C0.51,-0.273 0.496,-0.238 0.478,-0.202C0.452,-0.152 0.437,-0.125 0.431,-0.119C0.43,-0.118 0.425,-0.113 0.416,-0.102C0.375,-0.05 0.332,-0.016 0.287,-0C0.269,0.006 0.255,0.01 0.244,0.012C0.237,0.013 0.226,0.014 0.21,0.013C0.195,0.012 0.185,0.011 0.182,0.009L0.154,-0.005C0.119,-0.023 0.092,-0.051 0.074,-0.089C0.056,-0.124 0.044,-0.155 0.037,-0.183C0.033,-0.198 0.03,-0.218 0.028,-0.244C0.027,-0.257 0.026,-0.269 0.023,-0.282C0.023,-0.289 0.023,-0.308 0.025,-0.337C0.026,-0.366 0.028,-0.385 0.029,-0.394C0.03,-0.398 0.032,-0.405 0.034,-0.417C0.037,-0.429 0.039,-0.437 0.04,-0.442C0.043,-0.464 0.048,-0.479 0.054,-0.485L0.072,-0.52C0.101,-0.577 0.132,-0.618 0.165,-0.645C0.174,-0.653 0.181,-0.658 0.185,-0.66C0.188,-0.662 0.194,-0.665 0.2,-0.667C0.207,-0.669 0.213,-0.672 0.22,-0.674ZM0.237,-0.588C0.236,-0.589 0.234,-0.59 0.232,-0.59C0.23,-0.59 0.223,-0.583 0.21,-0.569C0.197,-0.555 0.187,-0.543 0.181,-0.533C0.142,-0.474 0.12,-0.412 0.113,-0.349C0.11,-0.319 0.112,-0.284 0.119,-0.245C0.12,-0.243 0.121,-0.232 0.124,-0.211C0.127,-0.187 0.137,-0.158 0.154,-0.125C0.158,-0.118 0.164,-0.11 0.172,-0.101C0.18,-0.092 0.188,-0.086 0.194,-0.083C0.21,-0.075 0.229,-0.075 0.249,-0.082L0.266,-0.088C0.268,-0.088 0.269,-0.089 0.27,-0.089C0.278,-0.091 0.293,-0.104 0.316,-0.127C0.339,-0.15 0.356,-0.169 0.366,-0.183C0.384,-0.209 0.399,-0.238 0.412,-0.27C0.427,-0.304 0.435,-0.346 0.435,-0.396C0.435,-0.416 0.432,-0.432 0.428,-0.444C0.423,-0.458 0.421,-0.466 0.421,-0.467C0.421,-0.47 0.416,-0.479 0.407,-0.492C0.398,-0.505 0.39,-0.516 0.382,-0.525C0.361,-0.547 0.339,-0.562 0.315,-0.569C0.298,-0.574 0.285,-0.575 0.279,-0.57C0.273,-0.566 0.265,-0.567 0.256,-0.572C0.247,-0.577 0.241,-0.582 0.237,-0.588Z" style="fill-rule:nonzero;"/>
            </g>
            <g transform="matrix(200,0,0,200,641.242,2283.21)">
                <path d="M0.37,-0.662C0.377,-0.669 0.381,-0.672 0.384,-0.672C0.386,-0.673 0.395,-0.673 0.409,-0.673C0.426,-0.673 0.435,-0.671 0.435,-0.666C0.435,-0.664 0.436,-0.663 0.438,-0.661C0.44,-0.66 0.443,-0.656 0.447,-0.65C0.45,-0.644 0.452,-0.64 0.452,-0.637C0.452,-0.631 0.448,-0.614 0.44,-0.584C0.436,-0.566 0.43,-0.542 0.422,-0.511C0.419,-0.502 0.417,-0.493 0.414,-0.485C0.411,-0.476 0.409,-0.467 0.407,-0.456C0.403,-0.441 0.395,-0.407 0.382,-0.355C0.369,-0.302 0.361,-0.265 0.359,-0.243C0.358,-0.231 0.354,-0.209 0.347,-0.175C0.34,-0.142 0.335,-0.122 0.333,-0.117L0.332,-0.109C0.333,-0.108 0.33,-0.1 0.325,-0.086C0.32,-0.071 0.316,-0.061 0.312,-0.054C0.308,-0.046 0.302,-0.037 0.293,-0.027C0.285,-0.018 0.279,-0.013 0.276,-0.013C0.274,-0.013 0.273,-0.012 0.273,-0.012C0.273,-0.009 0.271,-0.008 0.266,-0.006C0.261,-0.005 0.254,-0.005 0.246,-0.006C0.239,-0.007 0.231,-0.008 0.224,-0.011C0.209,-0.016 0.199,-0.023 0.194,-0.03C0.191,-0.037 0.188,-0.04 0.185,-0.042C0.181,-0.045 0.174,-0.054 0.166,-0.069C0.157,-0.084 0.151,-0.097 0.147,-0.109C0.145,-0.114 0.143,-0.119 0.141,-0.123C0.139,-0.127 0.137,-0.131 0.136,-0.136C0.127,-0.16 0.12,-0.183 0.113,-0.206C0.111,-0.213 0.11,-0.219 0.11,-0.224C0.11,-0.24 0.106,-0.256 0.097,-0.273C0.095,-0.276 0.092,-0.288 0.086,-0.31C0.08,-0.332 0.077,-0.345 0.077,-0.348C0.077,-0.351 0.075,-0.36 0.07,-0.376C0.064,-0.391 0.062,-0.399 0.061,-0.4C0.06,-0.4 0.058,-0.407 0.054,-0.42C0.05,-0.433 0.048,-0.44 0.048,-0.443C0.048,-0.444 0.046,-0.448 0.043,-0.454C0.041,-0.458 0.038,-0.467 0.035,-0.479C0.032,-0.491 0.03,-0.499 0.028,-0.502C0.025,-0.509 0.023,-0.514 0.023,-0.52C0.023,-0.528 0.025,-0.533 0.027,-0.537C0.03,-0.541 0.036,-0.546 0.046,-0.551C0.056,-0.558 0.062,-0.561 0.065,-0.562C0.069,-0.563 0.074,-0.562 0.083,-0.561L0.104,-0.529C0.118,-0.508 0.125,-0.497 0.125,-0.495C0.125,-0.494 0.127,-0.489 0.131,-0.481C0.135,-0.473 0.137,-0.467 0.137,-0.465C0.137,-0.459 0.143,-0.44 0.152,-0.409C0.161,-0.378 0.166,-0.36 0.167,-0.356C0.169,-0.349 0.172,-0.337 0.178,-0.321C0.183,-0.304 0.187,-0.291 0.188,-0.282C0.194,-0.249 0.206,-0.208 0.224,-0.159L0.238,-0.121L0.254,-0.174C0.254,-0.175 0.254,-0.177 0.255,-0.18C0.255,-0.183 0.256,-0.187 0.256,-0.192C0.257,-0.197 0.257,-0.202 0.258,-0.206C0.263,-0.239 0.266,-0.257 0.269,-0.259C0.27,-0.261 0.271,-0.264 0.271,-0.269C0.271,-0.279 0.273,-0.291 0.278,-0.307C0.283,-0.322 0.285,-0.333 0.286,-0.339C0.288,-0.348 0.293,-0.371 0.302,-0.407C0.311,-0.443 0.316,-0.465 0.318,-0.472C0.319,-0.481 0.322,-0.49 0.325,-0.499C0.326,-0.502 0.335,-0.537 0.353,-0.604C0.363,-0.641 0.369,-0.661 0.37,-0.662Z" style="fill-rule:nonzero;"/>
            </g>
            <g transform="matrix(200,0,0,200,740.775,2283.21)">
                <path d="M0.346,-0.668L0.401,-0.668C0.442,-0.667 0.468,-0.664 0.48,-0.658C0.493,-0.651 0.501,-0.645 0.502,-0.639C0.503,-0.636 0.504,-0.632 0.504,-0.629C0.504,-0.624 0.504,-0.619 0.506,-0.614C0.511,-0.603 0.507,-0.594 0.495,-0.588C0.49,-0.585 0.486,-0.582 0.485,-0.578C0.478,-0.566 0.463,-0.564 0.439,-0.572C0.436,-0.573 0.431,-0.574 0.424,-0.574C0.417,-0.574 0.413,-0.574 0.411,-0.576C0.403,-0.582 0.372,-0.581 0.319,-0.572C0.271,-0.565 0.225,-0.554 0.182,-0.54C0.178,-0.538 0.174,-0.537 0.17,-0.536C0.166,-0.534 0.162,-0.533 0.158,-0.532C0.155,-0.531 0.153,-0.53 0.152,-0.53C0.147,-0.53 0.145,-0.526 0.145,-0.519C0.145,-0.518 0.145,-0.511 0.145,-0.498C0.146,-0.485 0.146,-0.474 0.146,-0.465L0.146,-0.422C0.202,-0.432 0.25,-0.435 0.289,-0.43C0.292,-0.43 0.302,-0.427 0.32,-0.422C0.336,-0.416 0.344,-0.412 0.346,-0.409C0.347,-0.408 0.349,-0.406 0.352,-0.404C0.355,-0.401 0.357,-0.398 0.359,-0.396C0.361,-0.394 0.362,-0.391 0.361,-0.389L0.363,-0.387C0.366,-0.386 0.366,-0.38 0.366,-0.37C0.365,-0.359 0.363,-0.352 0.36,-0.349C0.357,-0.346 0.351,-0.342 0.341,-0.337C0.33,-0.332 0.323,-0.329 0.32,-0.329C0.319,-0.329 0.314,-0.331 0.306,-0.334C0.291,-0.341 0.256,-0.344 0.201,-0.343L0.143,-0.343L0.141,-0.306C0.141,-0.285 0.139,-0.26 0.136,-0.232C0.133,-0.203 0.132,-0.177 0.131,-0.152C0.129,-0.107 0.129,-0.081 0.131,-0.076C0.132,-0.074 0.132,-0.073 0.133,-0.071C0.133,-0.07 0.134,-0.068 0.134,-0.067L0.136,-0.064C0.138,-0.062 0.185,-0.072 0.276,-0.095C0.285,-0.097 0.299,-0.1 0.319,-0.103C0.338,-0.107 0.353,-0.11 0.362,-0.113C0.368,-0.116 0.379,-0.118 0.395,-0.12C0.411,-0.122 0.425,-0.123 0.437,-0.123C0.45,-0.123 0.456,-0.122 0.458,-0.12C0.458,-0.12 0.46,-0.119 0.465,-0.119C0.475,-0.119 0.484,-0.115 0.493,-0.106C0.498,-0.102 0.5,-0.093 0.5,-0.081C0.5,-0.064 0.496,-0.053 0.489,-0.048C0.482,-0.042 0.47,-0.039 0.452,-0.037C0.415,-0.035 0.366,-0.026 0.303,-0.009C0.264,0.001 0.24,0.007 0.23,0.011C0.224,0.014 0.207,0.018 0.18,0.023C0.153,0.028 0.134,0.03 0.125,0.03C0.115,0.03 0.101,0.029 0.083,0.026C0.065,0.024 0.054,0.021 0.05,0.019C0.047,0.017 0.045,0.016 0.043,0.016C0.042,0.016 0.039,0.013 0.034,0.008C0.029,0.002 0.026,-0.003 0.025,-0.007C0.023,-0.011 0.023,-0.019 0.025,-0.03C0.026,-0.041 0.029,-0.049 0.034,-0.054C0.039,-0.058 0.04,-0.066 0.04,-0.076C0.037,-0.101 0.04,-0.171 0.049,-0.287C0.052,-0.328 0.054,-0.378 0.054,-0.438L0.054,-0.529L0.048,-0.543C0.044,-0.553 0.042,-0.559 0.042,-0.563C0.042,-0.572 0.048,-0.585 0.06,-0.599C0.067,-0.606 0.077,-0.61 0.09,-0.61C0.095,-0.61 0.106,-0.612 0.121,-0.617C0.147,-0.625 0.167,-0.63 0.18,-0.633C0.186,-0.635 0.194,-0.637 0.204,-0.641C0.214,-0.644 0.222,-0.647 0.23,-0.649C0.237,-0.651 0.246,-0.652 0.256,-0.653C0.27,-0.654 0.289,-0.657 0.313,-0.661C0.32,-0.662 0.326,-0.663 0.33,-0.665C0.334,-0.666 0.34,-0.667 0.346,-0.668Z" style="fill-rule:nonzero;"/>
            </g>
            <g transform="matrix(200,0,0,200,851.523,2283.21)">
                <path d="M0.296,-0.706C0.297,-0.707 0.307,-0.707 0.326,-0.704C0.345,-0.702 0.36,-0.699 0.371,-0.696C0.383,-0.692 0.391,-0.69 0.394,-0.69C0.394,-0.69 0.399,-0.689 0.406,-0.686C0.413,-0.683 0.418,-0.681 0.419,-0.681C0.421,-0.682 0.423,-0.681 0.427,-0.678C0.43,-0.674 0.433,-0.673 0.433,-0.673C0.434,-0.673 0.436,-0.671 0.439,-0.668C0.442,-0.664 0.445,-0.662 0.446,-0.661C0.449,-0.66 0.452,-0.656 0.456,-0.648C0.46,-0.64 0.463,-0.635 0.465,-0.634C0.467,-0.633 0.467,-0.63 0.467,-0.627C0.467,-0.626 0.469,-0.622 0.472,-0.615C0.475,-0.608 0.476,-0.604 0.475,-0.602C0.471,-0.572 0.468,-0.556 0.466,-0.553C0.463,-0.547 0.46,-0.541 0.459,-0.533C0.457,-0.526 0.454,-0.519 0.45,-0.513C0.444,-0.503 0.436,-0.492 0.428,-0.48C0.424,-0.475 0.42,-0.471 0.418,-0.467C0.415,-0.462 0.412,-0.459 0.41,-0.456C0.408,-0.452 0.403,-0.447 0.395,-0.44C0.363,-0.411 0.333,-0.388 0.304,-0.373C0.277,-0.358 0.25,-0.344 0.223,-0.332L0.255,-0.304C0.275,-0.287 0.288,-0.274 0.293,-0.266C0.296,-0.262 0.299,-0.259 0.301,-0.259C0.303,-0.26 0.312,-0.252 0.329,-0.234C0.347,-0.217 0.357,-0.205 0.361,-0.2C0.363,-0.198 0.364,-0.196 0.366,-0.193L0.368,-0.189C0.373,-0.185 0.383,-0.173 0.395,-0.153C0.408,-0.134 0.415,-0.122 0.415,-0.119C0.415,-0.117 0.415,-0.116 0.417,-0.118C0.418,-0.119 0.422,-0.112 0.429,-0.098C0.437,-0.083 0.444,-0.068 0.45,-0.053C0.457,-0.037 0.46,-0.028 0.46,-0.027C0.459,-0.018 0.457,-0.011 0.454,-0.008C0.451,-0.005 0.443,0 0.43,0.007C0.419,0.013 0.412,0.016 0.408,0.014C0.393,0.01 0.384,0.006 0.381,0.002C0.379,0 0.372,-0.011 0.362,-0.032C0.339,-0.076 0.32,-0.107 0.306,-0.124C0.296,-0.136 0.29,-0.143 0.289,-0.146C0.28,-0.158 0.251,-0.186 0.201,-0.23C0.169,-0.258 0.144,-0.283 0.126,-0.305L0.124,-0.27C0.124,-0.264 0.124,-0.256 0.123,-0.246C0.123,-0.237 0.122,-0.226 0.121,-0.213C0.121,-0.2 0.12,-0.191 0.12,-0.185C0.117,-0.164 0.117,-0.146 0.119,-0.129C0.121,-0.112 0.123,-0.097 0.124,-0.082C0.125,-0.06 0.121,-0.04 0.112,-0.022C0.109,-0.017 0.106,-0.012 0.103,-0.009C0.1,-0.006 0.097,-0.005 0.096,-0.006C0.095,-0.007 0.095,-0.006 0.095,-0.005C0.095,-0.004 0.088,-0.004 0.075,-0.004C0.06,-0.004 0.05,-0.005 0.044,-0.009C0.038,-0.013 0.033,-0.021 0.029,-0.034L0.023,-0.051L0.025,-0.106C0.027,-0.162 0.028,-0.194 0.029,-0.203C0.04,-0.329 0.042,-0.428 0.034,-0.498C0.033,-0.506 0.033,-0.516 0.032,-0.526C0.032,-0.536 0.031,-0.544 0.029,-0.551C0.026,-0.562 0.026,-0.576 0.03,-0.593C0.034,-0.61 0.039,-0.62 0.043,-0.625C0.045,-0.627 0.047,-0.63 0.05,-0.634C0.053,-0.638 0.066,-0.647 0.09,-0.661C0.129,-0.684 0.185,-0.697 0.257,-0.702C0.282,-0.704 0.295,-0.705 0.296,-0.706ZM0.11,-0.572C0.11,-0.569 0.111,-0.566 0.113,-0.563C0.116,-0.559 0.117,-0.555 0.117,-0.55C0.117,-0.545 0.118,-0.538 0.119,-0.53C0.125,-0.505 0.127,-0.468 0.127,-0.422L0.127,-0.401L0.176,-0.411C0.195,-0.415 0.22,-0.426 0.25,-0.445C0.28,-0.463 0.305,-0.481 0.325,-0.499C0.364,-0.535 0.383,-0.566 0.383,-0.591L0.383,-0.602L0.37,-0.607C0.351,-0.616 0.335,-0.621 0.322,-0.621C0.316,-0.622 0.309,-0.623 0.301,-0.623C0.297,-0.623 0.282,-0.623 0.257,-0.622C0.232,-0.621 0.216,-0.62 0.209,-0.618C0.143,-0.607 0.11,-0.592 0.11,-0.572Z" style="fill-rule:nonzero;"/>
            </g>
            <g transform="matrix(200,0,0,200,1015.54,2283.21)">
                <path d="M0.296,-0.706C0.297,-0.707 0.307,-0.707 0.326,-0.704C0.345,-0.702 0.36,-0.699 0.371,-0.696C0.383,-0.692 0.391,-0.69 0.394,-0.69C0.394,-0.69 0.399,-0.689 0.406,-0.686C0.413,-0.683 0.418,-0.681 0.419,-0.681C0.421,-0.682 0.423,-0.681 0.427,-0.678C0.43,-0.674 0.433,-0.673 0.433,-0.673C0.434,-0.673 0.436,-0.671 0.439,-0.668C0.442,-0.664 0.445,-0.662 0.446,-0.661C0.449,-0.66 0.452,-0.656 0.456,-0.648C0.46,-0.64 0.463,-0.635 0.465,-0.634C0.467,-0.633 0.467,-0.63 0.467,-0.627C0.467,-0.626 0.469,-0.622 0.472,-0.615C0.475,-0.608 0.476,-0.604 0.475,-0.602C0.471,-0.572 0.468,-0.556 0.466,-0.553C0.463,-0.547 0.46,-0.541 0.459,-0.533C0.457,-0.526 0.454,-0.519 0.45,-0.513C0.444,-0.503 0.436,-0.492 0.428,-0.48C0.424,-0.475 0.42,-0.471 0.418,-0.467C0.415,-0.462 0.412,-0.459 0.41,-0.456C0.408,-0.452 0.403,-0.447 0.395,-0.44C0.363,-0.411 0.333,-0.388 0.304,-0.373C0.277,-0.358 0.25,-0.344 0.223,-0.332L0.255,-0.304C0.275,-0.287 0.288,-0.274 0.293,-0.266C0.296,-0.262 0.299,-0.259 0.301,-0.259C0.303,-0.26 0.312,-0.252 0.329,-0.234C0.347,-0.217 0.357,-0.205 0.361,-0.2C0.363,-0.198 0.364,-0.196 0.366,-0.193L0.368,-0.189C0.373,-0.185 0.383,-0.173 0.395,-0.153C0.408,-0.134 0.415,-0.122 0.415,-0.119C0.415,-0.117 0.415,-0.116 0.417,-0.118C0.418,-0.119 0.422,-0.112 0.429,-0.098C0.437,-0.083 0.444,-0.068 0.45,-0.053C0.457,-0.037 0.46,-0.028 0.46,-0.027C0.459,-0.018 0.457,-0.011 0.454,-0.008C0.451,-0.005 0.443,0 0.43,0.007C0.419,0.013 0.412,0.016 0.408,0.014C0.393,0.01 0.384,0.006 0.381,0.002C0.379,0 0.372,-0.011 0.362,-0.032C0.339,-0.076 0.32,-0.107 0.306,-0.124C0.296,-0.136 0.29,-0.143 0.289,-0.146C0.28,-0.158 0.251,-0.186 0.201,-0.23C0.169,-0.258 0.144,-0.283 0.126,-0.305L0.124,-0.27C0.124,-0.264 0.124,-0.256 0.123,-0.246C0.123,-0.237 0.122,-0.226 0.121,-0.213C0.121,-0.2 0.12,-0.191 0.12,-0.185C0.117,-0.164 0.117,-0.146 0.119,-0.129C0.121,-0.112 0.123,-0.097 0.124,-0.082C0.125,-0.06 0.121,-0.04 0.112,-0.022C0.109,-0.017 0.106,-0.012 0.103,-0.009C0.1,-0.006 0.097,-0.005 0.096,-0.006C0.095,-0.007 0.095,-0.006 0.095,-0.005C0.095,-0.004 0.088,-0.004 0.075,-0.004C0.06,-0.004 0.05,-0.005 0.044,-0.009C0.038,-0.013 0.033,-0.021 0.029,-0.034L0.023,-0.051L0.025,-0.106C0.027,-0.162 0.028,-0.194 0.029,-0.203C0.04,-0.329 0.042,-0.428 0.034,-0.498C0.033,-0.506 0.033,-0.516 0.032,-0.526C0.032,-0.536 0.031,-0.544 0.029,-0.551C0.026,-0.562 0.026,-0.576 0.03,-0.593C0.034,-0.61 0.039,-0.62 0.043,-0.625C0.045,-0.627 0.047,-0.63 0.05,-0.634C0.053,-0.638 0.066,-0.647 0.09,-0.661C0.129,-0.684 0.185,-0.697 0.257,-0.702C0.282,-0.704 0.295,-0.705 0.296,-0.706ZM0.11,-0.572C0.11,-0.569 0.111,-0.566 0.113,-0.563C0.116,-0.559 0.117,-0.555 0.117,-0.55C0.117,-0.545 0.118,-0.538 0.119,-0.53C0.125,-0.505 0.127,-0.468 0.127,-0.422L0.127,-0.401L0.176,-0.411C0.195,-0.415 0.22,-0.426 0.25,-0.445C0.28,-0.463 0.305,-0.481 0.325,-0.499C0.364,-0.535 0.383,-0.566 0.383,-0.591L0.383,-0.602L0.37,-0.607C0.351,-0.616 0.335,-0.621 0.322,-0.621C0.316,-0.622 0.309,-0.623 0.301,-0.623C0.297,-0.623 0.282,-0.623 0.257,-0.622C0.232,-0.621 0.216,-0.62 0.209,-0.618C0.143,-0.607 0.11,-0.592 0.11,-0.572Z" style="fill-rule:nonzero;"/>
            </g>
            <g transform="matrix(200,0,0,200,1119.75,2283.21)">
                <path d="M0.22,-0.674C0.238,-0.682 0.262,-0.68 0.29,-0.668C0.293,-0.667 0.302,-0.665 0.317,-0.662C0.331,-0.659 0.34,-0.657 0.343,-0.655C0.344,-0.655 0.353,-0.651 0.369,-0.643C0.385,-0.635 0.394,-0.629 0.398,-0.626C0.4,-0.625 0.402,-0.624 0.404,-0.623C0.406,-0.621 0.407,-0.62 0.409,-0.619L0.41,-0.619C0.411,-0.619 0.417,-0.614 0.428,-0.605C0.438,-0.596 0.445,-0.59 0.447,-0.586L0.456,-0.578C0.477,-0.559 0.495,-0.527 0.512,-0.484C0.519,-0.465 0.523,-0.438 0.525,-0.402C0.525,-0.358 0.522,-0.327 0.518,-0.307C0.51,-0.273 0.496,-0.238 0.478,-0.202C0.452,-0.152 0.437,-0.125 0.431,-0.119C0.43,-0.118 0.425,-0.113 0.416,-0.102C0.375,-0.05 0.332,-0.016 0.287,-0C0.269,0.006 0.255,0.01 0.244,0.012C0.237,0.013 0.226,0.014 0.21,0.013C0.195,0.012 0.185,0.011 0.182,0.009L0.154,-0.005C0.119,-0.023 0.092,-0.051 0.074,-0.089C0.056,-0.124 0.044,-0.155 0.037,-0.183C0.033,-0.198 0.03,-0.218 0.028,-0.244C0.027,-0.257 0.026,-0.269 0.023,-0.282C0.023,-0.289 0.023,-0.308 0.025,-0.337C0.026,-0.366 0.028,-0.385 0.029,-0.394C0.03,-0.398 0.032,-0.405 0.034,-0.417C0.037,-0.429 0.039,-0.437 0.04,-0.442C0.043,-0.464 0.048,-0.479 0.054,-0.485L0.072,-0.52C0.101,-0.577 0.132,-0.618 0.165,-0.645C0.174,-0.653 0.181,-0.658 0.185,-0.66C0.188,-0.662 0.194,-0.665 0.2,-0.667C0.207,-0.669 0.213,-0.672 0.22,-0.674ZM0.237,-0.588C0.236,-0.589 0.234,-0.59 0.232,-0.59C0.23,-0.59 0.223,-0.583 0.21,-0.569C0.197,-0.555 0.187,-0.543 0.181,-0.533C0.142,-0.474 0.12,-0.412 0.113,-0.349C0.11,-0.319 0.112,-0.284 0.119,-0.245C0.12,-0.243 0.121,-0.232 0.124,-0.211C0.127,-0.187 0.137,-0.158 0.154,-0.125C0.158,-0.118 0.164,-0.11 0.172,-0.101C0.18,-0.092 0.188,-0.086 0.194,-0.083C0.21,-0.075 0.229,-0.075 0.249,-0.082L0.266,-0.088C0.268,-0.088 0.269,-0.089 0.27,-0.089C0.278,-0.091 0.293,-0.104 0.316,-0.127C0.339,-0.15 0.356,-0.169 0.366,-0.183C0.384,-0.209 0.399,-0.238 0.412,-0.27C0.427,-0.304 0.435,-0.346 0.435,-0.396C0.435,-0.416 0.432,-0.432 0.428,-0.444C0.423,-0.458 0.421,-0.466 0.421,-0.467C0.421,-0.47 0.416,-0.479 0.407,-0.492C0.398,-0.505 0.39,-0.516 0.382,-0.525C0.361,-0.547 0.339,-0.562 0.315,-0.569C0.298,-0.574 0.285,-0.575 0.279,-0.57C0.273,-0.566 0.265,-0.567 0.256,-0.572C0.247,-0.577 0.241,-0.582 0.237,-0.588Z" style="fill-rule:nonzero;"/>
            </g>
            <g transform="matrix(200,0,0,200,1234,2283.21)">
                <path d="M0.375,-0.722C0.422,-0.725 0.451,-0.727 0.464,-0.727L0.501,-0.728C0.503,-0.725 0.505,-0.722 0.509,-0.718C0.513,-0.714 0.516,-0.711 0.519,-0.709L0.52,-0.685C0.521,-0.664 0.518,-0.651 0.512,-0.645C0.509,-0.642 0.501,-0.64 0.488,-0.64C0.477,-0.64 0.469,-0.639 0.463,-0.638C0.459,-0.637 0.442,-0.635 0.412,-0.632C0.369,-0.628 0.326,-0.623 0.283,-0.616C0.278,-0.615 0.276,-0.614 0.275,-0.613C0.275,-0.613 0.275,-0.61 0.275,-0.606C0.277,-0.59 0.277,-0.58 0.276,-0.576C0.274,-0.572 0.273,-0.538 0.273,-0.474C0.272,-0.409 0.273,-0.357 0.275,-0.315C0.277,-0.245 0.278,-0.195 0.278,-0.164C0.279,-0.105 0.278,-0.074 0.275,-0.071C0.272,-0.069 0.271,-0.066 0.271,-0.063C0.271,-0.058 0.266,-0.053 0.257,-0.05C0.255,-0.049 0.248,-0.05 0.236,-0.051L0.216,-0.053C0.208,-0.051 0.2,-0.055 0.192,-0.063C0.185,-0.07 0.181,-0.08 0.182,-0.093C0.184,-0.138 0.184,-0.205 0.182,-0.295C0.18,-0.385 0.179,-0.447 0.179,-0.48L0.179,-0.596C0.173,-0.595 0.161,-0.592 0.143,-0.588C0.125,-0.584 0.11,-0.581 0.099,-0.579C0.071,-0.576 0.049,-0.581 0.032,-0.596L0.023,-0.603L0.025,-0.623C0.025,-0.64 0.028,-0.651 0.033,-0.657C0.038,-0.663 0.048,-0.667 0.063,-0.668C0.076,-0.669 0.104,-0.674 0.15,-0.685C0.153,-0.685 0.161,-0.687 0.171,-0.689C0.182,-0.692 0.188,-0.693 0.192,-0.694C0.21,-0.699 0.24,-0.704 0.283,-0.71C0.326,-0.717 0.356,-0.72 0.375,-0.722Z" style="fill-rule:nonzero;"/>
            </g>
            <g transform="matrix(200,0,0,200,1347.32,2283.21)">
                <path d="M0.257,-0.699C0.27,-0.701 0.285,-0.701 0.302,-0.699C0.319,-0.696 0.331,-0.692 0.338,-0.687C0.342,-0.684 0.345,-0.682 0.347,-0.682C0.349,-0.682 0.357,-0.676 0.369,-0.665C0.382,-0.653 0.39,-0.644 0.395,-0.637C0.411,-0.61 0.42,-0.595 0.422,-0.592C0.423,-0.588 0.425,-0.583 0.428,-0.577C0.431,-0.571 0.433,-0.567 0.433,-0.565C0.439,-0.553 0.446,-0.526 0.454,-0.484C0.463,-0.443 0.469,-0.408 0.472,-0.382L0.477,-0.34C0.484,-0.273 0.486,-0.201 0.48,-0.125C0.478,-0.098 0.474,-0.082 0.47,-0.077L0.467,-0.074C0.467,-0.071 0.466,-0.07 0.465,-0.069C0.458,-0.057 0.448,-0.051 0.435,-0.051C0.429,-0.051 0.419,-0.056 0.405,-0.064C0.391,-0.072 0.384,-0.078 0.382,-0.084C0.38,-0.089 0.381,-0.103 0.384,-0.127C0.388,-0.167 0.389,-0.21 0.387,-0.257L0.386,-0.285C0.361,-0.288 0.325,-0.291 0.28,-0.293C0.234,-0.295 0.199,-0.294 0.174,-0.292L0.15,-0.29L0.145,-0.289L0.132,-0.237C0.13,-0.231 0.129,-0.218 0.127,-0.199C0.125,-0.18 0.124,-0.169 0.124,-0.166C0.118,-0.131 0.116,-0.109 0.116,-0.1C0.116,-0.085 0.114,-0.069 0.11,-0.054C0.108,-0.045 0.104,-0.039 0.098,-0.036C0.091,-0.033 0.079,-0.032 0.063,-0.032C0.047,-0.032 0.037,-0.033 0.033,-0.037C0.029,-0.041 0.026,-0.051 0.026,-0.067C0.022,-0.112 0.025,-0.164 0.034,-0.224C0.049,-0.316 0.059,-0.371 0.065,-0.389C0.068,-0.396 0.07,-0.403 0.071,-0.409C0.072,-0.42 0.079,-0.442 0.092,-0.475C0.124,-0.564 0.157,-0.626 0.192,-0.661C0.214,-0.684 0.236,-0.696 0.257,-0.699ZM0.304,-0.598C0.288,-0.609 0.274,-0.609 0.261,-0.597C0.234,-0.573 0.213,-0.538 0.199,-0.492C0.197,-0.486 0.192,-0.475 0.185,-0.457C0.181,-0.451 0.179,-0.446 0.178,-0.442C0.177,-0.438 0.176,-0.433 0.175,-0.427C0.173,-0.421 0.172,-0.415 0.171,-0.41C0.167,-0.4 0.165,-0.393 0.165,-0.39C0.165,-0.389 0.18,-0.388 0.211,-0.387C0.242,-0.386 0.273,-0.385 0.305,-0.384C0.337,-0.383 0.354,-0.382 0.355,-0.382L0.375,-0.381C0.376,-0.382 0.373,-0.398 0.368,-0.429C0.363,-0.461 0.359,-0.477 0.359,-0.478C0.354,-0.485 0.35,-0.5 0.348,-0.522C0.348,-0.526 0.347,-0.529 0.346,-0.532C0.344,-0.535 0.342,-0.538 0.341,-0.54C0.339,-0.543 0.337,-0.546 0.335,-0.55C0.325,-0.575 0.315,-0.591 0.304,-0.598Z" style="fill-rule:nonzero;"/>
            </g>
            <g transform="matrix(200,0,0,200,1452.92,2283.21)">
                <path d="M0.375,-0.722C0.422,-0.725 0.451,-0.727 0.464,-0.727L0.501,-0.728C0.503,-0.725 0.505,-0.722 0.509,-0.718C0.513,-0.714 0.516,-0.711 0.519,-0.709L0.52,-0.685C0.521,-0.664 0.518,-0.651 0.512,-0.645C0.509,-0.642 0.501,-0.64 0.488,-0.64C0.477,-0.64 0.469,-0.639 0.463,-0.638C0.459,-0.637 0.442,-0.635 0.412,-0.632C0.369,-0.628 0.326,-0.623 0.283,-0.616C0.278,-0.615 0.276,-0.614 0.275,-0.613C0.275,-0.613 0.275,-0.61 0.275,-0.606C0.277,-0.59 0.277,-0.58 0.276,-0.576C0.274,-0.572 0.273,-0.538 0.273,-0.474C0.272,-0.409 0.273,-0.357 0.275,-0.315C0.277,-0.245 0.278,-0.195 0.278,-0.164C0.279,-0.105 0.278,-0.074 0.275,-0.071C0.272,-0.069 0.271,-0.066 0.271,-0.063C0.271,-0.058 0.266,-0.053 0.257,-0.05C0.255,-0.049 0.248,-0.05 0.236,-0.051L0.216,-0.053C0.208,-0.051 0.2,-0.055 0.192,-0.063C0.185,-0.07 0.181,-0.08 0.182,-0.093C0.184,-0.138 0.184,-0.205 0.182,-0.295C0.18,-0.385 0.179,-0.447 0.179,-0.48L0.179,-0.596C0.173,-0.595 0.161,-0.592 0.143,-0.588C0.125,-0.584 0.11,-0.581 0.099,-0.579C0.071,-0.576 0.049,-0.581 0.032,-0.596L0.023,-0.603L0.025,-0.623C0.025,-0.64 0.028,-0.651 0.033,-0.657C0.038,-0.663 0.048,-0.667 0.063,-0.668C0.076,-0.669 0.104,-0.674 0.15,-0.685C0.153,-0.685 0.161,-0.687 0.171,-0.689C0.182,-0.692 0.188,-0.693 0.192,-0.694C0.21,-0.699 0.24,-0.704 0.283,-0.71C0.326,-0.717 0.356,-0.72 0.375,-0.722Z" style="fill-rule:nonzero;"/>
            </g>
            <g transform="matrix(200,0,0,200,1566.24,2283.21)">
                <path d="M0.05,-0.658C0.051,-0.658 0.055,-0.658 0.061,-0.659C0.067,-0.66 0.072,-0.66 0.077,-0.66C0.09,-0.66 0.098,-0.659 0.102,-0.657C0.107,-0.655 0.109,-0.651 0.111,-0.644C0.113,-0.632 0.114,-0.593 0.114,-0.528C0.114,-0.49 0.115,-0.448 0.117,-0.401C0.119,-0.355 0.12,-0.315 0.12,-0.28C0.12,-0.238 0.122,-0.193 0.124,-0.147C0.127,-0.1 0.13,-0.074 0.133,-0.068C0.135,-0.064 0.136,-0.057 0.136,-0.048C0.136,-0.04 0.136,-0.032 0.134,-0.027C0.131,-0.018 0.127,-0.012 0.121,-0.009C0.115,-0.007 0.103,-0.006 0.085,-0.006C0.077,-0.006 0.071,-0.007 0.067,-0.009C0.064,-0.011 0.059,-0.016 0.054,-0.025C0.05,-0.032 0.046,-0.044 0.043,-0.061C0.038,-0.091 0.034,-0.156 0.032,-0.256C0.03,-0.337 0.028,-0.378 0.027,-0.38C0.026,-0.38 0.025,-0.413 0.024,-0.477C0.023,-0.54 0.023,-0.576 0.023,-0.583C0.026,-0.63 0.035,-0.655 0.05,-0.658Z" style="fill-rule:nonzero;"/>
            </g>
            <g transform="matrix(200,0,0,200,1602.69,2283.21)">
                <path d="M0.22,-0.674C0.238,-0.682 0.262,-0.68 0.29,-0.668C0.293,-0.667 0.302,-0.665 0.317,-0.662C0.331,-0.659 0.34,-0.657 0.343,-0.655C0.344,-0.655 0.353,-0.651 0.369,-0.643C0.385,-0.635 0.394,-0.629 0.398,-0.626C0.4,-0.625 0.402,-0.624 0.404,-0.623C0.406,-0.621 0.407,-0.62 0.409,-0.619L0.41,-0.619C0.411,-0.619 0.417,-0.614 0.428,-0.605C0.438,-0.596 0.445,-0.59 0.447,-0.586L0.456,-0.578C0.477,-0.559 0.495,-0.527 0.512,-0.484C0.519,-0.465 0.523,-0.438 0.525,-0.402C0.525,-0.358 0.522,-0.327 0.518,-0.307C0.51,-0.273 0.496,-0.238 0.478,-0.202C0.452,-0.152 0.437,-0.125 0.431,-0.119C0.43,-0.118 0.425,-0.113 0.416,-0.102C0.375,-0.05 0.332,-0.016 0.287,-0C0.269,0.006 0.255,0.01 0.244,0.012C0.237,0.013 0.226,0.014 0.21,0.013C0.195,0.012 0.185,0.011 0.182,0.009L0.154,-0.005C0.119,-0.023 0.092,-0.051 0.074,-0.089C0.056,-0.124 0.044,-0.155 0.037,-0.183C0.033,-0.198 0.03,-0.218 0.028,-0.244C0.027,-0.257 0.026,-0.269 0.023,-0.282C0.023,-0.289 0.023,-0.308 0.025,-0.337C0.026,-0.366 0.028,-0.385 0.029,-0.394C0.03,-0.398 0.032,-0.405 0.034,-0.417C0.037,-0.429 0.039,-0.437 0.04,-0.442C0.043,-0.464 0.048,-0.479 0.054,-0.485L0.072,-0.52C0.101,-0.577 0.132,-0.618 0.165,-0.645C0.174,-0.653 0.181,-0.658 0.185,-0.66C0.188,-0.662 0.194,-0.665 0.2,-0.667C0.207,-0.669 0.213,-0.672 0.22,-0.674ZM0.237,-0.588C0.236,-0.589 0.234,-0.59 0.232,-0.59C0.23,-0.59 0.223,-0.583 0.21,-0.569C0.197,-0.555 0.187,-0.543 0.181,-0.533C0.142,-0.474 0.12,-0.412 0.113,-0.349C0.11,-0.319 0.112,-0.284 0.119,-0.245C0.12,-0.243 0.121,-0.232 0.124,-0.211C0.127,-0.187 0.137,-0.158 0.154,-0.125C0.158,-0.118 0.164,-0.11 0.172,-0.101C0.18,-0.092 0.188,-0.086 0.194,-0.083C0.21,-0.075 0.229,-0.075 0.249,-0.082L0.266,-0.088C0.268,-0.088 0.269,-0.089 0.27,-0.089C0.278,-0.091 0.293,-0.104 0.316,-0.127C0.339,-0.15 0.356,-0.169 0.366,-0.183C0.384,-0.209 0.399,-0.238 0.412,-0.27C0.427,-0.304 0.435,-0.346 0.435,-0.396C0.435,-0.416 0.432,-0.432 0.428,-0.444C0.423,-0.458 0.421,-0.466 0.421,-0.467C0.421,-0.47 0.416,-0.479 0.407,-0.492C0.398,-0.505 0.39,-0.516 0.382,-0.525C0.361,-0.547 0.339,-0.562 0.315,-0.569C0.298,-0.574 0.285,-0.575 0.279,-0.57C0.273,-0.566 0.265,-0.567 0.256,-0.572C0.247,-0.577 0.241,-0.582 0.237,-0.588Z" style="fill-rule:nonzero;"/>
            </g>
            <g transform="matrix(200,0,0,200,1716.94,2283.21)">
                <path d="M0.404,-0.725C0.418,-0.739 0.435,-0.74 0.456,-0.729C0.473,-0.72 0.482,-0.711 0.484,-0.704C0.484,-0.694 0.484,-0.686 0.482,-0.681C0.473,-0.66 0.468,-0.637 0.466,-0.612C0.461,-0.544 0.46,-0.486 0.463,-0.436C0.47,-0.34 0.471,-0.254 0.465,-0.179C0.463,-0.148 0.458,-0.126 0.45,-0.114C0.444,-0.106 0.439,-0.101 0.437,-0.1C0.42,-0.096 0.41,-0.093 0.409,-0.093C0.397,-0.093 0.387,-0.097 0.379,-0.104C0.378,-0.105 0.376,-0.106 0.373,-0.108C0.37,-0.11 0.367,-0.112 0.365,-0.113C0.363,-0.115 0.362,-0.117 0.362,-0.119C0.361,-0.124 0.351,-0.139 0.333,-0.165C0.315,-0.19 0.303,-0.207 0.296,-0.215C0.291,-0.22 0.274,-0.241 0.245,-0.278C0.204,-0.33 0.167,-0.384 0.134,-0.438L0.116,-0.468L0.118,-0.432C0.118,-0.424 0.119,-0.404 0.121,-0.372C0.123,-0.34 0.124,-0.313 0.125,-0.292C0.125,-0.282 0.126,-0.264 0.127,-0.238C0.129,-0.213 0.13,-0.194 0.13,-0.183C0.13,-0.18 0.13,-0.168 0.132,-0.15C0.138,-0.096 0.137,-0.063 0.13,-0.053C0.127,-0.047 0.113,-0.043 0.089,-0.04C0.076,-0.038 0.067,-0.038 0.063,-0.04C0.054,-0.044 0.049,-0.052 0.049,-0.062C0.049,-0.068 0.048,-0.072 0.047,-0.075C0.038,-0.093 0.034,-0.14 0.034,-0.215C0.034,-0.233 0.033,-0.26 0.03,-0.295C0.027,-0.33 0.025,-0.354 0.025,-0.364C0.023,-0.415 0.023,-0.486 0.023,-0.578C0.023,-0.627 0.027,-0.654 0.034,-0.66C0.05,-0.676 0.064,-0.684 0.076,-0.682L0.09,-0.682C0.093,-0.682 0.098,-0.679 0.105,-0.673L0.117,-0.665C0.118,-0.665 0.12,-0.663 0.121,-0.66C0.123,-0.657 0.125,-0.653 0.126,-0.65C0.128,-0.646 0.129,-0.643 0.13,-0.643C0.131,-0.639 0.132,-0.637 0.132,-0.637C0.131,-0.635 0.141,-0.616 0.161,-0.578C0.196,-0.515 0.222,-0.471 0.239,-0.445C0.277,-0.388 0.311,-0.342 0.341,-0.307C0.352,-0.295 0.36,-0.285 0.366,-0.278L0.373,-0.27L0.371,-0.324C0.371,-0.329 0.37,-0.37 0.368,-0.447C0.364,-0.54 0.366,-0.608 0.374,-0.651C0.38,-0.688 0.39,-0.713 0.404,-0.725Z" style="fill-rule:nonzero;"/>
            </g>
            <g transform="matrix(200,0,0,200,1823.02,2283.21)">
                <path d="M0.063,-0.131C0.055,-0.142 0.051,-0.148 0.051,-0.148C0.051,-0.149 0.05,-0.151 0.048,-0.153C0.046,-0.155 0.044,-0.157 0.044,-0.159C0.044,-0.161 0.042,-0.165 0.039,-0.171C0.025,-0.192 0.026,-0.21 0.042,-0.224C0.052,-0.234 0.06,-0.238 0.065,-0.238C0.071,-0.238 0.079,-0.233 0.09,-0.223C0.099,-0.216 0.117,-0.196 0.146,-0.164C0.167,-0.139 0.184,-0.122 0.197,-0.112C0.21,-0.101 0.224,-0.093 0.239,-0.088C0.247,-0.085 0.26,-0.083 0.277,-0.083C0.292,-0.083 0.304,-0.085 0.313,-0.09C0.323,-0.095 0.337,-0.106 0.354,-0.125C0.375,-0.149 0.389,-0.17 0.396,-0.187C0.403,-0.204 0.407,-0.232 0.408,-0.27C0.408,-0.307 0.398,-0.336 0.377,-0.355C0.367,-0.365 0.359,-0.371 0.353,-0.374C0.348,-0.376 0.338,-0.377 0.326,-0.377C0.292,-0.377 0.243,-0.367 0.176,-0.347C0.137,-0.334 0.11,-0.33 0.097,-0.335C0.095,-0.336 0.09,-0.337 0.084,-0.339C0.077,-0.341 0.071,-0.344 0.067,-0.348C0.049,-0.364 0.04,-0.378 0.037,-0.388L0.033,-0.398C0.031,-0.398 0.029,-0.408 0.026,-0.426C0.023,-0.434 0.022,-0.444 0.024,-0.457C0.026,-0.469 0.027,-0.478 0.027,-0.484C0.027,-0.489 0.029,-0.497 0.033,-0.508C0.038,-0.518 0.041,-0.525 0.043,-0.529C0.045,-0.533 0.048,-0.54 0.054,-0.55C0.059,-0.559 0.063,-0.566 0.064,-0.57C0.07,-0.582 0.089,-0.602 0.123,-0.631C0.13,-0.637 0.155,-0.651 0.199,-0.673C0.201,-0.674 0.208,-0.677 0.219,-0.68C0.23,-0.683 0.238,-0.685 0.241,-0.686C0.246,-0.687 0.257,-0.688 0.275,-0.689C0.292,-0.689 0.301,-0.688 0.303,-0.687C0.304,-0.685 0.306,-0.685 0.31,-0.685C0.324,-0.685 0.347,-0.677 0.376,-0.661C0.403,-0.646 0.416,-0.637 0.416,-0.633C0.416,-0.632 0.417,-0.63 0.42,-0.627C0.423,-0.623 0.424,-0.621 0.424,-0.619C0.425,-0.612 0.428,-0.607 0.433,-0.605C0.441,-0.6 0.438,-0.588 0.425,-0.568C0.42,-0.56 0.411,-0.558 0.4,-0.562C0.396,-0.563 0.392,-0.564 0.386,-0.564C0.383,-0.564 0.381,-0.565 0.379,-0.566C0.377,-0.567 0.376,-0.568 0.375,-0.568C0.37,-0.568 0.356,-0.573 0.333,-0.584C0.31,-0.595 0.285,-0.599 0.261,-0.597C0.233,-0.594 0.206,-0.582 0.18,-0.561C0.153,-0.54 0.134,-0.517 0.123,-0.492C0.117,-0.481 0.115,-0.468 0.116,-0.454C0.117,-0.434 0.12,-0.424 0.124,-0.423C0.125,-0.422 0.127,-0.423 0.13,-0.425C0.131,-0.427 0.138,-0.429 0.15,-0.433C0.162,-0.436 0.171,-0.438 0.176,-0.439C0.177,-0.439 0.192,-0.443 0.222,-0.451C0.266,-0.462 0.303,-0.467 0.333,-0.466L0.368,-0.466L0.397,-0.451C0.442,-0.425 0.47,-0.396 0.48,-0.364C0.492,-0.328 0.498,-0.299 0.499,-0.279C0.5,-0.247 0.497,-0.217 0.491,-0.188C0.48,-0.14 0.449,-0.091 0.4,-0.042C0.366,-0.009 0.327,0.008 0.282,0.008L0.255,0.008C0.239,0.008 0.218,0.002 0.192,-0.011C0.166,-0.024 0.143,-0.039 0.124,-0.057C0.098,-0.081 0.083,-0.097 0.078,-0.107C0.074,-0.117 0.069,-0.125 0.063,-0.131Z" style="fill-rule:nonzero;"/>
            </g>
        </g>
    </g>
</svg>
