<svg xmlns="http://www.w3.org/2000/svg" viewBox="0 0 600 150">
  <defs>
    <symbol id="cube-contour" viewBox="0 0 100 100">
      <polygon class="background" points="50,100 6.7,75 6.7,25 50,0 93.3,25 93.3,75" />
    </symbol>
    <symbol id="cube-grid" viewBox="0 0 100 100" overflow="visible">
      <path class="grid"
	        d="M 6.7,75 v -50 l 43.3,-25 
			   m 10.825,6.25 l -43.3,25 v 50 
			   m 10.825,6.25 v -50 l 43.3,-25 
			   m 10.825,6.25 l -43.3,25 v 50 
			   m 10.825,6.25 v -50 l 43.3,-25
			   M 6.7,25 l 43.3,25 v 50 
			   m 10.825,-6.25 v -50 l -43.3,-25 
			   m 10.825,-6.25 l 43.3,25 v 50 
			   m 10.825,-6.25 v -50 l -43.3,-25 
			   m 10.825,-6.25 l 43.3,25 v 50
			   M 6.7,75 l 43.3,25 l 43.3,-25
			   m 0,-12.5 l -43.3,25 l -43.3,-25
			   m 0,-12.5 l 43.3,25 l 43.3,-25
			   m 0,-12.5 l -43.3,25 l -43.3,-25" />
    </symbol>
		
	<symbol id="batch-size" viewBox="0 0 25 25" overflow="visible">
		<line x1="0.85" y1="0.5" x2="0.8" y2="24.5" class="latex-outline" />
		<line x1="0.85" y1="0.5" x2="0.8" y2="24.5" class="latex" />
		<path d="M 11.875 10.2 C 11.675 10.2 11.575 10.108 11.575 9.925 C 11.575 9.608 11.833 9.292 12.35 8.975 C 12.483 8.892 13.267 8.583 14.7 8.05 C 16.133 7.517 17.1 7.025 17.6 6.575 C 18.1 6.158 18.35 5.592 18.35 4.875 L 18.35 4.7 C 18.35 4.483 18.3 4.258 18.2 4.025 C 18.1 3.792 17.875 3.55 17.525 3.3 C 17.175 3.05 16.717 2.9 16.15 2.85 C 15.383 2.85 14.725 3.042 14.175 3.425 C 13.625 3.808 13.075 4.425 12.525 5.275 C 11.408 6.825 10.408 9.333 9.525 12.8 C 9.292 13.717 8.983 14.7 8.6 15.75 C 7.967 17.233 7.533 18.1 7.3 18.35 C 7.083 18.6 6.783 18.817 6.4 19 C 6.017 19.183 5.7 19.283 5.45 19.3 C 5.2 19.317 5.075 19.217 5.075 19 C 5.075 18.917 5.175 18.683 5.375 18.3 C 5.575 17.917 5.85 17.292 6.2 16.425 C 6.55 15.558 6.842 14.617 7.075 13.6 C 7.458 12.1 7.808 10.525 8.125 8.875 C 8.442 7.225 8.675 5.933 8.825 5 C 8.975 4.067 9.05 3.525 9.05 3.375 C 9.05 3.358 9.042 3.35 9.025 3.35 C 8.992 3.35 8.9 3.392 8.75 3.475 C 8.6 3.558 8.417 3.642 8.2 3.725 C 7.983 3.808 7.767 3.867 7.55 3.9 C 7.25 3.9 7.1 3.808 7.1 3.625 C 7.1 3.325 7.358 3 7.875 2.65 C 8.042 2.55 8.55 2.283 9.4 1.85 C 10.25 1.417 10.767 1.192 10.95 1.175 C 11.117 1.142 11.217 1.125 11.25 1.125 C 11.517 1.125 11.65 1.225 11.65 1.425 C 11.65 1.542 11.592 2.025 11.475 2.875 C 11.358 3.725 11.275 4.225 11.225 4.375 C 11.225 4.425 11.3 4.367 11.45 4.2 C 12.267 3.317 13.225 2.592 14.325 2.025 C 15.425 1.458 16.575 1.167 17.775 1.15 C 18.825 1.15 19.6 1.408 20.1 1.925 C 20.6 2.442 20.858 3.058 20.875 3.775 C 20.875 4.442 20.658 5.075 20.225 5.675 C 19.792 6.275 19.308 6.783 18.775 7.2 C 18.325 7.567 17.692 7.975 16.875 8.425 L 16.55 8.575 L 16.875 8.7 C 17.908 9.05 18.675 9.583 19.175 10.3 C 19.675 11.017 19.933 11.8 19.95 12.65 C 19.95 13.85 19.517 14.967 18.65 16 C 17.783 17.033 16.692 17.842 15.375 18.425 C 14.058 19.008 12.725 19.3 11.375 19.3 C 10.108 19.3 9.058 18.883 8.225 18.05 C 7.992 17.817 7.892 17.633 7.925 17.5 C 7.992 17.217 8.258 16.925 8.725 16.625 C 9.192 16.325 9.625 16.175 10.025 16.175 C 10.125 16.175 10.258 16.242 10.425 16.375 C 10.592 16.508 10.767 16.675 10.95 16.875 C 11.133 17.075 11.425 17.233 11.825 17.35 C 12.225 17.467 12.683 17.542 13.2 17.575 C 14.517 17.575 15.592 17.192 16.425 16.425 C 17.092 15.708 17.425 14.833 17.425 13.8 L 17.425 13.5 C 17.425 13.2 17.358 12.875 17.225 12.525 C 17.092 12.175 16.867 11.817 16.55 11.45 C 16.233 11.083 15.775 10.767 15.175 10.5 C 14.575 10.233 13.858 10.108 13.025 10.125 C 12.775 10.125 12.533 10.133 12.3 10.15 C 12.067 10.167 11.925 10.183 11.875 10.2 Z" class="latex" />
		<line x1="24.175" y1="0.5" x2="24.175" y2="24.5" class="latex-outline" />
		<line x1="24.175" y1="0.5" x2="24.175" y2="24.5" class="latex" />
	</symbol>
	<symbol id="channel-size" viewBox="0 0 25 25">
		<path d="M 4.825 12.45 C 4.825 10.533 5.383 8.692 6.5 6.925 C 7.617 5.158 9.025 3.758 10.725 2.725 C 12.425 1.692 14.125 1.167 15.825 1.15 C 17.325 1.15 18.517 1.575 19.4 2.425 C 19.55 2.592 19.675 2.733 19.775 2.85 C 19.875 2.967 19.942 3.05 19.975 3.1 L 20 3.175 C 20.05 3.175 20.275 2.958 20.675 2.525 C 20.792 2.425 20.917 2.308 21.05 2.175 C 21.183 2.042 21.317 1.908 21.45 1.775 C 21.583 1.642 21.667 1.55 21.7 1.5 L 22.075 1.125 L 22.225 1.125 C 22.458 1.125 22.575 1.183 22.575 1.3 C 22.575 1.367 22.308 2.508 21.775 4.725 C 21.175 7.042 20.875 8.208 20.875 8.225 C 20.842 8.308 20.8 8.358 20.75 8.375 C 20.7 8.392 20.55 8.408 20.3 8.425 L 19.9 8.425 C 19.8 8.325 19.75 8.25 19.75 8.2 C 19.75 8.183 19.758 8.125 19.775 8.025 C 19.792 7.925 19.808 7.758 19.825 7.525 C 19.842 7.292 19.85 7.025 19.85 6.725 C 19.85 5.542 19.583 4.508 19.05 3.625 C 18.517 2.742 17.608 2.292 16.325 2.275 C 15.892 2.275 15.425 2.333 14.925 2.45 C 14.425 2.567 13.825 2.767 13.125 3.05 C 12.425 3.333 11.733 3.8 11.05 4.45 C 10.367 5.1 9.758 5.875 9.225 6.775 C 8.692 7.725 8.267 8.833 7.95 10.1 C 7.633 11.367 7.475 12.4 7.475 13.2 C 7.475 15.1 8.108 16.467 9.375 17.3 C 10.175 17.867 11.158 18.15 12.325 18.15 C 13.842 18.15 15.192 17.583 16.375 16.45 C 17.558 15.317 18.342 14.083 18.725 12.75 C 18.792 12.533 18.842 12.408 18.875 12.375 C 18.908 12.342 19.042 12.325 19.275 12.325 C 19.608 12.325 19.775 12.4 19.775 12.55 C 19.775 12.633 19.767 12.708 19.75 12.775 C 19.267 14.558 18.233 16.092 16.65 17.375 C 15.067 18.658 13.367 19.3 11.55 19.3 C 9.667 19.3 8.075 18.675 6.775 17.425 C 5.475 16.175 4.825 14.517 4.825 12.45 Z" class="latex" />
	</symbol>
	<symbol id="signal-size" class="latex" viewBox="0 0 25 25">
		<path d="M 12.575 18.15 C 13.558 18.15 14.458 17.717 15.275 16.85 C 16.092 15.983 16.508 14.975 16.525 13.825 C 16.525 12.775 16.092 12.05 15.225 11.65 C 13.458 11.2 12.325 10.892 11.825 10.725 C 11.325 10.558 10.975 10.392 10.775 10.225 C 9.775 9.525 9.275 8.517 9.275 7.2 C 9.275 6.183 9.542 5.258 10.075 4.425 C 10.608 3.592 11.15 2.967 11.7 2.55 C 12.183 2.133 12.767 1.8 13.45 1.55 C 14.133 1.3 14.667 1.167 15.05 1.15 L 15.325 1.15 L 15.5 1.15 C 17.1 1.15 18.258 1.683 18.975 2.75 C 18.992 2.75 19.1 2.642 19.3 2.425 C 19.5 2.208 19.717 1.967 19.95 1.7 C 20.183 1.433 20.35 1.25 20.45 1.15 C 20.467 1.15 20.5 1.15 20.55 1.15 C 20.6 1.15 20.642 1.142 20.675 1.125 C 20.892 1.125 21 1.183 21 1.3 C 21 1.417 20.767 2.425 20.3 4.325 C 19.833 6.225 19.567 7.208 19.5 7.275 C 19.433 7.342 19.3 7.367 19.1 7.35 C 18.767 7.35 18.6 7.275 18.6 7.125 C 18.6 7.025 18.608 6.942 18.625 6.875 C 18.625 6.825 18.633 6.667 18.65 6.4 C 18.667 6.133 18.683 5.917 18.7 5.75 C 18.7 5.183 18.625 4.692 18.475 4.275 C 18.325 3.858 18.175 3.55 18.025 3.35 C 17.875 3.15 17.667 2.942 17.4 2.725 C 16.8 2.375 16.117 2.2 15.35 2.2 C 14.4 2.2 13.517 2.583 12.7 3.35 C 11.883 4.117 11.467 5 11.45 6 C 11.45 6.5 11.575 6.933 11.825 7.3 C 12.075 7.667 12.417 7.925 12.85 8.075 C 12.917 8.108 13.5 8.267 14.6 8.55 C 15.7 8.833 16.258 8.983 16.275 9 C 16.842 9.183 17.392 9.583 17.925 10.2 C 18.458 10.817 18.725 11.65 18.725 12.7 C 18.725 13.133 18.658 13.6 18.525 14.1 C 18.442 14.467 18.292 14.875 18.075 15.325 C 17.858 15.775 17.558 16.267 17.175 16.8 C 16.792 17.333 16.242 17.833 15.525 18.3 C 14.808 18.767 14.025 19.083 13.175 19.25 C 12.975 19.283 12.692 19.3 12.325 19.3 C 10.675 19.3 9.392 18.842 8.475 17.925 L 8.225 17.65 L 7.525 18.425 C 7.142 18.875 6.908 19.133 6.825 19.2 C 6.742 19.267 6.633 19.3 6.5 19.3 C 6.283 19.3 6.175 19.233 6.175 19.1 C 6.175 19.05 6.658 17.092 7.625 13.225 C 7.658 13.125 7.825 13.075 8.125 13.075 L 8.45 13.075 C 8.55 13.175 8.6 13.267 8.6 13.35 C 8.6 13.383 8.592 13.458 8.575 13.575 C 8.558 13.692 8.525 13.867 8.475 14.1 C 8.425 14.333 8.408 14.608 8.425 14.925 C 8.458 15.575 8.608 16.125 8.875 16.575 C 9.142 17.025 9.5 17.358 9.95 17.575 C 10.4 17.792 10.833 17.942 11.25 18.025 C 11.667 18.108 12.108 18.15 12.575 18.15 Z" class="latex" />
	</symbol>
	<style>
		.background {
			stroke: none;
			fill: white;
		}
		.grid {
			stroke: black;
			fill: none;
			stroke-linecap: round;
			stroke-linejoin: round;
		}

		text {
			fill: black;
			stroke: white;
			paint-order: stroke;
			font-weight: bold;
		}

		path.latex {
			stroke: white;
			fill: black;
			paint-order: stroke;
		}
		line.latex {
			stroke: black;
			stroke-linecap: round;
		}
		line.latex-outline {
			stroke: white;
			stroke-width: 2;
			stroke-linecap: round;
		}
	</style>
  </defs>
  <g transform="translate(125, 10)">
    <polygon class="background" points="6.7,43.75 50,18.75 93.3,43.75 93.3,56.25 50,81.25 6.7,56.25" />
    <path class="grid" d="M 6.7 56.25 v -12.5 l 43.3,-25 
	                      m 10.825,6.25 l -43.3,25  v 12.5
						  m 10.825,6.25 v -12.5 l 43.3,-25 
						  m 10.825,6.25 l -43.3,25  v 12.5
						  m 10.825,6.25 v -12.5 l 43.3,-25 
						  M 6.7 43.75 l 43.3,25 v 12.5 
						  m 10.825,-6.25 v -12.5 l -43.3,-25 
						  m 10.825,-6.25 l 43.3,25 v 12.5 
						  m 10.825,-6.25 v -12.5 l -43.3,-25 
						  m 10.825,-6.25 l 43.3,25 v 12.5
						  M 6.7 56.25 l 43.3,25 l 43.3,-25" />
	<g>
		<use href="#batch-size" x="72" y="72" width="14" height="14" />
		<use href="#channel-size" x="14" y="72" width="14" height="14" />
		<use href="#signal-size" x="-10" y="43" width="14" height="14" />
	</g>
	<text x="50" y="135" text-anchor="middle">Tabular</text>
  </g>
  <g transform="translate(250, 10)">
    <use href="#cube-contour" width="40" height="40" x="30" y="60" />
    <use href="#cube-grid" width="40" height="40" x="30" y="60" />
    <use href="#cube-contour" width="40" height="40" x="30" y="40" />
    <use href="#cube-grid" width="40" height="40" x="30" y="40" />
    <use href="#cube-contour" width="40" height="40" x="30" y="20" />
    <use href="#cube-grid" width="40" height="40" x="30" y="20" />
    <use href="#cube-contour" width="40" height="40" x="30" />
    <use href="#cube-grid" width="40" height="40" x="30" />
	<g>
		<use href="#batch-size" x="60" y="97" width="14" height="14" />
		<use href="#channel-size" x="26" y="97" width="14" height="14" />
		<use href="#signal-size" x="15" y="43" width="14" height="14" />
	</g>
	<text x="50" y="135" text-anchor="middle">Images</text>
  </g>
  <g transform="translate(375, 10)">
	<g transform="scale(.8)">
		<use href="#cube-contour" width="100" height="100" x="12.5" y="25" />
		<use href="#cube-grid" width="100" height="100" x="12.5" y="25" />
		<polygon class="background" points="94.975,56.25 51.675,31.25 51.675,18.75 62.5,12.5 105.8,37.5 105.8,50" />
		<path class="grid" d="M 51.675,31.25 v -12.5 l 10.825,-6.25 
							m 10.825,6.25 l -10.825,6.25 v 12.5 
							m 10.825,6.25 v -12.5 l 10.825,-6.25 
							m 10.825,6.25 l -10.825,6.25 v 12.5 
							m 10.825,6.25 v -12.5 l 10.825,-6.25 
							M 94.975,56.25 v -12.5 l -43.3,-25 
							m 10.825,-6.25 l 43.3,25 v 12.5 
							M 51.675,31.25 l 43.3,25 l 10.825,-6.25" />
		<polygon class="background" points="84.15,62.5 40.85,37.5 40.85,12.5 51.675,6.25 94.975,31.25 94.975,56.25" />
		<path class="grid" d="M 40.85 37.5 v -25 l 10.825,-6.25 
							m 10.825,6.25 l -10.825 6.25 v 25 
							m 10.825,6.25 v -25 l 10.825,-6.25 
							m 10.825,6.25 l -10.825 6.25 v 25 
							m 10.825,6.25 v -25 l 10.825,-6.25 
							M 84.15 62.5 v -25 l -43.3,-25 
							m 10.825,-6.25 l 43.3,25 v 25 
							M 40.85 25 l 43.3,25 l 10.825,-6.25 
							m 0 12.5 l -10.825,6.25 l -43.3,-25" />
		<polygon class="background" points="62.5,75 19.2,50 19.2,37.5 30.025,31.25 73.325,56.25 73.325,68.75" />
		<path class="grid" d="M 19.2,50 v -12.5 l 10.825,-6.25 
							m 10.825,6.25 l -10.825,6.25 v 12.5 
							m 10.825,6.25 v -12.5 l 10.825,-6.25 
							m 10.825,6.25 l -10.825,6.25 v 12.5 
							m 10.825,6.25 v -12.5 l 10.825,-6.25 
							M 62.5,75 v -12.5 l -43.3,-25 
							m 10.825,-6.25 l 43.3,25 v 12.5 
							M 19.2,50 l 43.3,25 l 10.825,-6.25" />
	</g>
	<g>
		<use href="#batch-size" x="70" y="92" width="14" height="14" />
		<use href="#channel-size" x="16" y="92" width="14" height="14" />
		<use href="#signal-size" x="-1" y="53" width="14" height="14" />
	</g>
	<text x="50" y="135" text-anchor="middle">Sequential</text>
  </g>
</svg>