<svg viewBox="0 0 600 150" xmlns="http://www.w3.org/2000/svg" xmlns:xlink="http://www.w3.org/1999/xlink" xmlns:bx="https://boxy-svg.com">
  <defs>
    <marker id="arrow" viewBox="0 0 20 20" orient="auto" refX="5" refY="10" overflow="visible">
      <path d="M 0 0 L 20 10 L 0 20 z" style="fill: black; stroke: white;" fill="context-fill" />
    </marker>
    <symbol id="addition" viewBox="0 0 10 10" overflow="visible">
      <path class="latex" d="M 4,0 h 2 v 4 h 4 v 2 h -4 v 4 h -2 v -4 h -4 v -2 h 4 z" />
    </symbol>
    <symbol id="gate" viewBox="0 0 25 25">
        <path class="latex" d="M 9.984 19.044 C 8.849 19.044 7.932 18.669 7.231 17.918 C 6.53 17.167 6.171 16.225 6.155 15.09 C 6.155 13.422 6.764 11.87 7.982 10.435 C 9.199 9.001 10.618 8.192 12.236 8.008 C 12.253 7.991 13.42 7.983 15.739 7.983 L 19.193 7.983 C 19.209 8 19.235 8.016 19.268 8.033 C 19.301 8.05 19.335 8.066 19.368 8.083 C 19.401 8.1 19.426 8.116 19.443 8.133 C 19.46 8.15 19.485 8.175 19.518 8.208 C 19.551 8.242 19.568 8.258 19.568 8.258 C 19.568 8.258 19.585 8.292 19.618 8.358 C 19.652 8.425 19.66 8.458 19.643 8.458 C 19.627 8.458 19.635 8.5 19.668 8.584 C 19.702 8.667 19.71 8.717 19.693 8.734 C 19.693 9.468 19.151 9.835 18.067 9.835 C 17.95 9.835 17.808 9.835 17.641 9.835 C 17.474 9.835 17.358 9.827 17.291 9.81 L 15.789 9.81 L 15.915 10.06 C 16.215 10.694 16.365 11.403 16.365 12.187 C 16.365 14.022 15.698 15.624 14.363 16.992 C 13.028 18.36 11.568 19.044 9.984 19.044 Z M 14.413 11.812 C 14.413 10.477 13.704 9.81 12.286 9.81 C 10.217 9.81 8.874 11.261 8.257 14.164 C 8.24 14.231 8.232 14.281 8.232 14.314 C 8.098 14.932 8.032 15.44 8.032 15.841 C 8.032 16.675 8.24 17.259 8.657 17.593 C 9.074 17.926 9.55 18.101 10.084 18.118 C 10.985 18.118 11.81 17.726 12.561 16.942 C 13.045 16.441 13.437 15.774 13.737 14.94 C 14.038 14.106 14.221 13.438 14.288 12.938 C 14.355 12.437 14.396 12.062 14.413 11.812 Z" />
    </symbol>
    <symbol id="function" viewBox="0 0 25 25">
      <path class="latex" d="M 8.532 22.823 C 8.565 22.823 8.615 22.84 8.682 22.873 C 8.749 22.906 8.841 22.931 8.957 22.948 C 9.074 22.965 9.174 22.973 9.258 22.973 C 9.475 22.973 9.675 22.865 9.858 22.648 C 10.042 22.431 10.175 22.189 10.259 21.922 C 10.426 21.472 10.709 20.195 11.11 18.093 C 11.51 15.991 11.894 13.989 12.261 12.087 C 12.628 10.185 12.811 9.226 12.811 9.209 L 12.811 9.134 L 11.635 9.134 C 10.851 9.134 10.434 9.117 10.384 9.084 C 10.317 9.034 10.284 8.951 10.284 8.834 L 10.459 8.133 C 10.492 8.05 10.559 8.008 10.659 8.008 C 10.759 8.008 11.151 8 11.835 7.983 C 12.636 7.983 13.037 7.975 13.037 7.958 C 13.037 7.925 13.111 7.507 13.262 6.707 C 13.412 5.906 13.512 5.422 13.562 5.255 C 14.179 2.503 15.397 1.126 17.216 1.126 C 17.833 1.16 18.342 1.343 18.742 1.677 C 19.142 2.01 19.343 2.452 19.343 3.003 C 19.343 3.604 19.168 4.037 18.817 4.304 C 18.467 4.571 18.117 4.713 17.766 4.73 C 17.032 4.73 16.665 4.379 16.665 3.679 C 16.665 3.362 16.757 3.086 16.94 2.853 C 17.124 2.619 17.324 2.444 17.541 2.327 L 17.766 2.202 C 17.499 2.102 17.249 2.052 17.015 2.052 C 16.815 2.052 16.623 2.135 16.44 2.302 C 16.256 2.469 16.131 2.703 16.065 3.003 C 15.948 3.487 15.814 4.138 15.664 4.955 C 15.514 5.773 15.38 6.465 15.264 7.032 C 15.147 7.599 15.089 7.9 15.089 7.933 C 15.089 7.966 15.547 7.983 16.465 7.983 C 17.216 7.983 17.649 7.991 17.766 8.008 C 17.883 8.025 17.975 8.075 18.041 8.158 C 18.058 8.225 18.041 8.367 17.991 8.584 C 17.941 8.801 17.9 8.934 17.866 8.984 C 17.833 9.067 17.758 9.109 17.641 9.109 C 17.524 9.109 17.074 9.117 16.29 9.134 L 14.888 9.134 L 14.313 12.187 C 13.512 16.325 12.953 18.911 12.636 19.945 C 12.186 21.363 11.602 22.414 10.884 23.098 C 10.267 23.632 9.658 23.899 9.058 23.899 C 8.524 23.899 8.04 23.74 7.606 23.423 C 7.172 23.107 6.955 22.656 6.955 22.072 C 6.955 21.455 7.131 21.004 7.481 20.721 C 7.831 20.437 8.182 20.295 8.532 20.295 C 9.266 20.295 9.633 20.646 9.633 21.346 C 9.633 21.663 9.541 21.939 9.358 22.172 C 9.174 22.406 8.974 22.581 8.757 22.698 L 8.532 22.823 Z" />
    </symbol>
    <style>
        rect.skip {
            fill: white;
            stroke: black;
        }
        rect.nonlinear {
            fill: #0084bb;
            stroke: black;
        }
        rect.mask {
            fill: #808080;
            stroke: white;
        }

        text {
            stroke: white;
            fill: black;
            paint-order: stroke;
            text-anchor: middle;
            font-weight: bold;
        }

        path.latex {
            stroke: white;
            fill: black;
            paint-order: stroke;
        }
        path.contour, line.contour {
            stroke: white;
            fill: none;
            stroke-width: 4;
        }
        path.nonlinear, line.nonlinear {
            stroke: black;
            fill: none;
            marker-end: url(#arrow);
            stroke-width: 3;
        }
    </style>
  </defs>
  <g id="resnet" transform="translate(75,0)">
    <g>
      <rect class="skip" x="5" y="42.5" width="15" height="15" />
      <rect class="skip" x="20" y="42.5" width="15" height="15" />
      <rect class="skip" x="35" y="42.5" width="15" height="15" />
      <rect class="skip" x="50" y="42.5" width="15" height="15" />
    </g>
    <line class="contour" x1="35" y1="65" x2="35" y2="80" />
    <line class="nonlinear" x1="35" y1="65" x2="35" y2="80" />
    <g>
      <rect class="nonlinear" x="5" y="92.5" width="15" height="15" />
      <rect class="nonlinear" x="20" y="92.5" width="15" height="15" />
      <rect class="nonlinear" x="35" y="92.5" width="15" height="15" />
      <rect class="nonlinear" x="50" y="92.5" width="15" height="15" />
    </g>
    <use href="#addition" x="70" y="95" width="10" height="10" />
    <g>
      <rect class="skip" x="85" y="92.5" width="15" height="15" />
      <rect class="skip" x="100" y="92.5" width="15" height="15" />
      <rect class="skip" x="115" y="92.5" width="15" height="15" />
      <rect class="skip" x="130" y="92.5" width="15" height="15" />
    </g>
    <path class="contour" d="M 70 50 h 35 a 10,10 0 0 1 10,10 v 20" />
    <path class="nonlinear" d="M 70 50 h 35 a 10,10 0 0 1 10,10 v 20" />
    <use href="#function" x="17" y="65" width="14" height="14" />
    <text x="75" y="140">ResNet</text>
  </g>
  <g id="densenet" transform="translate(225,0)">
    <g>
      <rect class="skip" x="15" y="42.5" width="15" height="15" />
      <rect class="skip" x="30" y="42.5" width="15" height="15" />
      <rect class="skip" x="45" y="42.5" width="15" height="15" />
      <rect class="skip" x="60" y="42.5" width="15" height="15" />
    </g>
    <line class="contour" x1="45" y1="65" x2="45" y2="80" />
    <line class="nonlinear" x1="45" y1="65" x2="45" y2="80" />
    <g>
      <rect class="nonlinear" x="15" y="92.5" width="15" height="15" />
      <rect class="nonlinear" x="30" y="92.5" width="15" height="15" />
      <rect class="nonlinear" x="45" y="92.5" width="15" height="15" />
      <rect class="nonlinear" x="60" y="92.5" width="15" height="15" />
    </g>
    <g>
      <rect class="skip" x="75" y="92.5" width="15" height="15" />
      <rect class="skip" x="90" y="92.5" width="15" height="15" />
      <rect class="skip" x="105" y="92.5" width="15" height="15" />
      <rect class="skip" x="120" y="92.5" width="15" height="15" />
    </g>
    <path class="contour" d="M 80 50 h 15 a 10,10 0 0 1 10,10 v 20"/>
    <path class="nonlinear" d="M 80 50 h 15 a 10,10 0 0 1 10,10 v 20"/>
    <use href="#function" x="27" y="65" width="14" height="14" />
    <text x="75" y="140">DenseNet</text>
  </g>
  <g id="highway" transform="translate(375, 0)">
    <g>
      <rect class="skip" x="5" y="42.5" width="15" height="15" />
      <rect class="skip" x="20" y="42.5" width="15" height="15" />
      <rect class="skip" x="35" y="42.5" width="15" height="15" />
      <rect class="skip" x="50" y="42.5" width="15" height="15" />
    </g>
    <line class="contour" x1="35" y1="65" x2="35" y2="80" />
    <line class="nonlinear" x1="35" y1="65" x2="35" y2="80" />
    <use href="#gate" x="35" y="82" width="10.5" height="10.5" />
    <g>
      <rect class="nonlinear" x="5" y="92.5" width="15" height="15" style="fill: #78bad5" />
      <rect class="nonlinear" x="20" y="92.5" width="15" height="15" style="fill: #074965" />
      <rect class="nonlinear" x="35" y="92.5" width="15" height="15" style="fill: #5fa1be" />
      <rect class="nonlinear" x="50" y="92.5" width="15" height="15" style="fill: #3f819e" />
    </g>
    <use href="#addition" x="70" y="95" width="10" height="10" />
    <g>
      <rect class="skip" x="85" y="92.5" width="15" height="15" style="fill: #0f0f0f;" />
      <rect class="skip" x="100" y="92.5" width="15" height="15" style="fill: #f0f0f0;" />
      <rect class="skip" x="115" y="92.5" width="15" height="15" style="fill: #404040;" />
      <rect class="skip" x="130" y="92.5" width="15" height="15" style="fill: #808080;" />
    </g>
    <path class="contour" d="M 70 50 h 35 a 10,10 0 0 1 10,10 v 20" />
    <path class="nonlinear" d="M 70 50 h 35 a 10,10 0 0 1 10,10 v 20" />
    <use href="#gate" x="115" y="82" width="10.5" height="10.5" />
    <use href="#function" x="17" y="65" width="14" height="14" />
    <text x="75" y="140">Highway</text>
  </g>
</svg>