<?xml version="1.0" encoding="utf-8" standalone="no"?>
<!DOCTYPE svg PUBLIC "-//W3C//DTD SVG 1.1//EN"
  "http://www.w3.org/Graphics/SVG/1.1/DTD/svg11.dtd">
<!-- Created with matplotlib (https://matplotlib.org/) -->
<svg height="279.01825pt" version="1.1" viewBox="0 0 949.828125 279.01825" width="949.828125pt" xmlns="http://www.w3.org/2000/svg" xmlns:xlink="http://www.w3.org/1999/xlink">
 <metadata>
  <rdf:RDF xmlns:cc="http://creativecommons.org/ns#" xmlns:dc="http://purl.org/dc/elements/1.1/" xmlns:rdf="http://www.w3.org/1999/02/22-rdf-syntax-ns#">
   <cc:Work>
    <dc:type rdf:resource="http://purl.org/dc/dcmitype/StillImage"/>
    <dc:date>2021-12-23T16:57:44.667167</dc:date>
    <dc:format>image/svg+xml</dc:format>
    <dc:creator>
     <cc:Agent>
      <dc:title>Matplotlib v3.3.2, https://matplotlib.org/</dc:title>
     </cc:Agent>
    </dc:creator>
   </cc:Work>
  </rdf:RDF>
 </metadata>
 <defs>
  <style type="text/css">*{stroke-linecap:butt;stroke-linejoin:round;}</style>
 </defs>
 <g id="figure_1">
  <g id="patch_1">
   <path d="M 0 279.01825 
L 949.828125 279.01825 
L 949.828125 0 
L 0 0 
z
" style="fill:none;"/>
  </g>
  <g id="axes_1">
   <g id="matplotlib.axis_1">
    <g id="ytick_1">
     <g id="line2d_1">
      <defs>
       <path d="M 0 0 
L 3.5 0 
" id="m95621efef6" style="stroke:#b2b2b2;stroke-width:0.8;"/>
      </defs>
      <g>
       <use style="fill:#b2b2b2;stroke:#b2b2b2;stroke-width:0.8;" x="432.743182" xlink:href="#m95621efef6" y="233.37132"/>
      </g>
     </g>
     <g id="text_1">
      <!-- 0.0 -->
      <g style="fill:#b2b2b2;" transform="translate(439.743182 237.170539)scale(0.1 -0.1)">
       <defs>
        <path d="M 31.78125 66.40625 
Q 24.171875 66.40625 20.328125 58.90625 
Q 16.5 51.421875 16.5 36.375 
Q 16.5 21.390625 20.328125 13.890625 
Q 24.171875 6.390625 31.78125 6.390625 
Q 39.453125 6.390625 43.28125 13.890625 
Q 47.125 21.390625 47.125 36.375 
Q 47.125 51.421875 43.28125 58.90625 
Q 39.453125 66.40625 31.78125 66.40625 
z
M 31.78125 74.21875 
Q 44.046875 74.21875 50.515625 64.515625 
Q 56.984375 54.828125 56.984375 36.375 
Q 56.984375 17.96875 50.515625 8.265625 
Q 44.046875 -1.421875 31.78125 -1.421875 
Q 19.53125 -1.421875 13.0625 8.265625 
Q 6.59375 17.96875 6.59375 36.375 
Q 6.59375 54.828125 13.0625 64.515625 
Q 19.53125 74.21875 31.78125 74.21875 
z
" id="DejaVuSans-48"/>
        <path d="M 10.6875 12.40625 
L 21 12.40625 
L 21 0 
L 10.6875 0 
z
" id="DejaVuSans-46"/>
       </defs>
       <use xlink:href="#DejaVuSans-48"/>
       <use x="63.623047" xlink:href="#DejaVuSans-46"/>
       <use x="95.410156" xlink:href="#DejaVuSans-48"/>
      </g>
     </g>
    </g>
    <g id="ytick_2">
     <g id="line2d_2">
      <g>
       <use style="fill:#b2b2b2;stroke:#b2b2b2;stroke-width:0.8;" x="432.743182" xlink:href="#m95621efef6" y="201.008601"/>
      </g>
     </g>
     <g id="text_2">
      <!-- 0.2 -->
      <g style="fill:#b2b2b2;" transform="translate(439.743182 204.807819)scale(0.1 -0.1)">
       <defs>
        <path d="M 19.1875 8.296875 
L 53.609375 8.296875 
L 53.609375 0 
L 7.328125 0 
L 7.328125 8.296875 
Q 12.9375 14.109375 22.625 23.890625 
Q 32.328125 33.6875 34.8125 36.53125 
Q 39.546875 41.84375 41.421875 45.53125 
Q 43.3125 49.21875 43.3125 52.78125 
Q 43.3125 58.59375 39.234375 62.25 
Q 35.15625 65.921875 28.609375 65.921875 
Q 23.96875 65.921875 18.8125 64.3125 
Q 13.671875 62.703125 7.8125 59.421875 
L 7.8125 69.390625 
Q 13.765625 71.78125 18.9375 73 
Q 24.125 74.21875 28.421875 74.21875 
Q 39.75 74.21875 46.484375 68.546875 
Q 53.21875 62.890625 53.21875 53.421875 
Q 53.21875 48.921875 51.53125 44.890625 
Q 49.859375 40.875 45.40625 35.40625 
Q 44.1875 33.984375 37.640625 27.21875 
Q 31.109375 20.453125 19.1875 8.296875 
z
" id="DejaVuSans-50"/>
       </defs>
       <use xlink:href="#DejaVuSans-48"/>
       <use x="63.623047" xlink:href="#DejaVuSans-46"/>
       <use x="95.410156" xlink:href="#DejaVuSans-50"/>
      </g>
     </g>
    </g>
    <g id="ytick_3">
     <g id="line2d_3">
      <g>
       <use style="fill:#b2b2b2;stroke:#b2b2b2;stroke-width:0.8;" x="432.743182" xlink:href="#m95621efef6" y="168.645881"/>
      </g>
     </g>
     <g id="text_3">
      <!-- 0.4 -->
      <g style="fill:#b2b2b2;" transform="translate(439.743182 172.4451)scale(0.1 -0.1)">
       <defs>
        <path d="M 37.796875 64.3125 
L 12.890625 25.390625 
L 37.796875 25.390625 
z
M 35.203125 72.90625 
L 47.609375 72.90625 
L 47.609375 25.390625 
L 58.015625 25.390625 
L 58.015625 17.1875 
L 47.609375 17.1875 
L 47.609375 0 
L 37.796875 0 
L 37.796875 17.1875 
L 4.890625 17.1875 
L 4.890625 26.703125 
z
" id="DejaVuSans-52"/>
       </defs>
       <use xlink:href="#DejaVuSans-48"/>
       <use x="63.623047" xlink:href="#DejaVuSans-46"/>
       <use x="95.410156" xlink:href="#DejaVuSans-52"/>
      </g>
     </g>
    </g>
    <g id="ytick_4">
     <g id="line2d_4">
      <g>
       <use style="fill:#b2b2b2;stroke:#b2b2b2;stroke-width:0.8;" x="432.743182" xlink:href="#m95621efef6" y="136.283162"/>
      </g>
     </g>
     <g id="text_4">
      <!-- 0.6 -->
      <g style="fill:#b2b2b2;" transform="translate(439.743182 140.08238)scale(0.1 -0.1)">
       <defs>
        <path d="M 33.015625 40.375 
Q 26.375 40.375 22.484375 35.828125 
Q 18.609375 31.296875 18.609375 23.390625 
Q 18.609375 15.53125 22.484375 10.953125 
Q 26.375 6.390625 33.015625 6.390625 
Q 39.65625 6.390625 43.53125 10.953125 
Q 47.40625 15.53125 47.40625 23.390625 
Q 47.40625 31.296875 43.53125 35.828125 
Q 39.65625 40.375 33.015625 40.375 
z
M 52.59375 71.296875 
L 52.59375 62.3125 
Q 48.875 64.0625 45.09375 64.984375 
Q 41.3125 65.921875 37.59375 65.921875 
Q 27.828125 65.921875 22.671875 59.328125 
Q 17.53125 52.734375 16.796875 39.40625 
Q 19.671875 43.65625 24.015625 45.921875 
Q 28.375 48.1875 33.59375 48.1875 
Q 44.578125 48.1875 50.953125 41.515625 
Q 57.328125 34.859375 57.328125 23.390625 
Q 57.328125 12.15625 50.6875 5.359375 
Q 44.046875 -1.421875 33.015625 -1.421875 
Q 20.359375 -1.421875 13.671875 8.265625 
Q 6.984375 17.96875 6.984375 36.375 
Q 6.984375 53.65625 15.1875 63.9375 
Q 23.390625 74.21875 37.203125 74.21875 
Q 40.921875 74.21875 44.703125 73.484375 
Q 48.484375 72.75 52.59375 71.296875 
z
" id="DejaVuSans-54"/>
       </defs>
       <use xlink:href="#DejaVuSans-48"/>
       <use x="63.623047" xlink:href="#DejaVuSans-46"/>
       <use x="95.410156" xlink:href="#DejaVuSans-54"/>
      </g>
     </g>
    </g>
    <g id="ytick_5">
     <g id="line2d_5">
      <g>
       <use style="fill:#b2b2b2;stroke:#b2b2b2;stroke-width:0.8;" x="432.743182" xlink:href="#m95621efef6" y="103.920442"/>
      </g>
     </g>
     <g id="text_5">
      <!-- 0.8 -->
      <g style="fill:#b2b2b2;" transform="translate(439.743182 107.719661)scale(0.1 -0.1)">
       <defs>
        <path d="M 31.78125 34.625 
Q 24.75 34.625 20.71875 30.859375 
Q 16.703125 27.09375 16.703125 20.515625 
Q 16.703125 13.921875 20.71875 10.15625 
Q 24.75 6.390625 31.78125 6.390625 
Q 38.8125 6.390625 42.859375 10.171875 
Q 46.921875 13.96875 46.921875 20.515625 
Q 46.921875 27.09375 42.890625 30.859375 
Q 38.875 34.625 31.78125 34.625 
z
M 21.921875 38.8125 
Q 15.578125 40.375 12.03125 44.71875 
Q 8.5 49.078125 8.5 55.328125 
Q 8.5 64.0625 14.71875 69.140625 
Q 20.953125 74.21875 31.78125 74.21875 
Q 42.671875 74.21875 48.875 69.140625 
Q 55.078125 64.0625 55.078125 55.328125 
Q 55.078125 49.078125 51.53125 44.71875 
Q 48 40.375 41.703125 38.8125 
Q 48.828125 37.15625 52.796875 32.3125 
Q 56.78125 27.484375 56.78125 20.515625 
Q 56.78125 9.90625 50.3125 4.234375 
Q 43.84375 -1.421875 31.78125 -1.421875 
Q 19.734375 -1.421875 13.25 4.234375 
Q 6.78125 9.90625 6.78125 20.515625 
Q 6.78125 27.484375 10.78125 32.3125 
Q 14.796875 37.15625 21.921875 38.8125 
z
M 18.3125 54.390625 
Q 18.3125 48.734375 21.84375 45.5625 
Q 25.390625 42.390625 31.78125 42.390625 
Q 38.140625 42.390625 41.71875 45.5625 
Q 45.3125 48.734375 45.3125 54.390625 
Q 45.3125 60.0625 41.71875 63.234375 
Q 38.140625 66.40625 31.78125 66.40625 
Q 25.390625 66.40625 21.84375 63.234375 
Q 18.3125 60.0625 18.3125 54.390625 
z
" id="DejaVuSans-56"/>
       </defs>
       <use xlink:href="#DejaVuSans-48"/>
       <use x="63.623047" xlink:href="#DejaVuSans-46"/>
       <use x="95.410156" xlink:href="#DejaVuSans-56"/>
      </g>
     </g>
    </g>
    <g id="ytick_6">
     <g id="line2d_6">
      <g>
       <use style="fill:#b2b2b2;stroke:#b2b2b2;stroke-width:0.8;" x="432.743182" xlink:href="#m95621efef6" y="71.557723"/>
      </g>
     </g>
     <g id="text_6">
      <!-- 1.0 -->
      <g style="fill:#b2b2b2;" transform="translate(439.743182 75.356941)scale(0.1 -0.1)">
       <defs>
        <path d="M 12.40625 8.296875 
L 28.515625 8.296875 
L 28.515625 63.921875 
L 10.984375 60.40625 
L 10.984375 69.390625 
L 28.421875 72.90625 
L 38.28125 72.90625 
L 38.28125 8.296875 
L 54.390625 8.296875 
L 54.390625 0 
L 12.40625 0 
z
" id="DejaVuSans-49"/>
       </defs>
       <use xlink:href="#DejaVuSans-49"/>
       <use x="63.623047" xlink:href="#DejaVuSans-46"/>
       <use x="95.410156" xlink:href="#DejaVuSans-48"/>
      </g>
     </g>
    </g>
    <g id="ytick_7">
     <g id="line2d_7">
      <g>
       <use style="fill:#b2b2b2;stroke:#b2b2b2;stroke-width:0.8;" x="432.743182" xlink:href="#m95621efef6" y="39.195003"/>
      </g>
     </g>
     <g id="text_7">
      <!-- 1.2 -->
      <g style="fill:#b2b2b2;" transform="translate(439.743182 42.994222)scale(0.1 -0.1)">
       <use xlink:href="#DejaVuSans-49"/>
       <use x="63.623047" xlink:href="#DejaVuSans-46"/>
       <use x="95.410156" xlink:href="#DejaVuSans-50"/>
      </g>
     </g>
    </g>
    <g id="text_8">
     <!-- $\sigma_f^2$ -->
     <g style="fill:#b2b2b2;" transform="translate(444.046307 16.3)scale(0.1 -0.1)">
      <defs>
       <path d="M 34.671875 47.5625 
Q 27.25 47.5625 22.21875 42.1875 
Q 16.890625 36.578125 15.140625 27.296875 
Q 13.1875 17.484375 16.3125 11.8125 
Q 19.390625 6.203125 26.65625 6.203125 
Q 33.84375 6.203125 39.109375 11.859375 
Q 44.4375 17.53125 46.34375 27.296875 
Q 48.046875 36.234375 45.015625 42.1875 
Q 42.1875 47.5625 34.671875 47.5625 
z
M 36.078125 54.734375 
L 65.921875 54.6875 
L 64.15625 45.703125 
L 54.109375 45.703125 
Q 57.90625 38.09375 55.859375 27.296875 
Q 53.21875 13.875 45.0625 6.25 
Q 36.859375 -1.421875 25.140625 -1.421875 
Q 13.375 -1.421875 8.203125 6.25 
Q 3.03125 13.875 5.671875 27.296875 
Q 8.25 40.765625 16.40625 48.390625 
Q 23.1875 54.734375 36.078125 54.734375 
z
" id="DejaVuSans-Oblique-963"/>
       <path d="M 47.796875 75.984375 
L 46.390625 68.5 
L 37.796875 68.5 
Q 32.90625 68.5 30.6875 66.578125 
Q 28.46875 64.65625 27.390625 59.515625 
L 26.421875 54.6875 
L 41.21875 54.6875 
L 39.890625 47.703125 
L 25.09375 47.703125 
L 15.828125 0 
L 6.78125 0 
L 16.109375 47.703125 
L 7.515625 47.703125 
L 8.796875 54.6875 
L 17.390625 54.6875 
L 18.109375 58.5 
Q 19.96875 68.171875 24.625 72.078125 
Q 29.296875 75.984375 39.3125 75.984375 
z
" id="DejaVuSans-Oblique-102"/>
      </defs>
      <use transform="translate(0 0.701562)" xlink:href="#DejaVuSans-Oblique-963"/>
      <use transform="translate(67.851615 39.046875)scale(0.7)" xlink:href="#DejaVuSans-50"/>
      <use transform="translate(63.378906 -26.642188)scale(0.7)" xlink:href="#DejaVuSans-Oblique-102"/>
     </g>
    </g>
   </g>
   <g id="line2d_8">
    <path clip-path="url(#p48394a9c61)" d="M 68.429132 122.379211 
L 91.486983 122.568694 
L 114.544835 124.714054 
L 137.602686 122.300953 
L 160.660537 122.698938 
L 183.718388 123.260731 
L 206.77624 122.157534 
L 229.834091 123.190015 
L 252.891942 123.296368 
L 275.949793 122.326637 
L 299.007645 122.606589 
L 322.065496 122.956995 
L 345.123347 122.908106 
L 368.181198 122.936934 
L 391.23905 122.754917 
L 414.296901 122.712354 
" style="fill:none;stroke:#d9d9d9;stroke-dasharray:1.5,2.475;stroke-dashoffset:0;stroke-width:1.5;"/>
    <defs>
     <path d="M 0 1.5 
C 0.397805 1.5 0.77937 1.341951 1.06066 1.06066 
C 1.341951 0.77937 1.5 0.397805 1.5 0 
C 1.5 -0.397805 1.341951 -0.77937 1.06066 -1.06066 
C 0.77937 -1.341951 0.397805 -1.5 0 -1.5 
C -0.397805 -1.5 -0.77937 -1.341951 -1.06066 -1.06066 
C -1.341951 -0.77937 -1.5 -0.397805 -1.5 0 
C -1.5 0.397805 -1.341951 0.77937 -1.06066 1.06066 
C -0.77937 1.341951 -0.397805 1.5 0 1.5 
z
" id="m4ea5cf373d" style="stroke:#d9d9d9;"/>
    </defs>
    <g clip-path="url(#p48394a9c61)">
     <use style="fill:#d9d9d9;stroke:#d9d9d9;" x="68.429132" xlink:href="#m4ea5cf373d" y="122.379211"/>
     <use style="fill:#d9d9d9;stroke:#d9d9d9;" x="91.486983" xlink:href="#m4ea5cf373d" y="122.568694"/>
     <use style="fill:#d9d9d9;stroke:#d9d9d9;" x="114.544835" xlink:href="#m4ea5cf373d" y="124.714054"/>
     <use style="fill:#d9d9d9;stroke:#d9d9d9;" x="137.602686" xlink:href="#m4ea5cf373d" y="122.300953"/>
     <use style="fill:#d9d9d9;stroke:#d9d9d9;" x="160.660537" xlink:href="#m4ea5cf373d" y="122.698938"/>
     <use style="fill:#d9d9d9;stroke:#d9d9d9;" x="183.718388" xlink:href="#m4ea5cf373d" y="123.260731"/>
     <use style="fill:#d9d9d9;stroke:#d9d9d9;" x="206.77624" xlink:href="#m4ea5cf373d" y="122.157534"/>
     <use style="fill:#d9d9d9;stroke:#d9d9d9;" x="229.834091" xlink:href="#m4ea5cf373d" y="123.190015"/>
     <use style="fill:#d9d9d9;stroke:#d9d9d9;" x="252.891942" xlink:href="#m4ea5cf373d" y="123.296368"/>
     <use style="fill:#d9d9d9;stroke:#d9d9d9;" x="275.949793" xlink:href="#m4ea5cf373d" y="122.326637"/>
     <use style="fill:#d9d9d9;stroke:#d9d9d9;" x="299.007645" xlink:href="#m4ea5cf373d" y="122.606589"/>
     <use style="fill:#d9d9d9;stroke:#d9d9d9;" x="322.065496" xlink:href="#m4ea5cf373d" y="122.956995"/>
     <use style="fill:#d9d9d9;stroke:#d9d9d9;" x="345.123347" xlink:href="#m4ea5cf373d" y="122.908106"/>
     <use style="fill:#d9d9d9;stroke:#d9d9d9;" x="368.181198" xlink:href="#m4ea5cf373d" y="122.936934"/>
     <use style="fill:#d9d9d9;stroke:#d9d9d9;" x="391.23905" xlink:href="#m4ea5cf373d" y="122.754917"/>
     <use style="fill:#d9d9d9;stroke:#d9d9d9;" x="414.296901" xlink:href="#m4ea5cf373d" y="122.712354"/>
    </g>
   </g>
   <g id="line2d_9">
    <path clip-path="url(#p48394a9c61)" d="M 68.429132 33.991005 
L 91.486983 110.963663 
L 114.544835 122.947563 
L 137.602686 146.020918 
L 160.660537 125.714263 
L 183.718388 143.550344 
L 206.77624 152.809431 
L 229.834091 148.210288 
L 252.891942 132.371981 
L 275.949793 150.407875 
L 299.007645 129.039351 
L 322.065496 133.866681 
L 345.123347 154.355701 
L 368.181198 145.930527 
L 391.23905 124.412007 
L 414.296901 131.800254 
" style="fill:none;stroke:#b2d4eb;stroke-dasharray:1.5,2.475;stroke-dashoffset:0;stroke-width:1.5;"/>
    <defs>
     <path d="M 0 1.5 
C 0.397805 1.5 0.77937 1.341951 1.06066 1.06066 
C 1.341951 0.77937 1.5 0.397805 1.5 0 
C 1.5 -0.397805 1.341951 -0.77937 1.06066 -1.06066 
C 0.77937 -1.341951 0.397805 -1.5 0 -1.5 
C -0.397805 -1.5 -0.77937 -1.341951 -1.06066 -1.06066 
C -1.341951 -0.77937 -1.5 -0.397805 -1.5 0 
C -1.5 0.397805 -1.341951 0.77937 -1.06066 1.06066 
C -0.77937 1.341951 -0.397805 1.5 0 1.5 
z
" id="m04cfd0e99e" style="stroke:#b2d4eb;"/>
    </defs>
    <g clip-path="url(#p48394a9c61)">
     <use style="fill:#b2d4eb;stroke:#b2d4eb;" x="68.429132" xlink:href="#m04cfd0e99e" y="33.991005"/>
     <use style="fill:#b2d4eb;stroke:#b2d4eb;" x="91.486983" xlink:href="#m04cfd0e99e" y="110.963663"/>
     <use style="fill:#b2d4eb;stroke:#b2d4eb;" x="114.544835" xlink:href="#m04cfd0e99e" y="122.947563"/>
     <use style="fill:#b2d4eb;stroke:#b2d4eb;" x="137.602686" xlink:href="#m04cfd0e99e" y="146.020918"/>
     <use style="fill:#b2d4eb;stroke:#b2d4eb;" x="160.660537" xlink:href="#m04cfd0e99e" y="125.714263"/>
     <use style="fill:#b2d4eb;stroke:#b2d4eb;" x="183.718388" xlink:href="#m04cfd0e99e" y="143.550344"/>
     <use style="fill:#b2d4eb;stroke:#b2d4eb;" x="206.77624" xlink:href="#m04cfd0e99e" y="152.809431"/>
     <use style="fill:#b2d4eb;stroke:#b2d4eb;" x="229.834091" xlink:href="#m04cfd0e99e" y="148.210288"/>
     <use style="fill:#b2d4eb;stroke:#b2d4eb;" x="252.891942" xlink:href="#m04cfd0e99e" y="132.371981"/>
     <use style="fill:#b2d4eb;stroke:#b2d4eb;" x="275.949793" xlink:href="#m04cfd0e99e" y="150.407875"/>
     <use style="fill:#b2d4eb;stroke:#b2d4eb;" x="299.007645" xlink:href="#m04cfd0e99e" y="129.039351"/>
     <use style="fill:#b2d4eb;stroke:#b2d4eb;" x="322.065496" xlink:href="#m04cfd0e99e" y="133.866681"/>
     <use style="fill:#b2d4eb;stroke:#b2d4eb;" x="345.123347" xlink:href="#m04cfd0e99e" y="154.355701"/>
     <use style="fill:#b2d4eb;stroke:#b2d4eb;" x="368.181198" xlink:href="#m04cfd0e99e" y="145.930527"/>
     <use style="fill:#b2d4eb;stroke:#b2d4eb;" x="391.23905" xlink:href="#m04cfd0e99e" y="124.412007"/>
     <use style="fill:#b2d4eb;stroke:#b2d4eb;" x="414.296901" xlink:href="#m04cfd0e99e" y="131.800254"/>
    </g>
   </g>
   <g id="patch_2">
    <path d="M 26.925 241.462 
L 26.925 24.022 
" style="fill:none;stroke:#000000;stroke-linecap:square;stroke-linejoin:miter;stroke-width:0.8;"/>
   </g>
   <g id="patch_3">
    <path d="M 432.743182 241.462 
L 432.743182 24.022 
" style="fill:none;stroke:#000000;stroke-linecap:square;stroke-linejoin:miter;stroke-width:0.8;"/>
   </g>
   <g id="patch_4">
    <path d="M 26.925 241.462 
L 432.743182 241.462 
" style="fill:none;stroke:#000000;stroke-linecap:square;stroke-linejoin:miter;stroke-width:0.8;"/>
   </g>
   <g id="patch_5">
    <path d="M 26.925 24.022 
L 432.743182 24.022 
" style="fill:none;stroke:#000000;stroke-linecap:square;stroke-linejoin:miter;stroke-width:0.8;"/>
   </g>
  </g>
  <g id="axes_2">
   <g id="matplotlib.axis_2">
    <g id="ytick_8">
     <g id="line2d_10">
      <g>
       <use style="fill:#b2b2b2;stroke:#b2b2b2;stroke-width:0.8;" x="919.725" xlink:href="#m95621efef6" y="231.668978"/>
      </g>
     </g>
     <g id="text_9">
      <!-- 0.0 -->
      <g style="fill:#b2b2b2;" transform="translate(926.725 235.468197)scale(0.1 -0.1)">
       <use xlink:href="#DejaVuSans-48"/>
       <use x="63.623047" xlink:href="#DejaVuSans-46"/>
       <use x="95.410156" xlink:href="#DejaVuSans-48"/>
      </g>
     </g>
    </g>
    <g id="ytick_9">
     <g id="line2d_11">
      <g>
       <use style="fill:#b2b2b2;stroke:#b2b2b2;stroke-width:0.8;" x="919.725" xlink:href="#m95621efef6" y="192.496891"/>
      </g>
     </g>
     <g id="text_10">
      <!-- 0.2 -->
      <g style="fill:#b2b2b2;" transform="translate(926.725 196.29611)scale(0.1 -0.1)">
       <use xlink:href="#DejaVuSans-48"/>
       <use x="63.623047" xlink:href="#DejaVuSans-46"/>
       <use x="95.410156" xlink:href="#DejaVuSans-50"/>
      </g>
     </g>
    </g>
    <g id="ytick_10">
     <g id="line2d_12">
      <g>
       <use style="fill:#b2b2b2;stroke:#b2b2b2;stroke-width:0.8;" x="919.725" xlink:href="#m95621efef6" y="153.324805"/>
      </g>
     </g>
     <g id="text_11">
      <!-- 0.4 -->
      <g style="fill:#b2b2b2;" transform="translate(926.725 157.124023)scale(0.1 -0.1)">
       <use xlink:href="#DejaVuSans-48"/>
       <use x="63.623047" xlink:href="#DejaVuSans-46"/>
       <use x="95.410156" xlink:href="#DejaVuSans-52"/>
      </g>
     </g>
    </g>
    <g id="ytick_11">
     <g id="line2d_13">
      <g>
       <use style="fill:#b2b2b2;stroke:#b2b2b2;stroke-width:0.8;" x="919.725" xlink:href="#m95621efef6" y="114.152718"/>
      </g>
     </g>
     <g id="text_12">
      <!-- 0.6 -->
      <g style="fill:#b2b2b2;" transform="translate(926.725 117.951936)scale(0.1 -0.1)">
       <use xlink:href="#DejaVuSans-48"/>
       <use x="63.623047" xlink:href="#DejaVuSans-46"/>
       <use x="95.410156" xlink:href="#DejaVuSans-54"/>
      </g>
     </g>
    </g>
    <g id="ytick_12">
     <g id="line2d_14">
      <g>
       <use style="fill:#b2b2b2;stroke:#b2b2b2;stroke-width:0.8;" x="919.725" xlink:href="#m95621efef6" y="74.980631"/>
      </g>
     </g>
     <g id="text_13">
      <!-- 0.8 -->
      <g style="fill:#b2b2b2;" transform="translate(926.725 78.77985)scale(0.1 -0.1)">
       <use xlink:href="#DejaVuSans-48"/>
       <use x="63.623047" xlink:href="#DejaVuSans-46"/>
       <use x="95.410156" xlink:href="#DejaVuSans-56"/>
      </g>
     </g>
    </g>
    <g id="ytick_13">
     <g id="line2d_15">
      <g>
       <use style="fill:#b2b2b2;stroke:#b2b2b2;stroke-width:0.8;" x="919.725" xlink:href="#m95621efef6" y="35.808544"/>
      </g>
     </g>
     <g id="text_14">
      <!-- 1.0 -->
      <g style="fill:#b2b2b2;" transform="translate(926.725 39.607763)scale(0.1 -0.1)">
       <use xlink:href="#DejaVuSans-49"/>
       <use x="63.623047" xlink:href="#DejaVuSans-46"/>
       <use x="95.410156" xlink:href="#DejaVuSans-48"/>
      </g>
     </g>
    </g>
    <g id="text_15">
     <!-- $\sigma_f^2$ -->
     <g style="fill:#b2b2b2;" transform="translate(931.028125 16.3)scale(0.1 -0.1)">
      <use transform="translate(0 0.701562)" xlink:href="#DejaVuSans-Oblique-963"/>
      <use transform="translate(67.851615 39.046875)scale(0.7)" xlink:href="#DejaVuSans-50"/>
      <use transform="translate(63.378906 -26.642188)scale(0.7)" xlink:href="#DejaVuSans-Oblique-102"/>
     </g>
    </g>
   </g>
   <g id="line2d_16">
    <path clip-path="url(#pcc1ca2d1ec)" d="M 555.41095 97.32614 
L 578.468802 97.471823 
L 601.526653 100.211615 
L 624.584504 97.269766 
L 647.642355 97.688601 
L 670.700207 98.376923 
L 693.758058 97.103443 
L 716.815909 98.301834 
L 739.87376 98.434943 
L 762.931612 97.260905 
L 785.989463 97.628712 
L 809.047314 98.034122 
L 832.105165 97.993671 
L 855.163017 98.080258 
L 878.220868 97.745104 
L 901.278719 97.802447 
" style="fill:none;stroke:#d9d9d9;stroke-dasharray:1.5,2.475;stroke-dashoffset:0;stroke-width:1.5;"/>
    <g clip-path="url(#pcc1ca2d1ec)">
     <use style="fill:#d9d9d9;stroke:#d9d9d9;" x="555.41095" xlink:href="#m4ea5cf373d" y="97.32614"/>
     <use style="fill:#d9d9d9;stroke:#d9d9d9;" x="578.468802" xlink:href="#m4ea5cf373d" y="97.471823"/>
     <use style="fill:#d9d9d9;stroke:#d9d9d9;" x="601.526653" xlink:href="#m4ea5cf373d" y="100.211615"/>
     <use style="fill:#d9d9d9;stroke:#d9d9d9;" x="624.584504" xlink:href="#m4ea5cf373d" y="97.269766"/>
     <use style="fill:#d9d9d9;stroke:#d9d9d9;" x="647.642355" xlink:href="#m4ea5cf373d" y="97.688601"/>
     <use style="fill:#d9d9d9;stroke:#d9d9d9;" x="670.700207" xlink:href="#m4ea5cf373d" y="98.376923"/>
     <use style="fill:#d9d9d9;stroke:#d9d9d9;" x="693.758058" xlink:href="#m4ea5cf373d" y="97.103443"/>
     <use style="fill:#d9d9d9;stroke:#d9d9d9;" x="716.815909" xlink:href="#m4ea5cf373d" y="98.301834"/>
     <use style="fill:#d9d9d9;stroke:#d9d9d9;" x="739.87376" xlink:href="#m4ea5cf373d" y="98.434943"/>
     <use style="fill:#d9d9d9;stroke:#d9d9d9;" x="762.931612" xlink:href="#m4ea5cf373d" y="97.260905"/>
     <use style="fill:#d9d9d9;stroke:#d9d9d9;" x="785.989463" xlink:href="#m4ea5cf373d" y="97.628712"/>
     <use style="fill:#d9d9d9;stroke:#d9d9d9;" x="809.047314" xlink:href="#m4ea5cf373d" y="98.034122"/>
     <use style="fill:#d9d9d9;stroke:#d9d9d9;" x="832.105165" xlink:href="#m4ea5cf373d" y="97.993671"/>
     <use style="fill:#d9d9d9;stroke:#d9d9d9;" x="855.163017" xlink:href="#m4ea5cf373d" y="98.080258"/>
     <use style="fill:#d9d9d9;stroke:#d9d9d9;" x="878.220868" xlink:href="#m4ea5cf373d" y="97.745104"/>
     <use style="fill:#d9d9d9;stroke:#d9d9d9;" x="901.278719" xlink:href="#m4ea5cf373d" y="97.802447"/>
    </g>
   </g>
   <g id="line2d_17">
    <path clip-path="url(#pcc1ca2d1ec)" d="M 555.41095 33.909947 
L 578.468802 37.400799 
L 601.526653 38.555948 
L 624.584504 37.944688 
L 647.642355 36.817077 
L 670.700207 39.462438 
L 693.758058 39.957202 
L 716.815909 39.291469 
L 739.87376 42.465553 
L 762.931612 42.693422 
L 785.989463 43.925423 
L 809.047314 45.319636 
L 832.105165 46.034716 
L 855.163017 46.706472 
L 878.220868 52.950156 
L 901.278719 55.375365 
" style="fill:none;stroke:#b2d4eb;stroke-dasharray:1.5,2.475;stroke-dashoffset:0;stroke-width:1.5;"/>
    <g clip-path="url(#pcc1ca2d1ec)">
     <use style="fill:#b2d4eb;stroke:#b2d4eb;" x="555.41095" xlink:href="#m04cfd0e99e" y="33.909947"/>
     <use style="fill:#b2d4eb;stroke:#b2d4eb;" x="578.468802" xlink:href="#m04cfd0e99e" y="37.400799"/>
     <use style="fill:#b2d4eb;stroke:#b2d4eb;" x="601.526653" xlink:href="#m04cfd0e99e" y="38.555948"/>
     <use style="fill:#b2d4eb;stroke:#b2d4eb;" x="624.584504" xlink:href="#m04cfd0e99e" y="37.944688"/>
     <use style="fill:#b2d4eb;stroke:#b2d4eb;" x="647.642355" xlink:href="#m04cfd0e99e" y="36.817077"/>
     <use style="fill:#b2d4eb;stroke:#b2d4eb;" x="670.700207" xlink:href="#m04cfd0e99e" y="39.462438"/>
     <use style="fill:#b2d4eb;stroke:#b2d4eb;" x="693.758058" xlink:href="#m04cfd0e99e" y="39.957202"/>
     <use style="fill:#b2d4eb;stroke:#b2d4eb;" x="716.815909" xlink:href="#m04cfd0e99e" y="39.291469"/>
     <use style="fill:#b2d4eb;stroke:#b2d4eb;" x="739.87376" xlink:href="#m04cfd0e99e" y="42.465553"/>
     <use style="fill:#b2d4eb;stroke:#b2d4eb;" x="762.931612" xlink:href="#m04cfd0e99e" y="42.693422"/>
     <use style="fill:#b2d4eb;stroke:#b2d4eb;" x="785.989463" xlink:href="#m04cfd0e99e" y="43.925423"/>
     <use style="fill:#b2d4eb;stroke:#b2d4eb;" x="809.047314" xlink:href="#m04cfd0e99e" y="45.319636"/>
     <use style="fill:#b2d4eb;stroke:#b2d4eb;" x="832.105165" xlink:href="#m04cfd0e99e" y="46.034716"/>
     <use style="fill:#b2d4eb;stroke:#b2d4eb;" x="855.163017" xlink:href="#m04cfd0e99e" y="46.706472"/>
     <use style="fill:#b2d4eb;stroke:#b2d4eb;" x="878.220868" xlink:href="#m04cfd0e99e" y="52.950156"/>
     <use style="fill:#b2d4eb;stroke:#b2d4eb;" x="901.278719" xlink:href="#m04cfd0e99e" y="55.375365"/>
    </g>
   </g>
   <g id="patch_6">
    <path d="M 513.906818 241.462 
L 513.906818 24.022 
" style="fill:none;stroke:#000000;stroke-linecap:square;stroke-linejoin:miter;stroke-width:0.8;"/>
   </g>
   <g id="patch_7">
    <path d="M 919.725 241.462 
L 919.725 24.022 
" style="fill:none;stroke:#000000;stroke-linecap:square;stroke-linejoin:miter;stroke-width:0.8;"/>
   </g>
   <g id="patch_8">
    <path d="M 513.906818 241.462 
L 919.725 241.462 
" style="fill:none;stroke:#000000;stroke-linecap:square;stroke-linejoin:miter;stroke-width:0.8;"/>
   </g>
   <g id="patch_9">
    <path d="M 513.906818 24.022 
L 919.725 24.022 
" style="fill:none;stroke:#000000;stroke-linecap:square;stroke-linejoin:miter;stroke-width:0.8;"/>
   </g>
  </g>
  <g id="axes_3">
   <g id="matplotlib.axis_3">
    <g id="xtick_1">
     <g id="line2d_18">
      <defs>
       <path d="M 0 0 
L 0 3.5 
" id="m4794bcaa9e" style="stroke:#000000;stroke-width:0.8;"/>
      </defs>
      <g>
       <use style="stroke:#000000;stroke-width:0.8;" x="45.371281" xlink:href="#m4794bcaa9e" y="241.462"/>
      </g>
     </g>
     <g id="text_16">
      <!-- 0 -->
      <g transform="translate(42.190031 256.060437)scale(0.1 -0.1)">
       <use xlink:href="#DejaVuSans-48"/>
      </g>
     </g>
    </g>
    <g id="xtick_2">
     <g id="line2d_19">
      <g>
       <use style="stroke:#000000;stroke-width:0.8;" x="91.486983" xlink:href="#m4794bcaa9e" y="241.462"/>
      </g>
     </g>
     <g id="text_17">
      <!-- 2 -->
      <g transform="translate(88.305733 256.060437)scale(0.1 -0.1)">
       <use xlink:href="#DejaVuSans-50"/>
      </g>
     </g>
    </g>
    <g id="xtick_3">
     <g id="line2d_20">
      <g>
       <use style="stroke:#000000;stroke-width:0.8;" x="137.602686" xlink:href="#m4794bcaa9e" y="241.462"/>
      </g>
     </g>
     <g id="text_18">
      <!-- 4 -->
      <g transform="translate(134.421436 256.060437)scale(0.1 -0.1)">
       <use xlink:href="#DejaVuSans-52"/>
      </g>
     </g>
    </g>
    <g id="xtick_4">
     <g id="line2d_21">
      <g>
       <use style="stroke:#000000;stroke-width:0.8;" x="183.718388" xlink:href="#m4794bcaa9e" y="241.462"/>
      </g>
     </g>
     <g id="text_19">
      <!-- 6 -->
      <g transform="translate(180.537138 256.060437)scale(0.1 -0.1)">
       <use xlink:href="#DejaVuSans-54"/>
      </g>
     </g>
    </g>
    <g id="xtick_5">
     <g id="line2d_22">
      <g>
       <use style="stroke:#000000;stroke-width:0.8;" x="229.834091" xlink:href="#m4794bcaa9e" y="241.462"/>
      </g>
     </g>
     <g id="text_20">
      <!-- 8 -->
      <g transform="translate(226.652841 256.060437)scale(0.1 -0.1)">
       <use xlink:href="#DejaVuSans-56"/>
      </g>
     </g>
    </g>
    <g id="xtick_6">
     <g id="line2d_23">
      <g>
       <use style="stroke:#000000;stroke-width:0.8;" x="275.949793" xlink:href="#m4794bcaa9e" y="241.462"/>
      </g>
     </g>
     <g id="text_21">
      <!-- 10 -->
      <g transform="translate(269.587293 256.060437)scale(0.1 -0.1)">
       <use xlink:href="#DejaVuSans-49"/>
       <use x="63.623047" xlink:href="#DejaVuSans-48"/>
      </g>
     </g>
    </g>
    <g id="xtick_7">
     <g id="line2d_24">
      <g>
       <use style="stroke:#000000;stroke-width:0.8;" x="322.065496" xlink:href="#m4794bcaa9e" y="241.462"/>
      </g>
     </g>
     <g id="text_22">
      <!-- 12 -->
      <g transform="translate(315.702996 256.060437)scale(0.1 -0.1)">
       <use xlink:href="#DejaVuSans-49"/>
       <use x="63.623047" xlink:href="#DejaVuSans-50"/>
      </g>
     </g>
    </g>
    <g id="xtick_8">
     <g id="line2d_25">
      <g>
       <use style="stroke:#000000;stroke-width:0.8;" x="368.181198" xlink:href="#m4794bcaa9e" y="241.462"/>
      </g>
     </g>
     <g id="text_23">
      <!-- 14 -->
      <g transform="translate(361.818698 256.060437)scale(0.1 -0.1)">
       <use xlink:href="#DejaVuSans-49"/>
       <use x="63.623047" xlink:href="#DejaVuSans-52"/>
      </g>
     </g>
    </g>
    <g id="xtick_9">
     <g id="line2d_26">
      <g>
       <use style="stroke:#000000;stroke-width:0.8;" x="414.296901" xlink:href="#m4794bcaa9e" y="241.462"/>
      </g>
     </g>
     <g id="text_24">
      <!-- 16 -->
      <g transform="translate(407.934401 256.060437)scale(0.1 -0.1)">
       <use xlink:href="#DejaVuSans-49"/>
       <use x="63.623047" xlink:href="#DejaVuSans-54"/>
      </g>
     </g>
    </g>
    <g id="text_25">
     <!-- residual branch -->
     <g transform="translate(191.055185 269.738562)scale(0.1 -0.1)">
      <defs>
       <path d="M 41.109375 46.296875 
Q 39.59375 47.171875 37.8125 47.578125 
Q 36.03125 48 33.890625 48 
Q 26.265625 48 22.1875 43.046875 
Q 18.109375 38.09375 18.109375 28.8125 
L 18.109375 0 
L 9.078125 0 
L 9.078125 54.6875 
L 18.109375 54.6875 
L 18.109375 46.1875 
Q 20.953125 51.171875 25.484375 53.578125 
Q 30.03125 56 36.53125 56 
Q 37.453125 56 38.578125 55.875 
Q 39.703125 55.765625 41.0625 55.515625 
z
" id="DejaVuSans-114"/>
       <path d="M 56.203125 29.59375 
L 56.203125 25.203125 
L 14.890625 25.203125 
Q 15.484375 15.921875 20.484375 11.0625 
Q 25.484375 6.203125 34.421875 6.203125 
Q 39.59375 6.203125 44.453125 7.46875 
Q 49.3125 8.734375 54.109375 11.28125 
L 54.109375 2.78125 
Q 49.265625 0.734375 44.1875 -0.34375 
Q 39.109375 -1.421875 33.890625 -1.421875 
Q 20.796875 -1.421875 13.15625 6.1875 
Q 5.515625 13.8125 5.515625 26.8125 
Q 5.515625 40.234375 12.765625 48.109375 
Q 20.015625 56 32.328125 56 
Q 43.359375 56 49.78125 48.890625 
Q 56.203125 41.796875 56.203125 29.59375 
z
M 47.21875 32.234375 
Q 47.125 39.59375 43.09375 43.984375 
Q 39.0625 48.390625 32.421875 48.390625 
Q 24.90625 48.390625 20.390625 44.140625 
Q 15.875 39.890625 15.1875 32.171875 
z
" id="DejaVuSans-101"/>
       <path d="M 44.28125 53.078125 
L 44.28125 44.578125 
Q 40.484375 46.53125 36.375 47.5 
Q 32.28125 48.484375 27.875 48.484375 
Q 21.1875 48.484375 17.84375 46.4375 
Q 14.5 44.390625 14.5 40.28125 
Q 14.5 37.15625 16.890625 35.375 
Q 19.28125 33.59375 26.515625 31.984375 
L 29.59375 31.296875 
Q 39.15625 29.25 43.1875 25.515625 
Q 47.21875 21.78125 47.21875 15.09375 
Q 47.21875 7.46875 41.1875 3.015625 
Q 35.15625 -1.421875 24.609375 -1.421875 
Q 20.21875 -1.421875 15.453125 -0.5625 
Q 10.6875 0.296875 5.421875 2 
L 5.421875 11.28125 
Q 10.40625 8.6875 15.234375 7.390625 
Q 20.0625 6.109375 24.8125 6.109375 
Q 31.15625 6.109375 34.5625 8.28125 
Q 37.984375 10.453125 37.984375 14.40625 
Q 37.984375 18.0625 35.515625 20.015625 
Q 33.0625 21.96875 24.703125 23.78125 
L 21.578125 24.515625 
Q 13.234375 26.265625 9.515625 29.90625 
Q 5.8125 33.546875 5.8125 39.890625 
Q 5.8125 47.609375 11.28125 51.796875 
Q 16.75 56 26.8125 56 
Q 31.78125 56 36.171875 55.265625 
Q 40.578125 54.546875 44.28125 53.078125 
z
" id="DejaVuSans-115"/>
       <path d="M 9.421875 54.6875 
L 18.40625 54.6875 
L 18.40625 0 
L 9.421875 0 
z
M 9.421875 75.984375 
L 18.40625 75.984375 
L 18.40625 64.59375 
L 9.421875 64.59375 
z
" id="DejaVuSans-105"/>
       <path d="M 45.40625 46.390625 
L 45.40625 75.984375 
L 54.390625 75.984375 
L 54.390625 0 
L 45.40625 0 
L 45.40625 8.203125 
Q 42.578125 3.328125 38.25 0.953125 
Q 33.9375 -1.421875 27.875 -1.421875 
Q 17.96875 -1.421875 11.734375 6.484375 
Q 5.515625 14.40625 5.515625 27.296875 
Q 5.515625 40.1875 11.734375 48.09375 
Q 17.96875 56 27.875 56 
Q 33.9375 56 38.25 53.625 
Q 42.578125 51.265625 45.40625 46.390625 
z
M 14.796875 27.296875 
Q 14.796875 17.390625 18.875 11.75 
Q 22.953125 6.109375 30.078125 6.109375 
Q 37.203125 6.109375 41.296875 11.75 
Q 45.40625 17.390625 45.40625 27.296875 
Q 45.40625 37.203125 41.296875 42.84375 
Q 37.203125 48.484375 30.078125 48.484375 
Q 22.953125 48.484375 18.875 42.84375 
Q 14.796875 37.203125 14.796875 27.296875 
z
" id="DejaVuSans-100"/>
       <path d="M 8.5 21.578125 
L 8.5 54.6875 
L 17.484375 54.6875 
L 17.484375 21.921875 
Q 17.484375 14.15625 20.5 10.265625 
Q 23.53125 6.390625 29.59375 6.390625 
Q 36.859375 6.390625 41.078125 11.03125 
Q 45.3125 15.671875 45.3125 23.6875 
L 45.3125 54.6875 
L 54.296875 54.6875 
L 54.296875 0 
L 45.3125 0 
L 45.3125 8.40625 
Q 42.046875 3.421875 37.71875 1 
Q 33.40625 -1.421875 27.6875 -1.421875 
Q 18.265625 -1.421875 13.375 4.4375 
Q 8.5 10.296875 8.5 21.578125 
z
M 31.109375 56 
z
" id="DejaVuSans-117"/>
       <path d="M 34.28125 27.484375 
Q 23.390625 27.484375 19.1875 25 
Q 14.984375 22.515625 14.984375 16.5 
Q 14.984375 11.71875 18.140625 8.90625 
Q 21.296875 6.109375 26.703125 6.109375 
Q 34.1875 6.109375 38.703125 11.40625 
Q 43.21875 16.703125 43.21875 25.484375 
L 43.21875 27.484375 
z
M 52.203125 31.203125 
L 52.203125 0 
L 43.21875 0 
L 43.21875 8.296875 
Q 40.140625 3.328125 35.546875 0.953125 
Q 30.953125 -1.421875 24.3125 -1.421875 
Q 15.921875 -1.421875 10.953125 3.296875 
Q 6 8.015625 6 15.921875 
Q 6 25.140625 12.171875 29.828125 
Q 18.359375 34.515625 30.609375 34.515625 
L 43.21875 34.515625 
L 43.21875 35.40625 
Q 43.21875 41.609375 39.140625 45 
Q 35.0625 48.390625 27.6875 48.390625 
Q 23 48.390625 18.546875 47.265625 
Q 14.109375 46.140625 10.015625 43.890625 
L 10.015625 52.203125 
Q 14.9375 54.109375 19.578125 55.046875 
Q 24.21875 56 28.609375 56 
Q 40.484375 56 46.34375 49.84375 
Q 52.203125 43.703125 52.203125 31.203125 
z
" id="DejaVuSans-97"/>
       <path d="M 9.421875 75.984375 
L 18.40625 75.984375 
L 18.40625 0 
L 9.421875 0 
z
" id="DejaVuSans-108"/>
       <path id="DejaVuSans-32"/>
       <path d="M 48.6875 27.296875 
Q 48.6875 37.203125 44.609375 42.84375 
Q 40.53125 48.484375 33.40625 48.484375 
Q 26.265625 48.484375 22.1875 42.84375 
Q 18.109375 37.203125 18.109375 27.296875 
Q 18.109375 17.390625 22.1875 11.75 
Q 26.265625 6.109375 33.40625 6.109375 
Q 40.53125 6.109375 44.609375 11.75 
Q 48.6875 17.390625 48.6875 27.296875 
z
M 18.109375 46.390625 
Q 20.953125 51.265625 25.265625 53.625 
Q 29.59375 56 35.59375 56 
Q 45.5625 56 51.78125 48.09375 
Q 58.015625 40.1875 58.015625 27.296875 
Q 58.015625 14.40625 51.78125 6.484375 
Q 45.5625 -1.421875 35.59375 -1.421875 
Q 29.59375 -1.421875 25.265625 0.953125 
Q 20.953125 3.328125 18.109375 8.203125 
L 18.109375 0 
L 9.078125 0 
L 9.078125 75.984375 
L 18.109375 75.984375 
z
" id="DejaVuSans-98"/>
       <path d="M 54.890625 33.015625 
L 54.890625 0 
L 45.90625 0 
L 45.90625 32.71875 
Q 45.90625 40.484375 42.875 44.328125 
Q 39.84375 48.1875 33.796875 48.1875 
Q 26.515625 48.1875 22.3125 43.546875 
Q 18.109375 38.921875 18.109375 30.90625 
L 18.109375 0 
L 9.078125 0 
L 9.078125 54.6875 
L 18.109375 54.6875 
L 18.109375 46.1875 
Q 21.34375 51.125 25.703125 53.5625 
Q 30.078125 56 35.796875 56 
Q 45.21875 56 50.046875 50.171875 
Q 54.890625 44.34375 54.890625 33.015625 
z
" id="DejaVuSans-110"/>
       <path d="M 48.78125 52.59375 
L 48.78125 44.1875 
Q 44.96875 46.296875 41.140625 47.34375 
Q 37.3125 48.390625 33.40625 48.390625 
Q 24.65625 48.390625 19.8125 42.84375 
Q 14.984375 37.3125 14.984375 27.296875 
Q 14.984375 17.28125 19.8125 11.734375 
Q 24.65625 6.203125 33.40625 6.203125 
Q 37.3125 6.203125 41.140625 7.25 
Q 44.96875 8.296875 48.78125 10.40625 
L 48.78125 2.09375 
Q 45.015625 0.34375 40.984375 -0.53125 
Q 36.96875 -1.421875 32.421875 -1.421875 
Q 20.0625 -1.421875 12.78125 6.34375 
Q 5.515625 14.109375 5.515625 27.296875 
Q 5.515625 40.671875 12.859375 48.328125 
Q 20.21875 56 33.015625 56 
Q 37.15625 56 41.109375 55.140625 
Q 45.0625 54.296875 48.78125 52.59375 
z
" id="DejaVuSans-99"/>
       <path d="M 54.890625 33.015625 
L 54.890625 0 
L 45.90625 0 
L 45.90625 32.71875 
Q 45.90625 40.484375 42.875 44.328125 
Q 39.84375 48.1875 33.796875 48.1875 
Q 26.515625 48.1875 22.3125 43.546875 
Q 18.109375 38.921875 18.109375 30.90625 
L 18.109375 0 
L 9.078125 0 
L 9.078125 75.984375 
L 18.109375 75.984375 
L 18.109375 46.1875 
Q 21.34375 51.125 25.703125 53.5625 
Q 30.078125 56 35.796875 56 
Q 45.21875 56 50.046875 50.171875 
Q 54.890625 44.34375 54.890625 33.015625 
z
" id="DejaVuSans-104"/>
      </defs>
      <use xlink:href="#DejaVuSans-114"/>
      <use x="38.863281" xlink:href="#DejaVuSans-101"/>
      <use x="100.386719" xlink:href="#DejaVuSans-115"/>
      <use x="152.486328" xlink:href="#DejaVuSans-105"/>
      <use x="180.269531" xlink:href="#DejaVuSans-100"/>
      <use x="243.746094" xlink:href="#DejaVuSans-117"/>
      <use x="307.125" xlink:href="#DejaVuSans-97"/>
      <use x="368.404297" xlink:href="#DejaVuSans-108"/>
      <use x="396.1875" xlink:href="#DejaVuSans-32"/>
      <use x="427.974609" xlink:href="#DejaVuSans-98"/>
      <use x="491.451172" xlink:href="#DejaVuSans-114"/>
      <use x="532.564453" xlink:href="#DejaVuSans-97"/>
      <use x="593.84375" xlink:href="#DejaVuSans-110"/>
      <use x="657.222656" xlink:href="#DejaVuSans-99"/>
      <use x="712.203125" xlink:href="#DejaVuSans-104"/>
     </g>
    </g>
   </g>
   <g id="matplotlib.axis_4">
    <g id="ytick_14">
     <g id="line2d_27">
      <defs>
       <path d="M 0 0 
L -3.5 0 
" id="m748998d5be" style="stroke:#000000;stroke-width:0.8;"/>
      </defs>
      <g>
       <use style="stroke:#000000;stroke-width:0.8;" x="26.925" xlink:href="#m748998d5be" y="233.645087"/>
      </g>
     </g>
     <g id="text_26">
      <!-- 0 -->
      <g transform="translate(13.5625 237.444306)scale(0.1 -0.1)">
       <use xlink:href="#DejaVuSans-48"/>
      </g>
     </g>
    </g>
    <g id="ytick_15">
     <g id="line2d_28">
      <g>
       <use style="stroke:#000000;stroke-width:0.8;" x="26.925" xlink:href="#m748998d5be" y="204.804892"/>
      </g>
     </g>
     <g id="text_27">
      <!-- 5 -->
      <g transform="translate(13.5625 208.604111)scale(0.1 -0.1)">
       <defs>
        <path d="M 10.796875 72.90625 
L 49.515625 72.90625 
L 49.515625 64.59375 
L 19.828125 64.59375 
L 19.828125 46.734375 
Q 21.96875 47.46875 24.109375 47.828125 
Q 26.265625 48.1875 28.421875 48.1875 
Q 40.625 48.1875 47.75 41.5 
Q 54.890625 34.8125 54.890625 23.390625 
Q 54.890625 11.625 47.5625 5.09375 
Q 40.234375 -1.421875 26.90625 -1.421875 
Q 22.3125 -1.421875 17.546875 -0.640625 
Q 12.796875 0.140625 7.71875 1.703125 
L 7.71875 11.625 
Q 12.109375 9.234375 16.796875 8.0625 
Q 21.484375 6.890625 26.703125 6.890625 
Q 35.15625 6.890625 40.078125 11.328125 
Q 45.015625 15.765625 45.015625 23.390625 
Q 45.015625 31 40.078125 35.4375 
Q 35.15625 39.890625 26.703125 39.890625 
Q 22.75 39.890625 18.8125 39.015625 
Q 14.890625 38.140625 10.796875 36.28125 
z
" id="DejaVuSans-53"/>
       </defs>
       <use xlink:href="#DejaVuSans-53"/>
      </g>
     </g>
    </g>
    <g id="ytick_16">
     <g id="line2d_29">
      <g>
       <use style="stroke:#000000;stroke-width:0.8;" x="26.925" xlink:href="#m748998d5be" y="175.964697"/>
      </g>
     </g>
     <g id="text_28">
      <!-- 10 -->
      <g transform="translate(7.2 179.763916)scale(0.1 -0.1)">
       <use xlink:href="#DejaVuSans-49"/>
       <use x="63.623047" xlink:href="#DejaVuSans-48"/>
      </g>
     </g>
    </g>
    <g id="ytick_17">
     <g id="line2d_30">
      <g>
       <use style="stroke:#000000;stroke-width:0.8;" x="26.925" xlink:href="#m748998d5be" y="147.124503"/>
      </g>
     </g>
     <g id="text_29">
      <!-- 15 -->
      <g transform="translate(7.2 150.923721)scale(0.1 -0.1)">
       <use xlink:href="#DejaVuSans-49"/>
       <use x="63.623047" xlink:href="#DejaVuSans-53"/>
      </g>
     </g>
    </g>
    <g id="ytick_18">
     <g id="line2d_31">
      <g>
       <use style="stroke:#000000;stroke-width:0.8;" x="26.925" xlink:href="#m748998d5be" y="118.284308"/>
      </g>
     </g>
     <g id="text_30">
      <!-- 20 -->
      <g transform="translate(7.2 122.083526)scale(0.1 -0.1)">
       <use xlink:href="#DejaVuSans-50"/>
       <use x="63.623047" xlink:href="#DejaVuSans-48"/>
      </g>
     </g>
    </g>
    <g id="ytick_19">
     <g id="line2d_32">
      <g>
       <use style="stroke:#000000;stroke-width:0.8;" x="26.925" xlink:href="#m748998d5be" y="89.444113"/>
      </g>
     </g>
     <g id="text_31">
      <!-- 25 -->
      <g transform="translate(7.2 93.243331)scale(0.1 -0.1)">
       <use xlink:href="#DejaVuSans-50"/>
       <use x="63.623047" xlink:href="#DejaVuSans-53"/>
      </g>
     </g>
    </g>
    <g id="ytick_20">
     <g id="line2d_33">
      <g>
       <use style="stroke:#000000;stroke-width:0.8;" x="26.925" xlink:href="#m748998d5be" y="60.603918"/>
      </g>
     </g>
     <g id="text_32">
      <!-- 30 -->
      <g transform="translate(7.2 64.403137)scale(0.1 -0.1)">
       <defs>
        <path d="M 40.578125 39.3125 
Q 47.65625 37.796875 51.625 33 
Q 55.609375 28.21875 55.609375 21.1875 
Q 55.609375 10.40625 48.1875 4.484375 
Q 40.765625 -1.421875 27.09375 -1.421875 
Q 22.515625 -1.421875 17.65625 -0.515625 
Q 12.796875 0.390625 7.625 2.203125 
L 7.625 11.71875 
Q 11.71875 9.328125 16.59375 8.109375 
Q 21.484375 6.890625 26.8125 6.890625 
Q 36.078125 6.890625 40.9375 10.546875 
Q 45.796875 14.203125 45.796875 21.1875 
Q 45.796875 27.640625 41.28125 31.265625 
Q 36.765625 34.90625 28.71875 34.90625 
L 20.21875 34.90625 
L 20.21875 43.015625 
L 29.109375 43.015625 
Q 36.375 43.015625 40.234375 45.921875 
Q 44.09375 48.828125 44.09375 54.296875 
Q 44.09375 59.90625 40.109375 62.90625 
Q 36.140625 65.921875 28.71875 65.921875 
Q 24.65625 65.921875 20.015625 65.03125 
Q 15.375 64.15625 9.8125 62.3125 
L 9.8125 71.09375 
Q 15.4375 72.65625 20.34375 73.4375 
Q 25.25 74.21875 29.59375 74.21875 
Q 40.828125 74.21875 47.359375 69.109375 
Q 53.90625 64.015625 53.90625 55.328125 
Q 53.90625 49.265625 50.4375 45.09375 
Q 46.96875 40.921875 40.578125 39.3125 
z
" id="DejaVuSans-51"/>
       </defs>
       <use xlink:href="#DejaVuSans-51"/>
       <use x="63.623047" xlink:href="#DejaVuSans-48"/>
      </g>
     </g>
    </g>
    <g id="ytick_21">
     <g id="line2d_34">
      <g>
       <use style="stroke:#000000;stroke-width:0.8;" x="26.925" xlink:href="#m748998d5be" y="31.763723"/>
      </g>
     </g>
     <g id="text_33">
      <!-- 35 -->
      <g transform="translate(7.2 35.562942)scale(0.1 -0.1)">
       <use xlink:href="#DejaVuSans-51"/>
       <use x="63.623047" xlink:href="#DejaVuSans-53"/>
      </g>
     </g>
    </g>
   </g>
   <g id="line2d_35">
    <path clip-path="url(#p48394a9c61)" d="M 45.371281 220.953862 
L 68.429132 205.32773 
L 91.486983 204.230155 
L 114.544835 203.460927 
L 137.602686 229.943893 
L 160.660537 228.299254 
L 183.718388 226.016597 
L 206.77624 224.458622 
L 229.834091 229.898944 
L 252.891942 228.469908 
L 275.949793 226.983608 
L 299.007645 225.165877 
L 322.065496 223.039319 
L 345.123347 221.046752 
L 368.181198 229.939688 
L 391.23905 228.162645 
L 414.296901 226.116484 
" style="fill:none;stroke:#7d828c;stroke-dasharray:5.55,2.4;stroke-dashoffset:0;stroke-width:1.5;"/>
    <defs>
     <path d="M -1.5 -2.598076 
L -3 -0 
L -1.5 2.598076 
L 1.5 2.598076 
L 3 0 
L 1.5 -2.598076 
z
" id="m531124cb3a" style="stroke:#7d828c;stroke-linejoin:miter;"/>
    </defs>
    <g clip-path="url(#p48394a9c61)">
     <use style="fill:#ffffff;stroke:#7d828c;stroke-linejoin:miter;" x="45.371281" xlink:href="#m531124cb3a" y="220.953862"/>
     <use style="fill:#ffffff;stroke:#7d828c;stroke-linejoin:miter;" x="68.429132" xlink:href="#m531124cb3a" y="205.32773"/>
     <use style="fill:#ffffff;stroke:#7d828c;stroke-linejoin:miter;" x="91.486983" xlink:href="#m531124cb3a" y="204.230155"/>
     <use style="fill:#ffffff;stroke:#7d828c;stroke-linejoin:miter;" x="114.544835" xlink:href="#m531124cb3a" y="203.460927"/>
     <use style="fill:#ffffff;stroke:#7d828c;stroke-linejoin:miter;" x="137.602686" xlink:href="#m531124cb3a" y="229.943893"/>
     <use style="fill:#ffffff;stroke:#7d828c;stroke-linejoin:miter;" x="160.660537" xlink:href="#m531124cb3a" y="228.299254"/>
     <use style="fill:#ffffff;stroke:#7d828c;stroke-linejoin:miter;" x="183.718388" xlink:href="#m531124cb3a" y="226.016597"/>
     <use style="fill:#ffffff;stroke:#7d828c;stroke-linejoin:miter;" x="206.77624" xlink:href="#m531124cb3a" y="224.458622"/>
     <use style="fill:#ffffff;stroke:#7d828c;stroke-linejoin:miter;" x="229.834091" xlink:href="#m531124cb3a" y="229.898944"/>
     <use style="fill:#ffffff;stroke:#7d828c;stroke-linejoin:miter;" x="252.891942" xlink:href="#m531124cb3a" y="228.469908"/>
     <use style="fill:#ffffff;stroke:#7d828c;stroke-linejoin:miter;" x="275.949793" xlink:href="#m531124cb3a" y="226.983608"/>
     <use style="fill:#ffffff;stroke:#7d828c;stroke-linejoin:miter;" x="299.007645" xlink:href="#m531124cb3a" y="225.165877"/>
     <use style="fill:#ffffff;stroke:#7d828c;stroke-linejoin:miter;" x="322.065496" xlink:href="#m531124cb3a" y="223.039319"/>
     <use style="fill:#ffffff;stroke:#7d828c;stroke-linejoin:miter;" x="345.123347" xlink:href="#m531124cb3a" y="221.046752"/>
     <use style="fill:#ffffff;stroke:#7d828c;stroke-linejoin:miter;" x="368.181198" xlink:href="#m531124cb3a" y="229.939688"/>
     <use style="fill:#ffffff;stroke:#7d828c;stroke-linejoin:miter;" x="391.23905" xlink:href="#m531124cb3a" y="228.162645"/>
     <use style="fill:#ffffff;stroke:#7d828c;stroke-linejoin:miter;" x="414.296901" xlink:href="#m531124cb3a" y="226.116484"/>
    </g>
   </g>
   <g id="line2d_36">
    <path clip-path="url(#p48394a9c61)" d="M 45.371281 231.578364 
L 68.429132 225.51526 
L 91.486983 221.521343 
L 114.544835 217.606425 
L 137.602686 225.726743 
L 160.660537 221.782177 
L 183.718388 217.850496 
L 206.77624 213.879577 
L 229.834091 225.785766 
L 252.891942 221.860878 
L 275.949793 217.900393 
L 299.007645 213.961303 
L 322.065496 210.017413 
L 345.123347 206.063851 
L 368.181198 225.77002 
L 391.23905 221.824834 
L 414.296901 217.871931 
" style="fill:none;stroke:#7d828c;stroke-linecap:square;stroke-width:1.5;"/>
    <defs>
     <path d="M -0 4.242641 
L 4.242641 0 
L 0 -4.242641 
L -4.242641 -0 
z
" id="mba43d57699" style="stroke:#7d828c;stroke-linejoin:miter;"/>
    </defs>
    <g clip-path="url(#p48394a9c61)">
     <use style="fill:#7d828c;stroke:#7d828c;stroke-linejoin:miter;" x="45.371281" xlink:href="#mba43d57699" y="231.578364"/>
     <use style="fill:#7d828c;stroke:#7d828c;stroke-linejoin:miter;" x="68.429132" xlink:href="#mba43d57699" y="225.51526"/>
     <use style="fill:#7d828c;stroke:#7d828c;stroke-linejoin:miter;" x="91.486983" xlink:href="#mba43d57699" y="221.521343"/>
     <use style="fill:#7d828c;stroke:#7d828c;stroke-linejoin:miter;" x="114.544835" xlink:href="#mba43d57699" y="217.606425"/>
     <use style="fill:#7d828c;stroke:#7d828c;stroke-linejoin:miter;" x="137.602686" xlink:href="#mba43d57699" y="225.726743"/>
     <use style="fill:#7d828c;stroke:#7d828c;stroke-linejoin:miter;" x="160.660537" xlink:href="#mba43d57699" y="221.782177"/>
     <use style="fill:#7d828c;stroke:#7d828c;stroke-linejoin:miter;" x="183.718388" xlink:href="#mba43d57699" y="217.850496"/>
     <use style="fill:#7d828c;stroke:#7d828c;stroke-linejoin:miter;" x="206.77624" xlink:href="#mba43d57699" y="213.879577"/>
     <use style="fill:#7d828c;stroke:#7d828c;stroke-linejoin:miter;" x="229.834091" xlink:href="#mba43d57699" y="225.785766"/>
     <use style="fill:#7d828c;stroke:#7d828c;stroke-linejoin:miter;" x="252.891942" xlink:href="#mba43d57699" y="221.860878"/>
     <use style="fill:#7d828c;stroke:#7d828c;stroke-linejoin:miter;" x="275.949793" xlink:href="#mba43d57699" y="217.900393"/>
     <use style="fill:#7d828c;stroke:#7d828c;stroke-linejoin:miter;" x="299.007645" xlink:href="#mba43d57699" y="213.961303"/>
     <use style="fill:#7d828c;stroke:#7d828c;stroke-linejoin:miter;" x="322.065496" xlink:href="#mba43d57699" y="210.017413"/>
     <use style="fill:#7d828c;stroke:#7d828c;stroke-linejoin:miter;" x="345.123347" xlink:href="#mba43d57699" y="206.063851"/>
     <use style="fill:#7d828c;stroke:#7d828c;stroke-linejoin:miter;" x="368.181198" xlink:href="#mba43d57699" y="225.77002"/>
     <use style="fill:#7d828c;stroke:#7d828c;stroke-linejoin:miter;" x="391.23905" xlink:href="#mba43d57699" y="221.824834"/>
     <use style="fill:#7d828c;stroke:#7d828c;stroke-linejoin:miter;" x="414.296901" xlink:href="#mba43d57699" y="217.871931"/>
    </g>
   </g>
   <g id="line2d_37">
    <path clip-path="url(#p48394a9c61)" d="M 45.371281 208.024581 
L 68.429132 152.625454 
L 91.486983 134.385723 
L 114.544835 103.689438 
L 137.602686 178.325577 
L 160.660537 152.197033 
L 183.718388 127.46251 
L 206.77624 105.247911 
L 229.834091 175.55779 
L 252.891942 144.648458 
L 275.949793 122.707008 
L 299.007645 93.247882 
L 322.065496 59.11239 
L 345.123347 33.905636 
L 368.181198 175.941176 
L 391.23905 151.288774 
L 414.296901 131.900723 
" style="fill:none;stroke:#0084bb;stroke-dasharray:5.55,2.4;stroke-dashoffset:0;stroke-width:1.5;"/>
    <defs>
     <path d="M -1.5 -2.598076 
L -3 -0 
L -1.5 2.598076 
L 1.5 2.598076 
L 3 0 
L 1.5 -2.598076 
z
" id="m42690aacbc" style="stroke:#0084bb;stroke-linejoin:miter;"/>
    </defs>
    <g clip-path="url(#p48394a9c61)">
     <use style="fill:#ffffff;stroke:#0084bb;stroke-linejoin:miter;" x="45.371281" xlink:href="#m42690aacbc" y="208.024581"/>
     <use style="fill:#ffffff;stroke:#0084bb;stroke-linejoin:miter;" x="68.429132" xlink:href="#m42690aacbc" y="152.625454"/>
     <use style="fill:#ffffff;stroke:#0084bb;stroke-linejoin:miter;" x="91.486983" xlink:href="#m42690aacbc" y="134.385723"/>
     <use style="fill:#ffffff;stroke:#0084bb;stroke-linejoin:miter;" x="114.544835" xlink:href="#m42690aacbc" y="103.689438"/>
     <use style="fill:#ffffff;stroke:#0084bb;stroke-linejoin:miter;" x="137.602686" xlink:href="#m42690aacbc" y="178.325577"/>
     <use style="fill:#ffffff;stroke:#0084bb;stroke-linejoin:miter;" x="160.660537" xlink:href="#m42690aacbc" y="152.197033"/>
     <use style="fill:#ffffff;stroke:#0084bb;stroke-linejoin:miter;" x="183.718388" xlink:href="#m42690aacbc" y="127.46251"/>
     <use style="fill:#ffffff;stroke:#0084bb;stroke-linejoin:miter;" x="206.77624" xlink:href="#m42690aacbc" y="105.247911"/>
     <use style="fill:#ffffff;stroke:#0084bb;stroke-linejoin:miter;" x="229.834091" xlink:href="#m42690aacbc" y="175.55779"/>
     <use style="fill:#ffffff;stroke:#0084bb;stroke-linejoin:miter;" x="252.891942" xlink:href="#m42690aacbc" y="144.648458"/>
     <use style="fill:#ffffff;stroke:#0084bb;stroke-linejoin:miter;" x="275.949793" xlink:href="#m42690aacbc" y="122.707008"/>
     <use style="fill:#ffffff;stroke:#0084bb;stroke-linejoin:miter;" x="299.007645" xlink:href="#m42690aacbc" y="93.247882"/>
     <use style="fill:#ffffff;stroke:#0084bb;stroke-linejoin:miter;" x="322.065496" xlink:href="#m42690aacbc" y="59.11239"/>
     <use style="fill:#ffffff;stroke:#0084bb;stroke-linejoin:miter;" x="345.123347" xlink:href="#m42690aacbc" y="33.905636"/>
     <use style="fill:#ffffff;stroke:#0084bb;stroke-linejoin:miter;" x="368.181198" xlink:href="#m42690aacbc" y="175.941176"/>
     <use style="fill:#ffffff;stroke:#0084bb;stroke-linejoin:miter;" x="391.23905" xlink:href="#m42690aacbc" y="151.288774"/>
     <use style="fill:#ffffff;stroke:#0084bb;stroke-linejoin:miter;" x="414.296901" xlink:href="#m42690aacbc" y="131.900723"/>
    </g>
   </g>
   <g id="line2d_38">
    <path clip-path="url(#p48394a9c61)" d="M 45.371281 229.40161 
L 68.429132 218.186951 
L 91.486983 213.8988 
L 114.544835 209.869851 
L 137.602686 225.762386 
L 160.660537 221.899711 
L 183.718388 218.641012 
L 206.77624 215.81196 
L 229.834091 227.241639 
L 252.891942 223.661302 
L 275.949793 220.836898 
L 299.007645 217.082019 
L 322.065496 213.475964 
L 345.123347 210.784852 
L 368.181198 227.34885 
L 391.23905 223.525172 
L 414.296901 219.958431 
" style="fill:none;stroke:#0084bb;stroke-linecap:square;stroke-width:1.5;"/>
    <defs>
     <path d="M -0 4.242641 
L 4.242641 0 
L 0 -4.242641 
L -4.242641 -0 
z
" id="mb2f99334b6" style="stroke:#0084bb;stroke-linejoin:miter;"/>
    </defs>
    <g clip-path="url(#p48394a9c61)">
     <use style="fill:#0084bb;stroke:#0084bb;stroke-linejoin:miter;" x="45.371281" xlink:href="#mb2f99334b6" y="229.40161"/>
     <use style="fill:#0084bb;stroke:#0084bb;stroke-linejoin:miter;" x="68.429132" xlink:href="#mb2f99334b6" y="218.186951"/>
     <use style="fill:#0084bb;stroke:#0084bb;stroke-linejoin:miter;" x="91.486983" xlink:href="#mb2f99334b6" y="213.8988"/>
     <use style="fill:#0084bb;stroke:#0084bb;stroke-linejoin:miter;" x="114.544835" xlink:href="#mb2f99334b6" y="209.869851"/>
     <use style="fill:#0084bb;stroke:#0084bb;stroke-linejoin:miter;" x="137.602686" xlink:href="#mb2f99334b6" y="225.762386"/>
     <use style="fill:#0084bb;stroke:#0084bb;stroke-linejoin:miter;" x="160.660537" xlink:href="#mb2f99334b6" y="221.899711"/>
     <use style="fill:#0084bb;stroke:#0084bb;stroke-linejoin:miter;" x="183.718388" xlink:href="#mb2f99334b6" y="218.641012"/>
     <use style="fill:#0084bb;stroke:#0084bb;stroke-linejoin:miter;" x="206.77624" xlink:href="#mb2f99334b6" y="215.81196"/>
     <use style="fill:#0084bb;stroke:#0084bb;stroke-linejoin:miter;" x="229.834091" xlink:href="#mb2f99334b6" y="227.241639"/>
     <use style="fill:#0084bb;stroke:#0084bb;stroke-linejoin:miter;" x="252.891942" xlink:href="#mb2f99334b6" y="223.661302"/>
     <use style="fill:#0084bb;stroke:#0084bb;stroke-linejoin:miter;" x="275.949793" xlink:href="#mb2f99334b6" y="220.836898"/>
     <use style="fill:#0084bb;stroke:#0084bb;stroke-linejoin:miter;" x="299.007645" xlink:href="#mb2f99334b6" y="217.082019"/>
     <use style="fill:#0084bb;stroke:#0084bb;stroke-linejoin:miter;" x="322.065496" xlink:href="#mb2f99334b6" y="213.475964"/>
     <use style="fill:#0084bb;stroke:#0084bb;stroke-linejoin:miter;" x="345.123347" xlink:href="#mb2f99334b6" y="210.784852"/>
     <use style="fill:#0084bb;stroke:#0084bb;stroke-linejoin:miter;" x="368.181198" xlink:href="#mb2f99334b6" y="227.34885"/>
     <use style="fill:#0084bb;stroke:#0084bb;stroke-linejoin:miter;" x="391.23905" xlink:href="#mb2f99334b6" y="223.525172"/>
     <use style="fill:#0084bb;stroke:#0084bb;stroke-linejoin:miter;" x="414.296901" xlink:href="#mb2f99334b6" y="219.958431"/>
    </g>
   </g>
   <g id="text_34">
    <!-- NF-ResNet-50 (plain) -->
    <g transform="translate(167.469716 18.022)scale(0.12 -0.12)">
     <defs>
      <path d="M 9.8125 72.90625 
L 23.09375 72.90625 
L 55.421875 11.921875 
L 55.421875 72.90625 
L 64.984375 72.90625 
L 64.984375 0 
L 51.703125 0 
L 19.390625 60.984375 
L 19.390625 0 
L 9.8125 0 
z
" id="DejaVuSans-78"/>
      <path d="M 9.8125 72.90625 
L 51.703125 72.90625 
L 51.703125 64.59375 
L 19.671875 64.59375 
L 19.671875 43.109375 
L 48.578125 43.109375 
L 48.578125 34.8125 
L 19.671875 34.8125 
L 19.671875 0 
L 9.8125 0 
z
" id="DejaVuSans-70"/>
      <path d="M 4.890625 31.390625 
L 31.203125 31.390625 
L 31.203125 23.390625 
L 4.890625 23.390625 
z
" id="DejaVuSans-45"/>
      <path d="M 44.390625 34.1875 
Q 47.5625 33.109375 50.5625 29.59375 
Q 53.5625 26.078125 56.59375 19.921875 
L 66.609375 0 
L 56 0 
L 46.6875 18.703125 
Q 43.0625 26.03125 39.671875 28.421875 
Q 36.28125 30.8125 30.421875 30.8125 
L 19.671875 30.8125 
L 19.671875 0 
L 9.8125 0 
L 9.8125 72.90625 
L 32.078125 72.90625 
Q 44.578125 72.90625 50.734375 67.671875 
Q 56.890625 62.453125 56.890625 51.90625 
Q 56.890625 45.015625 53.6875 40.46875 
Q 50.484375 35.9375 44.390625 34.1875 
z
M 19.671875 64.796875 
L 19.671875 38.921875 
L 32.078125 38.921875 
Q 39.203125 38.921875 42.84375 42.21875 
Q 46.484375 45.515625 46.484375 51.90625 
Q 46.484375 58.296875 42.84375 61.546875 
Q 39.203125 64.796875 32.078125 64.796875 
z
" id="DejaVuSans-82"/>
      <path d="M 18.3125 70.21875 
L 18.3125 54.6875 
L 36.8125 54.6875 
L 36.8125 47.703125 
L 18.3125 47.703125 
L 18.3125 18.015625 
Q 18.3125 11.328125 20.140625 9.421875 
Q 21.96875 7.515625 27.59375 7.515625 
L 36.8125 7.515625 
L 36.8125 0 
L 27.59375 0 
Q 17.1875 0 13.234375 3.875 
Q 9.28125 7.765625 9.28125 18.015625 
L 9.28125 47.703125 
L 2.6875 47.703125 
L 2.6875 54.6875 
L 9.28125 54.6875 
L 9.28125 70.21875 
z
" id="DejaVuSans-116"/>
      <path d="M 31 75.875 
Q 24.46875 64.65625 21.28125 53.65625 
Q 18.109375 42.671875 18.109375 31.390625 
Q 18.109375 20.125 21.3125 9.0625 
Q 24.515625 -2 31 -13.1875 
L 23.1875 -13.1875 
Q 15.875 -1.703125 12.234375 9.375 
Q 8.59375 20.453125 8.59375 31.390625 
Q 8.59375 42.28125 12.203125 53.3125 
Q 15.828125 64.359375 23.1875 75.875 
z
" id="DejaVuSans-40"/>
      <path d="M 18.109375 8.203125 
L 18.109375 -20.796875 
L 9.078125 -20.796875 
L 9.078125 54.6875 
L 18.109375 54.6875 
L 18.109375 46.390625 
Q 20.953125 51.265625 25.265625 53.625 
Q 29.59375 56 35.59375 56 
Q 45.5625 56 51.78125 48.09375 
Q 58.015625 40.1875 58.015625 27.296875 
Q 58.015625 14.40625 51.78125 6.484375 
Q 45.5625 -1.421875 35.59375 -1.421875 
Q 29.59375 -1.421875 25.265625 0.953125 
Q 20.953125 3.328125 18.109375 8.203125 
z
M 48.6875 27.296875 
Q 48.6875 37.203125 44.609375 42.84375 
Q 40.53125 48.484375 33.40625 48.484375 
Q 26.265625 48.484375 22.1875 42.84375 
Q 18.109375 37.203125 18.109375 27.296875 
Q 18.109375 17.390625 22.1875 11.75 
Q 26.265625 6.109375 33.40625 6.109375 
Q 40.53125 6.109375 44.609375 11.75 
Q 48.6875 17.390625 48.6875 27.296875 
z
" id="DejaVuSans-112"/>
      <path d="M 8.015625 75.875 
L 15.828125 75.875 
Q 23.140625 64.359375 26.78125 53.3125 
Q 30.421875 42.28125 30.421875 31.390625 
Q 30.421875 20.453125 26.78125 9.375 
Q 23.140625 -1.703125 15.828125 -13.1875 
L 8.015625 -13.1875 
Q 14.5 -2 17.703125 9.0625 
Q 20.90625 20.125 20.90625 31.390625 
Q 20.90625 42.671875 17.703125 53.65625 
Q 14.5 64.65625 8.015625 75.875 
z
" id="DejaVuSans-41"/>
     </defs>
     <use xlink:href="#DejaVuSans-78"/>
     <use x="74.804688" xlink:href="#DejaVuSans-70"/>
     <use x="132.324219" xlink:href="#DejaVuSans-45"/>
     <use x="168.408203" xlink:href="#DejaVuSans-82"/>
     <use x="233.390625" xlink:href="#DejaVuSans-101"/>
     <use x="294.914062" xlink:href="#DejaVuSans-115"/>
     <use x="347.013672" xlink:href="#DejaVuSans-78"/>
     <use x="421.818359" xlink:href="#DejaVuSans-101"/>
     <use x="483.341797" xlink:href="#DejaVuSans-116"/>
     <use x="522.550781" xlink:href="#DejaVuSans-45"/>
     <use x="558.634766" xlink:href="#DejaVuSans-53"/>
     <use x="622.257812" xlink:href="#DejaVuSans-48"/>
     <use x="685.880859" xlink:href="#DejaVuSans-32"/>
     <use x="717.667969" xlink:href="#DejaVuSans-40"/>
     <use x="756.681641" xlink:href="#DejaVuSans-112"/>
     <use x="820.158203" xlink:href="#DejaVuSans-108"/>
     <use x="847.941406" xlink:href="#DejaVuSans-97"/>
     <use x="909.220703" xlink:href="#DejaVuSans-105"/>
     <use x="937.003906" xlink:href="#DejaVuSans-110"/>
     <use x="1000.382812" xlink:href="#DejaVuSans-41"/>
    </g>
   </g>
   <g id="legend_1">
    <g id="patch_10">
     <path d="M 364.643182 93.77825 
L 425.743182 93.77825 
Q 427.743182 93.77825 427.743182 91.77825 
L 427.743182 31.022 
Q 427.743182 29.022 425.743182 29.022 
L 364.643182 29.022 
Q 362.643182 29.022 362.643182 31.022 
L 362.643182 91.77825 
Q 362.643182 93.77825 364.643182 93.77825 
z
" style="fill:#ffffff;opacity:0.8;stroke:#cccccc;stroke-linejoin:miter;"/>
    </g>
    <g id="line2d_39">
     <path d="M 366.643182 38.622 
L 386.643182 38.622 
" style="fill:none;stroke:#7d828c;stroke-dasharray:5.55,2.4;stroke-dashoffset:0;stroke-width:1.5;"/>
    </g>
    <g id="line2d_40">
     <g>
      <use style="fill:#ffffff;stroke:#7d828c;stroke-linejoin:miter;" x="376.643182" xlink:href="#m531124cb3a" y="38.622"/>
     </g>
    </g>
    <g id="text_35">
     <!-- $\mu^2$ BN -->
     <g transform="translate(394.643182 42.122)scale(0.1 -0.1)">
      <defs>
       <path d="M -1.3125 -20.796875 
L 13.375 54.6875 
L 22.40625 54.6875 
L 15.765625 20.65625 
Q 15.578125 19.625 15.421875 18.359375 
Q 15.28125 17.09375 15.28125 15.828125 
Q 15.28125 11.28125 18.140625 8.828125 
Q 21 6.390625 26.3125 6.390625 
Q 33.546875 6.390625 37.984375 10.484375 
Q 42.4375 14.59375 44 22.796875 
L 50.203125 54.6875 
L 59.1875 54.6875 
L 51.03125 12.640625 
Q 50.828125 11.71875 50.75 11.03125 
Q 50.6875 10.359375 50.6875 9.8125 
Q 50.6875 8.296875 51.296875 7.59375 
Q 51.90625 6.890625 53.21875 6.890625 
Q 53.71875 6.890625 54.5625 7.125 
Q 55.421875 7.375 56.984375 8.015625 
L 55.609375 0.78125 
Q 53.46875 -0.296875 51.515625 -0.859375 
Q 49.5625 -1.421875 47.703125 -1.421875 
Q 44.484375 -1.421875 42.65625 0.625 
Q 40.828125 2.6875 40.828125 6.296875 
Q 38.09375 2.390625 34.296875 0.484375 
Q 30.515625 -1.421875 25.390625 -1.421875 
Q 20.84375 -1.421875 17.453125 0.671875 
Q 14.0625 2.78125 12.984375 6.203125 
L 7.71875 -20.796875 
z
" id="DejaVuSans-Oblique-956"/>
       <path d="M 19.671875 34.8125 
L 19.671875 8.109375 
L 35.5 8.109375 
Q 43.453125 8.109375 47.28125 11.40625 
Q 51.125 14.703125 51.125 21.484375 
Q 51.125 28.328125 47.28125 31.5625 
Q 43.453125 34.8125 35.5 34.8125 
z
M 19.671875 64.796875 
L 19.671875 42.828125 
L 34.28125 42.828125 
Q 41.5 42.828125 45.03125 45.53125 
Q 48.578125 48.25 48.578125 53.8125 
Q 48.578125 59.328125 45.03125 62.0625 
Q 41.5 64.796875 34.28125 64.796875 
z
M 9.8125 72.90625 
L 35.015625 72.90625 
Q 46.296875 72.90625 52.390625 68.21875 
Q 58.5 63.53125 58.5 54.890625 
Q 58.5 48.1875 55.375 44.234375 
Q 52.25 40.28125 46.1875 39.3125 
Q 53.46875 37.75 57.5 32.78125 
Q 61.53125 27.828125 61.53125 20.40625 
Q 61.53125 10.640625 54.890625 5.3125 
Q 48.25 0 35.984375 0 
L 9.8125 0 
z
" id="DejaVuSans-66"/>
      </defs>
      <use transform="translate(0 0.765625)" xlink:href="#DejaVuSans-Oblique-956"/>
      <use transform="translate(68.089193 39.046875)scale(0.7)" xlink:href="#DejaVuSans-50"/>
      <use transform="translate(115.359701 0.765625)" xlink:href="#DejaVuSans-32"/>
      <use transform="translate(147.14681 0.765625)" xlink:href="#DejaVuSans-66"/>
      <use transform="translate(215.750326 0.765625)" xlink:href="#DejaVuSans-78"/>
     </g>
    </g>
    <g id="line2d_41">
     <path d="M 366.643182 53.320437 
L 386.643182 53.320437 
" style="fill:none;stroke:#7d828c;stroke-linecap:square;stroke-width:1.5;"/>
    </g>
    <g id="line2d_42">
     <g>
      <use style="fill:#7d828c;stroke:#7d828c;stroke-linejoin:miter;" x="376.643182" xlink:href="#mba43d57699" y="53.320437"/>
     </g>
    </g>
    <g id="text_36">
     <!-- $\sigma^2$ BN -->
     <g transform="translate(394.643182 56.820437)scale(0.1 -0.1)">
      <use transform="translate(0 0.765625)" xlink:href="#DejaVuSans-Oblique-963"/>
      <use transform="translate(67.851615 39.046875)scale(0.7)" xlink:href="#DejaVuSans-50"/>
      <use transform="translate(115.122122 0.765625)" xlink:href="#DejaVuSans-32"/>
      <use transform="translate(146.909232 0.765625)" xlink:href="#DejaVuSans-66"/>
      <use transform="translate(215.512747 0.765625)" xlink:href="#DejaVuSans-78"/>
     </g>
    </g>
    <g id="line2d_43">
     <path d="M 366.643182 69.500125 
L 386.643182 69.500125 
" style="fill:none;stroke:#0084bb;stroke-dasharray:5.55,2.4;stroke-dashoffset:0;stroke-width:1.5;"/>
    </g>
    <g id="line2d_44">
     <g>
      <use style="fill:#ffffff;stroke:#0084bb;stroke-linejoin:miter;" x="376.643182" xlink:href="#m42690aacbc" y="69.500125"/>
     </g>
    </g>
    <g id="text_37">
     <!-- $\mu^2$ NF -->
     <g transform="translate(394.643182 73.000125)scale(0.1 -0.1)">
      <use transform="translate(0 0.765625)" xlink:href="#DejaVuSans-Oblique-956"/>
      <use transform="translate(68.089193 39.046875)scale(0.7)" xlink:href="#DejaVuSans-50"/>
      <use transform="translate(115.359701 0.765625)" xlink:href="#DejaVuSans-32"/>
      <use transform="translate(147.14681 0.765625)" xlink:href="#DejaVuSans-78"/>
      <use transform="translate(221.951497 0.765625)" xlink:href="#DejaVuSans-70"/>
     </g>
    </g>
    <g id="line2d_45">
     <path d="M 366.643182 84.198562 
L 386.643182 84.198562 
" style="fill:none;stroke:#0084bb;stroke-linecap:square;stroke-width:1.5;"/>
    </g>
    <g id="line2d_46">
     <g>
      <use style="fill:#0084bb;stroke:#0084bb;stroke-linejoin:miter;" x="376.643182" xlink:href="#mb2f99334b6" y="84.198562"/>
     </g>
    </g>
    <g id="text_38">
     <!-- $\sigma^2$ NF -->
     <g transform="translate(394.643182 87.698562)scale(0.1 -0.1)">
      <use transform="translate(0 0.765625)" xlink:href="#DejaVuSans-Oblique-963"/>
      <use transform="translate(67.851615 39.046875)scale(0.7)" xlink:href="#DejaVuSans-50"/>
      <use transform="translate(115.122122 0.765625)" xlink:href="#DejaVuSans-32"/>
      <use transform="translate(146.909232 0.765625)" xlink:href="#DejaVuSans-78"/>
      <use transform="translate(221.713919 0.765625)" xlink:href="#DejaVuSans-70"/>
     </g>
    </g>
   </g>
  </g>
  <g id="axes_4">
   <g id="matplotlib.axis_5">
    <g id="xtick_10">
     <g id="line2d_47">
      <g>
       <use style="stroke:#000000;stroke-width:0.8;" x="532.353099" xlink:href="#m4794bcaa9e" y="241.462"/>
      </g>
     </g>
     <g id="text_39">
      <!-- 0 -->
      <g transform="translate(529.171849 256.060437)scale(0.1 -0.1)">
       <use xlink:href="#DejaVuSans-48"/>
      </g>
     </g>
    </g>
    <g id="xtick_11">
     <g id="line2d_48">
      <g>
       <use style="stroke:#000000;stroke-width:0.8;" x="578.468802" xlink:href="#m4794bcaa9e" y="241.462"/>
      </g>
     </g>
     <g id="text_40">
      <!-- 2 -->
      <g transform="translate(575.287552 256.060437)scale(0.1 -0.1)">
       <use xlink:href="#DejaVuSans-50"/>
      </g>
     </g>
    </g>
    <g id="xtick_12">
     <g id="line2d_49">
      <g>
       <use style="stroke:#000000;stroke-width:0.8;" x="624.584504" xlink:href="#m4794bcaa9e" y="241.462"/>
      </g>
     </g>
     <g id="text_41">
      <!-- 4 -->
      <g transform="translate(621.403254 256.060437)scale(0.1 -0.1)">
       <use xlink:href="#DejaVuSans-52"/>
      </g>
     </g>
    </g>
    <g id="xtick_13">
     <g id="line2d_50">
      <g>
       <use style="stroke:#000000;stroke-width:0.8;" x="670.700207" xlink:href="#m4794bcaa9e" y="241.462"/>
      </g>
     </g>
     <g id="text_42">
      <!-- 6 -->
      <g transform="translate(667.518957 256.060437)scale(0.1 -0.1)">
       <use xlink:href="#DejaVuSans-54"/>
      </g>
     </g>
    </g>
    <g id="xtick_14">
     <g id="line2d_51">
      <g>
       <use style="stroke:#000000;stroke-width:0.8;" x="716.815909" xlink:href="#m4794bcaa9e" y="241.462"/>
      </g>
     </g>
     <g id="text_43">
      <!-- 8 -->
      <g transform="translate(713.634659 256.060437)scale(0.1 -0.1)">
       <use xlink:href="#DejaVuSans-56"/>
      </g>
     </g>
    </g>
    <g id="xtick_15">
     <g id="line2d_52">
      <g>
       <use style="stroke:#000000;stroke-width:0.8;" x="762.931612" xlink:href="#m4794bcaa9e" y="241.462"/>
      </g>
     </g>
     <g id="text_44">
      <!-- 10 -->
      <g transform="translate(756.569112 256.060437)scale(0.1 -0.1)">
       <use xlink:href="#DejaVuSans-49"/>
       <use x="63.623047" xlink:href="#DejaVuSans-48"/>
      </g>
     </g>
    </g>
    <g id="xtick_16">
     <g id="line2d_53">
      <g>
       <use style="stroke:#000000;stroke-width:0.8;" x="809.047314" xlink:href="#m4794bcaa9e" y="241.462"/>
      </g>
     </g>
     <g id="text_45">
      <!-- 12 -->
      <g transform="translate(802.684814 256.060437)scale(0.1 -0.1)">
       <use xlink:href="#DejaVuSans-49"/>
       <use x="63.623047" xlink:href="#DejaVuSans-50"/>
      </g>
     </g>
    </g>
    <g id="xtick_17">
     <g id="line2d_54">
      <g>
       <use style="stroke:#000000;stroke-width:0.8;" x="855.163017" xlink:href="#m4794bcaa9e" y="241.462"/>
      </g>
     </g>
     <g id="text_46">
      <!-- 14 -->
      <g transform="translate(848.800517 256.060437)scale(0.1 -0.1)">
       <use xlink:href="#DejaVuSans-49"/>
       <use x="63.623047" xlink:href="#DejaVuSans-52"/>
      </g>
     </g>
    </g>
    <g id="xtick_18">
     <g id="line2d_55">
      <g>
       <use style="stroke:#000000;stroke-width:0.8;" x="901.278719" xlink:href="#m4794bcaa9e" y="241.462"/>
      </g>
     </g>
     <g id="text_47">
      <!-- 16 -->
      <g transform="translate(894.916219 256.060437)scale(0.1 -0.1)">
       <use xlink:href="#DejaVuSans-49"/>
       <use x="63.623047" xlink:href="#DejaVuSans-54"/>
      </g>
     </g>
    </g>
    <g id="text_48">
     <!-- residual branch -->
     <g transform="translate(678.037003 269.738562)scale(0.1 -0.1)">
      <use xlink:href="#DejaVuSans-114"/>
      <use x="38.863281" xlink:href="#DejaVuSans-101"/>
      <use x="100.386719" xlink:href="#DejaVuSans-115"/>
      <use x="152.486328" xlink:href="#DejaVuSans-105"/>
      <use x="180.269531" xlink:href="#DejaVuSans-100"/>
      <use x="243.746094" xlink:href="#DejaVuSans-117"/>
      <use x="307.125" xlink:href="#DejaVuSans-97"/>
      <use x="368.404297" xlink:href="#DejaVuSans-108"/>
      <use x="396.1875" xlink:href="#DejaVuSans-32"/>
      <use x="427.974609" xlink:href="#DejaVuSans-98"/>
      <use x="491.451172" xlink:href="#DejaVuSans-114"/>
      <use x="532.564453" xlink:href="#DejaVuSans-97"/>
      <use x="593.84375" xlink:href="#DejaVuSans-110"/>
      <use x="657.222656" xlink:href="#DejaVuSans-99"/>
      <use x="712.203125" xlink:href="#DejaVuSans-104"/>
     </g>
    </g>
   </g>
   <g id="matplotlib.axis_6">
    <g id="ytick_22">
     <g id="line2d_56">
      <g>
       <use style="stroke:#000000;stroke-width:0.8;" x="513.906818" xlink:href="#m748998d5be" y="231.623944"/>
      </g>
     </g>
     <g id="text_49">
      <!-- 0 -->
      <g transform="translate(500.544318 235.423163)scale(0.1 -0.1)">
       <use xlink:href="#DejaVuSans-48"/>
      </g>
     </g>
    </g>
    <g id="ytick_23">
     <g id="line2d_57">
      <g>
       <use style="stroke:#000000;stroke-width:0.8;" x="513.906818" xlink:href="#m748998d5be" y="202.323985"/>
      </g>
     </g>
     <g id="text_50">
      <!-- 1 -->
      <g transform="translate(500.544318 206.123204)scale(0.1 -0.1)">
       <use xlink:href="#DejaVuSans-49"/>
      </g>
     </g>
    </g>
    <g id="ytick_24">
     <g id="line2d_58">
      <g>
       <use style="stroke:#000000;stroke-width:0.8;" x="513.906818" xlink:href="#m748998d5be" y="173.024026"/>
      </g>
     </g>
     <g id="text_51">
      <!-- 2 -->
      <g transform="translate(500.544318 176.823245)scale(0.1 -0.1)">
       <use xlink:href="#DejaVuSans-50"/>
      </g>
     </g>
    </g>
    <g id="ytick_25">
     <g id="line2d_59">
      <g>
       <use style="stroke:#000000;stroke-width:0.8;" x="513.906818" xlink:href="#m748998d5be" y="143.724067"/>
      </g>
     </g>
     <g id="text_52">
      <!-- 3 -->
      <g transform="translate(500.544318 147.523286)scale(0.1 -0.1)">
       <use xlink:href="#DejaVuSans-51"/>
      </g>
     </g>
    </g>
    <g id="ytick_26">
     <g id="line2d_60">
      <g>
       <use style="stroke:#000000;stroke-width:0.8;" x="513.906818" xlink:href="#m748998d5be" y="114.424108"/>
      </g>
     </g>
     <g id="text_53">
      <!-- 4 -->
      <g transform="translate(500.544318 118.223327)scale(0.1 -0.1)">
       <use xlink:href="#DejaVuSans-52"/>
      </g>
     </g>
    </g>
    <g id="ytick_27">
     <g id="line2d_61">
      <g>
       <use style="stroke:#000000;stroke-width:0.8;" x="513.906818" xlink:href="#m748998d5be" y="85.124149"/>
      </g>
     </g>
     <g id="text_54">
      <!-- 5 -->
      <g transform="translate(500.544318 88.923367)scale(0.1 -0.1)">
       <use xlink:href="#DejaVuSans-53"/>
      </g>
     </g>
    </g>
    <g id="ytick_28">
     <g id="line2d_62">
      <g>
       <use style="stroke:#000000;stroke-width:0.8;" x="513.906818" xlink:href="#m748998d5be" y="55.82419"/>
      </g>
     </g>
     <g id="text_55">
      <!-- 6 -->
      <g transform="translate(500.544318 59.623408)scale(0.1 -0.1)">
       <use xlink:href="#DejaVuSans-54"/>
      </g>
     </g>
    </g>
    <g id="ytick_29">
     <g id="line2d_63">
      <g>
       <use style="stroke:#000000;stroke-width:0.8;" x="513.906818" xlink:href="#m748998d5be" y="26.52423"/>
      </g>
     </g>
     <g id="text_56">
      <!-- 7 -->
      <g transform="translate(500.544318 30.323449)scale(0.1 -0.1)">
       <defs>
        <path d="M 8.203125 72.90625 
L 55.078125 72.90625 
L 55.078125 68.703125 
L 28.609375 0 
L 18.3125 0 
L 43.21875 64.59375 
L 8.203125 64.59375 
z
" id="DejaVuSans-55"/>
       </defs>
       <use xlink:href="#DejaVuSans-55"/>
      </g>
     </g>
    </g>
   </g>
   <g id="line2d_64">
    <path clip-path="url(#pcc1ca2d1ec)" d="M 532.353099 167.164431 
L 555.41095 87.808428 
L 578.468802 82.233289 
L 601.526653 78.324466 
L 624.584504 212.821615 
L 647.642355 204.46984 
L 670.700207 192.876516 
L 693.758058 184.962146 
L 716.815909 212.58653 
L 739.87376 205.331748 
L 762.931612 197.784218 
L 785.989463 188.551523 
L 809.047314 177.749427 
L 832.105165 167.619092 
L 855.163017 212.805286 
L 878.220868 203.79237 
L 901.278719 193.395072 
" style="fill:none;stroke:#7d828c;stroke-dasharray:5.55,2.4;stroke-dashoffset:0;stroke-width:1.5;"/>
    <g clip-path="url(#pcc1ca2d1ec)">
     <use style="fill:#ffffff;stroke:#7d828c;stroke-linejoin:miter;" x="532.353099" xlink:href="#m531124cb3a" y="167.164431"/>
     <use style="fill:#ffffff;stroke:#7d828c;stroke-linejoin:miter;" x="555.41095" xlink:href="#m531124cb3a" y="87.808428"/>
     <use style="fill:#ffffff;stroke:#7d828c;stroke-linejoin:miter;" x="578.468802" xlink:href="#m531124cb3a" y="82.233289"/>
     <use style="fill:#ffffff;stroke:#7d828c;stroke-linejoin:miter;" x="601.526653" xlink:href="#m531124cb3a" y="78.324466"/>
     <use style="fill:#ffffff;stroke:#7d828c;stroke-linejoin:miter;" x="624.584504" xlink:href="#m531124cb3a" y="212.821615"/>
     <use style="fill:#ffffff;stroke:#7d828c;stroke-linejoin:miter;" x="647.642355" xlink:href="#m531124cb3a" y="204.46984"/>
     <use style="fill:#ffffff;stroke:#7d828c;stroke-linejoin:miter;" x="670.700207" xlink:href="#m531124cb3a" y="192.876516"/>
     <use style="fill:#ffffff;stroke:#7d828c;stroke-linejoin:miter;" x="693.758058" xlink:href="#m531124cb3a" y="184.962146"/>
     <use style="fill:#ffffff;stroke:#7d828c;stroke-linejoin:miter;" x="716.815909" xlink:href="#m531124cb3a" y="212.58653"/>
     <use style="fill:#ffffff;stroke:#7d828c;stroke-linejoin:miter;" x="739.87376" xlink:href="#m531124cb3a" y="205.331748"/>
     <use style="fill:#ffffff;stroke:#7d828c;stroke-linejoin:miter;" x="762.931612" xlink:href="#m531124cb3a" y="197.784218"/>
     <use style="fill:#ffffff;stroke:#7d828c;stroke-linejoin:miter;" x="785.989463" xlink:href="#m531124cb3a" y="188.551523"/>
     <use style="fill:#ffffff;stroke:#7d828c;stroke-linejoin:miter;" x="809.047314" xlink:href="#m531124cb3a" y="177.749427"/>
     <use style="fill:#ffffff;stroke:#7d828c;stroke-linejoin:miter;" x="832.105165" xlink:href="#m531124cb3a" y="167.619092"/>
     <use style="fill:#ffffff;stroke:#7d828c;stroke-linejoin:miter;" x="855.163017" xlink:href="#m531124cb3a" y="212.805286"/>
     <use style="fill:#ffffff;stroke:#7d828c;stroke-linejoin:miter;" x="878.220868" xlink:href="#m531124cb3a" y="203.79237"/>
     <use style="fill:#ffffff;stroke:#7d828c;stroke-linejoin:miter;" x="901.278719" xlink:href="#m531124cb3a" y="193.395072"/>
    </g>
   </g>
   <g id="line2d_65">
    <path clip-path="url(#pcc1ca2d1ec)" d="M 532.353099 221.125651 
L 555.41095 190.330804 
L 578.468802 170.04609 
L 601.526653 150.170331 
L 624.584504 191.400384 
L 647.642355 171.367993 
L 670.700207 151.397641 
L 693.758058 131.228477 
L 716.815909 191.685161 
L 739.87376 171.756116 
L 762.931612 151.645282 
L 785.989463 131.647358 
L 809.047314 111.615903 
L 832.105165 91.568569 
L 855.163017 191.659734 
L 878.220868 171.602823 
L 901.278719 151.514874 
" style="fill:none;stroke:#7d828c;stroke-linecap:square;stroke-width:1.5;"/>
    <g clip-path="url(#pcc1ca2d1ec)">
     <use style="fill:#7d828c;stroke:#7d828c;stroke-linejoin:miter;" x="532.353099" xlink:href="#mba43d57699" y="221.125651"/>
     <use style="fill:#7d828c;stroke:#7d828c;stroke-linejoin:miter;" x="555.41095" xlink:href="#mba43d57699" y="190.330804"/>
     <use style="fill:#7d828c;stroke:#7d828c;stroke-linejoin:miter;" x="578.468802" xlink:href="#mba43d57699" y="170.04609"/>
     <use style="fill:#7d828c;stroke:#7d828c;stroke-linejoin:miter;" x="601.526653" xlink:href="#mba43d57699" y="150.170331"/>
     <use style="fill:#7d828c;stroke:#7d828c;stroke-linejoin:miter;" x="624.584504" xlink:href="#mba43d57699" y="191.400384"/>
     <use style="fill:#7d828c;stroke:#7d828c;stroke-linejoin:miter;" x="647.642355" xlink:href="#mba43d57699" y="171.367993"/>
     <use style="fill:#7d828c;stroke:#7d828c;stroke-linejoin:miter;" x="670.700207" xlink:href="#mba43d57699" y="151.397641"/>
     <use style="fill:#7d828c;stroke:#7d828c;stroke-linejoin:miter;" x="693.758058" xlink:href="#mba43d57699" y="131.228477"/>
     <use style="fill:#7d828c;stroke:#7d828c;stroke-linejoin:miter;" x="716.815909" xlink:href="#mba43d57699" y="191.685161"/>
     <use style="fill:#7d828c;stroke:#7d828c;stroke-linejoin:miter;" x="739.87376" xlink:href="#mba43d57699" y="171.756116"/>
     <use style="fill:#7d828c;stroke:#7d828c;stroke-linejoin:miter;" x="762.931612" xlink:href="#mba43d57699" y="151.645282"/>
     <use style="fill:#7d828c;stroke:#7d828c;stroke-linejoin:miter;" x="785.989463" xlink:href="#mba43d57699" y="131.647358"/>
     <use style="fill:#7d828c;stroke:#7d828c;stroke-linejoin:miter;" x="809.047314" xlink:href="#mba43d57699" y="111.615903"/>
     <use style="fill:#7d828c;stroke:#7d828c;stroke-linejoin:miter;" x="832.105165" xlink:href="#mba43d57699" y="91.568569"/>
     <use style="fill:#7d828c;stroke:#7d828c;stroke-linejoin:miter;" x="855.163017" xlink:href="#mba43d57699" y="191.659734"/>
     <use style="fill:#7d828c;stroke:#7d828c;stroke-linejoin:miter;" x="878.220868" xlink:href="#mba43d57699" y="171.602823"/>
     <use style="fill:#7d828c;stroke:#7d828c;stroke-linejoin:miter;" x="901.278719" xlink:href="#mba43d57699" y="151.514874"/>
    </g>
   </g>
   <g id="line2d_66">
    <path clip-path="url(#pcc1ca2d1ec)" d="M 532.353099 43.714306 
L 555.41095 231.578364 
L 578.468802 231.543733 
L 601.526653 231.528442 
L 624.584504 231.574747 
L 647.642355 231.549361 
L 670.700207 231.527852 
L 693.758058 231.50416 
L 716.815909 231.573483 
L 739.87376 231.551261 
L 762.931612 231.534207 
L 785.989463 231.513479 
L 809.047314 231.498985 
L 832.105165 231.488159 
L 855.163017 231.569327 
L 878.220868 231.543089 
L 901.278719 231.513387 
" style="fill:none;stroke:#0084bb;stroke-dasharray:5.55,2.4;stroke-dashoffset:0;stroke-width:1.5;"/>
    <g clip-path="url(#pcc1ca2d1ec)">
     <use style="fill:#ffffff;stroke:#0084bb;stroke-linejoin:miter;" x="532.353099" xlink:href="#m42690aacbc" y="43.714306"/>
     <use style="fill:#ffffff;stroke:#0084bb;stroke-linejoin:miter;" x="555.41095" xlink:href="#m42690aacbc" y="231.578364"/>
     <use style="fill:#ffffff;stroke:#0084bb;stroke-linejoin:miter;" x="578.468802" xlink:href="#m42690aacbc" y="231.543733"/>
     <use style="fill:#ffffff;stroke:#0084bb;stroke-linejoin:miter;" x="601.526653" xlink:href="#m42690aacbc" y="231.528442"/>
     <use style="fill:#ffffff;stroke:#0084bb;stroke-linejoin:miter;" x="624.584504" xlink:href="#m42690aacbc" y="231.574747"/>
     <use style="fill:#ffffff;stroke:#0084bb;stroke-linejoin:miter;" x="647.642355" xlink:href="#m42690aacbc" y="231.549361"/>
     <use style="fill:#ffffff;stroke:#0084bb;stroke-linejoin:miter;" x="670.700207" xlink:href="#m42690aacbc" y="231.527852"/>
     <use style="fill:#ffffff;stroke:#0084bb;stroke-linejoin:miter;" x="693.758058" xlink:href="#m42690aacbc" y="231.50416"/>
     <use style="fill:#ffffff;stroke:#0084bb;stroke-linejoin:miter;" x="716.815909" xlink:href="#m42690aacbc" y="231.573483"/>
     <use style="fill:#ffffff;stroke:#0084bb;stroke-linejoin:miter;" x="739.87376" xlink:href="#m42690aacbc" y="231.551261"/>
     <use style="fill:#ffffff;stroke:#0084bb;stroke-linejoin:miter;" x="762.931612" xlink:href="#m42690aacbc" y="231.534207"/>
     <use style="fill:#ffffff;stroke:#0084bb;stroke-linejoin:miter;" x="785.989463" xlink:href="#m42690aacbc" y="231.513479"/>
     <use style="fill:#ffffff;stroke:#0084bb;stroke-linejoin:miter;" x="809.047314" xlink:href="#m42690aacbc" y="231.498985"/>
     <use style="fill:#ffffff;stroke:#0084bb;stroke-linejoin:miter;" x="832.105165" xlink:href="#m42690aacbc" y="231.488159"/>
     <use style="fill:#ffffff;stroke:#0084bb;stroke-linejoin:miter;" x="855.163017" xlink:href="#m42690aacbc" y="231.569327"/>
     <use style="fill:#ffffff;stroke:#0084bb;stroke-linejoin:miter;" x="878.220868" xlink:href="#m42690aacbc" y="231.543089"/>
     <use style="fill:#ffffff;stroke:#0084bb;stroke-linejoin:miter;" x="901.278719" xlink:href="#m42690aacbc" y="231.513387"/>
    </g>
   </g>
   <g id="line2d_67">
    <path clip-path="url(#pcc1ca2d1ec)" d="M 532.353099 201.051911 
L 555.41095 172.261695 
L 578.468802 143.366499 
L 601.526653 114.581928 
L 624.584504 173.396739 
L 647.642355 144.299042 
L 670.700207 115.65125 
L 693.758058 87.021844 
L 716.815909 174.032873 
L 739.87376 145.717214 
L 762.931612 117.505354 
L 785.989463 89.397022 
L 809.047314 61.548151 
L 832.105165 33.905636 
L 855.163017 175.961501 
L 878.220868 149.254693 
L 901.278719 122.911042 
" style="fill:none;stroke:#0084bb;stroke-linecap:square;stroke-width:1.5;"/>
    <g clip-path="url(#pcc1ca2d1ec)">
     <use style="fill:#0084bb;stroke:#0084bb;stroke-linejoin:miter;" x="532.353099" xlink:href="#mb2f99334b6" y="201.051911"/>
     <use style="fill:#0084bb;stroke:#0084bb;stroke-linejoin:miter;" x="555.41095" xlink:href="#mb2f99334b6" y="172.261695"/>
     <use style="fill:#0084bb;stroke:#0084bb;stroke-linejoin:miter;" x="578.468802" xlink:href="#mb2f99334b6" y="143.366499"/>
     <use style="fill:#0084bb;stroke:#0084bb;stroke-linejoin:miter;" x="601.526653" xlink:href="#mb2f99334b6" y="114.581928"/>
     <use style="fill:#0084bb;stroke:#0084bb;stroke-linejoin:miter;" x="624.584504" xlink:href="#mb2f99334b6" y="173.396739"/>
     <use style="fill:#0084bb;stroke:#0084bb;stroke-linejoin:miter;" x="647.642355" xlink:href="#mb2f99334b6" y="144.299042"/>
     <use style="fill:#0084bb;stroke:#0084bb;stroke-linejoin:miter;" x="670.700207" xlink:href="#mb2f99334b6" y="115.65125"/>
     <use style="fill:#0084bb;stroke:#0084bb;stroke-linejoin:miter;" x="693.758058" xlink:href="#mb2f99334b6" y="87.021844"/>
     <use style="fill:#0084bb;stroke:#0084bb;stroke-linejoin:miter;" x="716.815909" xlink:href="#mb2f99334b6" y="174.032873"/>
     <use style="fill:#0084bb;stroke:#0084bb;stroke-linejoin:miter;" x="739.87376" xlink:href="#mb2f99334b6" y="145.717214"/>
     <use style="fill:#0084bb;stroke:#0084bb;stroke-linejoin:miter;" x="762.931612" xlink:href="#mb2f99334b6" y="117.505354"/>
     <use style="fill:#0084bb;stroke:#0084bb;stroke-linejoin:miter;" x="785.989463" xlink:href="#mb2f99334b6" y="89.397022"/>
     <use style="fill:#0084bb;stroke:#0084bb;stroke-linejoin:miter;" x="809.047314" xlink:href="#mb2f99334b6" y="61.548151"/>
     <use style="fill:#0084bb;stroke:#0084bb;stroke-linejoin:miter;" x="832.105165" xlink:href="#mb2f99334b6" y="33.905636"/>
     <use style="fill:#0084bb;stroke:#0084bb;stroke-linejoin:miter;" x="855.163017" xlink:href="#mb2f99334b6" y="175.961501"/>
     <use style="fill:#0084bb;stroke:#0084bb;stroke-linejoin:miter;" x="878.220868" xlink:href="#mb2f99334b6" y="149.254693"/>
     <use style="fill:#0084bb;stroke:#0084bb;stroke-linejoin:miter;" x="901.278719" xlink:href="#mb2f99334b6" y="122.911042"/>
    </g>
   </g>
   <g id="text_57">
    <!-- NF-ResNet-50 (weight normalisation) -->
    <g transform="translate(605.951847 18.022)scale(0.12 -0.12)">
     <defs>
      <path d="M 4.203125 54.6875 
L 13.1875 54.6875 
L 24.421875 12.015625 
L 35.59375 54.6875 
L 46.1875 54.6875 
L 57.421875 12.015625 
L 68.609375 54.6875 
L 77.59375 54.6875 
L 63.28125 0 
L 52.6875 0 
L 40.921875 44.828125 
L 29.109375 0 
L 18.5 0 
z
" id="DejaVuSans-119"/>
      <path d="M 45.40625 27.984375 
Q 45.40625 37.75 41.375 43.109375 
Q 37.359375 48.484375 30.078125 48.484375 
Q 22.859375 48.484375 18.828125 43.109375 
Q 14.796875 37.75 14.796875 27.984375 
Q 14.796875 18.265625 18.828125 12.890625 
Q 22.859375 7.515625 30.078125 7.515625 
Q 37.359375 7.515625 41.375 12.890625 
Q 45.40625 18.265625 45.40625 27.984375 
z
M 54.390625 6.78125 
Q 54.390625 -7.171875 48.1875 -13.984375 
Q 42 -20.796875 29.203125 -20.796875 
Q 24.46875 -20.796875 20.265625 -20.09375 
Q 16.0625 -19.390625 12.109375 -17.921875 
L 12.109375 -9.1875 
Q 16.0625 -11.328125 19.921875 -12.34375 
Q 23.78125 -13.375 27.78125 -13.375 
Q 36.625 -13.375 41.015625 -8.765625 
Q 45.40625 -4.15625 45.40625 5.171875 
L 45.40625 9.625 
Q 42.625 4.78125 38.28125 2.390625 
Q 33.9375 0 27.875 0 
Q 17.828125 0 11.671875 7.65625 
Q 5.515625 15.328125 5.515625 27.984375 
Q 5.515625 40.671875 11.671875 48.328125 
Q 17.828125 56 27.875 56 
Q 33.9375 56 38.28125 53.609375 
Q 42.625 51.21875 45.40625 46.390625 
L 45.40625 54.6875 
L 54.390625 54.6875 
z
" id="DejaVuSans-103"/>
      <path d="M 30.609375 48.390625 
Q 23.390625 48.390625 19.1875 42.75 
Q 14.984375 37.109375 14.984375 27.296875 
Q 14.984375 17.484375 19.15625 11.84375 
Q 23.34375 6.203125 30.609375 6.203125 
Q 37.796875 6.203125 41.984375 11.859375 
Q 46.1875 17.53125 46.1875 27.296875 
Q 46.1875 37.015625 41.984375 42.703125 
Q 37.796875 48.390625 30.609375 48.390625 
z
M 30.609375 56 
Q 42.328125 56 49.015625 48.375 
Q 55.71875 40.765625 55.71875 27.296875 
Q 55.71875 13.875 49.015625 6.21875 
Q 42.328125 -1.421875 30.609375 -1.421875 
Q 18.84375 -1.421875 12.171875 6.21875 
Q 5.515625 13.875 5.515625 27.296875 
Q 5.515625 40.765625 12.171875 48.375 
Q 18.84375 56 30.609375 56 
z
" id="DejaVuSans-111"/>
      <path d="M 52 44.1875 
Q 55.375 50.25 60.0625 53.125 
Q 64.75 56 71.09375 56 
Q 79.640625 56 84.28125 50.015625 
Q 88.921875 44.046875 88.921875 33.015625 
L 88.921875 0 
L 79.890625 0 
L 79.890625 32.71875 
Q 79.890625 40.578125 77.09375 44.375 
Q 74.3125 48.1875 68.609375 48.1875 
Q 61.625 48.1875 57.5625 43.546875 
Q 53.515625 38.921875 53.515625 30.90625 
L 53.515625 0 
L 44.484375 0 
L 44.484375 32.71875 
Q 44.484375 40.625 41.703125 44.40625 
Q 38.921875 48.1875 33.109375 48.1875 
Q 26.21875 48.1875 22.15625 43.53125 
Q 18.109375 38.875 18.109375 30.90625 
L 18.109375 0 
L 9.078125 0 
L 9.078125 54.6875 
L 18.109375 54.6875 
L 18.109375 46.1875 
Q 21.1875 51.21875 25.484375 53.609375 
Q 29.78125 56 35.6875 56 
Q 41.65625 56 45.828125 52.96875 
Q 50 49.953125 52 44.1875 
z
" id="DejaVuSans-109"/>
     </defs>
     <use xlink:href="#DejaVuSans-78"/>
     <use x="74.804688" xlink:href="#DejaVuSans-70"/>
     <use x="132.324219" xlink:href="#DejaVuSans-45"/>
     <use x="168.408203" xlink:href="#DejaVuSans-82"/>
     <use x="233.390625" xlink:href="#DejaVuSans-101"/>
     <use x="294.914062" xlink:href="#DejaVuSans-115"/>
     <use x="347.013672" xlink:href="#DejaVuSans-78"/>
     <use x="421.818359" xlink:href="#DejaVuSans-101"/>
     <use x="483.341797" xlink:href="#DejaVuSans-116"/>
     <use x="522.550781" xlink:href="#DejaVuSans-45"/>
     <use x="558.634766" xlink:href="#DejaVuSans-53"/>
     <use x="622.257812" xlink:href="#DejaVuSans-48"/>
     <use x="685.880859" xlink:href="#DejaVuSans-32"/>
     <use x="717.667969" xlink:href="#DejaVuSans-40"/>
     <use x="756.681641" xlink:href="#DejaVuSans-119"/>
     <use x="838.46875" xlink:href="#DejaVuSans-101"/>
     <use x="899.992188" xlink:href="#DejaVuSans-105"/>
     <use x="927.775391" xlink:href="#DejaVuSans-103"/>
     <use x="991.251953" xlink:href="#DejaVuSans-104"/>
     <use x="1054.630859" xlink:href="#DejaVuSans-116"/>
     <use x="1093.839844" xlink:href="#DejaVuSans-32"/>
     <use x="1125.626953" xlink:href="#DejaVuSans-110"/>
     <use x="1189.005859" xlink:href="#DejaVuSans-111"/>
     <use x="1250.1875" xlink:href="#DejaVuSans-114"/>
     <use x="1289.550781" xlink:href="#DejaVuSans-109"/>
     <use x="1386.962891" xlink:href="#DejaVuSans-97"/>
     <use x="1448.242188" xlink:href="#DejaVuSans-108"/>
     <use x="1476.025391" xlink:href="#DejaVuSans-105"/>
     <use x="1503.808594" xlink:href="#DejaVuSans-115"/>
     <use x="1555.908203" xlink:href="#DejaVuSans-97"/>
     <use x="1617.1875" xlink:href="#DejaVuSans-116"/>
     <use x="1656.396484" xlink:href="#DejaVuSans-105"/>
     <use x="1684.179688" xlink:href="#DejaVuSans-111"/>
     <use x="1745.361328" xlink:href="#DejaVuSans-110"/>
     <use x="1808.740234" xlink:href="#DejaVuSans-41"/>
    </g>
   </g>
   <g id="legend_2">
    <g id="patch_11">
     <path d="M 851.625 93.77825 
L 912.725 93.77825 
Q 914.725 93.77825 914.725 91.77825 
L 914.725 31.022 
Q 914.725 29.022 912.725 29.022 
L 851.625 29.022 
Q 849.625 29.022 849.625 31.022 
L 849.625 91.77825 
Q 849.625 93.77825 851.625 93.77825 
z
" style="fill:#ffffff;opacity:0.8;stroke:#cccccc;stroke-linejoin:miter;"/>
    </g>
    <g id="line2d_68">
     <path d="M 853.625 38.622 
L 873.625 38.622 
" style="fill:none;stroke:#7d828c;stroke-dasharray:5.55,2.4;stroke-dashoffset:0;stroke-width:1.5;"/>
    </g>
    <g id="line2d_69">
     <g>
      <use style="fill:#ffffff;stroke:#7d828c;stroke-linejoin:miter;" x="863.625" xlink:href="#m531124cb3a" y="38.622"/>
     </g>
    </g>
    <g id="text_58">
     <!-- $\mu^2$ BN -->
     <g transform="translate(881.625 42.122)scale(0.1 -0.1)">
      <use transform="translate(0 0.765625)" xlink:href="#DejaVuSans-Oblique-956"/>
      <use transform="translate(68.089193 39.046875)scale(0.7)" xlink:href="#DejaVuSans-50"/>
      <use transform="translate(115.359701 0.765625)" xlink:href="#DejaVuSans-32"/>
      <use transform="translate(147.14681 0.765625)" xlink:href="#DejaVuSans-66"/>
      <use transform="translate(215.750326 0.765625)" xlink:href="#DejaVuSans-78"/>
     </g>
    </g>
    <g id="line2d_70">
     <path d="M 853.625 53.320437 
L 873.625 53.320437 
" style="fill:none;stroke:#7d828c;stroke-linecap:square;stroke-width:1.5;"/>
    </g>
    <g id="line2d_71">
     <g>
      <use style="fill:#7d828c;stroke:#7d828c;stroke-linejoin:miter;" x="863.625" xlink:href="#mba43d57699" y="53.320437"/>
     </g>
    </g>
    <g id="text_59">
     <!-- $\sigma^2$ BN -->
     <g transform="translate(881.625 56.820437)scale(0.1 -0.1)">
      <use transform="translate(0 0.765625)" xlink:href="#DejaVuSans-Oblique-963"/>
      <use transform="translate(67.851615 39.046875)scale(0.7)" xlink:href="#DejaVuSans-50"/>
      <use transform="translate(115.122122 0.765625)" xlink:href="#DejaVuSans-32"/>
      <use transform="translate(146.909232 0.765625)" xlink:href="#DejaVuSans-66"/>
      <use transform="translate(215.512747 0.765625)" xlink:href="#DejaVuSans-78"/>
     </g>
    </g>
    <g id="line2d_72">
     <path d="M 853.625 69.500125 
L 873.625 69.500125 
" style="fill:none;stroke:#0084bb;stroke-dasharray:5.55,2.4;stroke-dashoffset:0;stroke-width:1.5;"/>
    </g>
    <g id="line2d_73">
     <g>
      <use style="fill:#ffffff;stroke:#0084bb;stroke-linejoin:miter;" x="863.625" xlink:href="#m42690aacbc" y="69.500125"/>
     </g>
    </g>
    <g id="text_60">
     <!-- $\mu^2$ NF -->
     <g transform="translate(881.625 73.000125)scale(0.1 -0.1)">
      <use transform="translate(0 0.765625)" xlink:href="#DejaVuSans-Oblique-956"/>
      <use transform="translate(68.089193 39.046875)scale(0.7)" xlink:href="#DejaVuSans-50"/>
      <use transform="translate(115.359701 0.765625)" xlink:href="#DejaVuSans-32"/>
      <use transform="translate(147.14681 0.765625)" xlink:href="#DejaVuSans-78"/>
      <use transform="translate(221.951497 0.765625)" xlink:href="#DejaVuSans-70"/>
     </g>
    </g>
    <g id="line2d_74">
     <path d="M 853.625 84.198562 
L 873.625 84.198562 
" style="fill:none;stroke:#0084bb;stroke-linecap:square;stroke-width:1.5;"/>
    </g>
    <g id="line2d_75">
     <g>
      <use style="fill:#0084bb;stroke:#0084bb;stroke-linejoin:miter;" x="863.625" xlink:href="#mb2f99334b6" y="84.198562"/>
     </g>
    </g>
    <g id="text_61">
     <!-- $\sigma^2$ NF -->
     <g transform="translate(881.625 87.698562)scale(0.1 -0.1)">
      <use transform="translate(0 0.765625)" xlink:href="#DejaVuSans-Oblique-963"/>
      <use transform="translate(67.851615 39.046875)scale(0.7)" xlink:href="#DejaVuSans-50"/>
      <use transform="translate(115.122122 0.765625)" xlink:href="#DejaVuSans-32"/>
      <use transform="translate(146.909232 0.765625)" xlink:href="#DejaVuSans-78"/>
      <use transform="translate(221.713919 0.765625)" xlink:href="#DejaVuSans-70"/>
     </g>
    </g>
   </g>
  </g>
 </g>
 <defs>
  <clipPath id="p48394a9c61">
   <rect height="217.44" width="405.818182" x="26.925" y="24.022"/>
  </clipPath>
  <clipPath id="pcc1ca2d1ec">
   <rect height="217.44" width="405.818182" x="513.906818" y="24.022"/>
  </clipPath>
 </defs>
</svg>
