<?xml version="1.0" encoding="utf-8" standalone="no"?>
<!DOCTYPE svg PUBLIC "-//W3C//DTD SVG 1.1//EN"
  "http://www.w3.org/Graphics/SVG/1.1/DTD/svg11.dtd">
<svg xmlns:xlink="http://www.w3.org/1999/xlink" width="460.8pt" height="345.6pt" viewBox="0 0 460.8 345.6" xmlns="http://www.w3.org/2000/svg" version="1.1">
 <metadata>
  <rdf:RDF xmlns:dc="http://purl.org/dc/elements/1.1/" xmlns:cc="http://creativecommons.org/ns#" xmlns:rdf="http://www.w3.org/1999/02/22-rdf-syntax-ns#">
   <cc:Work>
    <dc:type rdf:resource="http://purl.org/dc/dcmitype/StillImage"/>
    <dc:date>2023-12-09T21:06:34.179143</dc:date>
    <dc:format>image/svg+xml</dc:format>
    <dc:creator>
     <cc:Agent>
      <dc:title>Matplotlib v3.8.2, https://matplotlib.org/</dc:title>
     </cc:Agent>
    </dc:creator>
   </cc:Work>
  </rdf:RDF>
 </metadata>
 <defs>
  <style type="text/css">*{stroke-linejoin: round; stroke-linecap: butt}</style>
 </defs>
 <g id="figure_1">
  <g id="patch_1">
   <path d="M 0 345.6 
L 460.8 345.6 
L 460.8 0 
L 0 0 
z
" style="fill: #ffffff"/>
  </g>
  <g id="axes_1">
   <g id="patch_2">
    <path d="M 57.6 307.584 
L 414.72 307.584 
L 414.72 41.472 
L 57.6 41.472 
z
" style="fill: #ffffff"/>
   </g>
   <g id="matplotlib.axis_1">
    <g id="xtick_1">
     <g id="line2d_1">
      <defs>
       <path id="mee715ba0c0" d="M 0 0 
L 0 3.5 
" style="stroke: #000000; stroke-width: 0.8"/>
      </defs>
      <g>
       <use xlink:href="#mee715ba0c0" x="73.832727" y="307.584" style="stroke: #000000; stroke-width: 0.8"/>
      </g>
     </g>
     <g id="text_1">
      <!-- 0 -->
      <g transform="translate(70.651477 322.182437) scale(0.1 -0.1)">
       <defs>
        <path id="DejaVuSans-30" d="M 2034 4250 
Q 1547 4250 1301 3770 
Q 1056 3291 1056 2328 
Q 1056 1369 1301 889 
Q 1547 409 2034 409 
Q 2525 409 2770 889 
Q 3016 1369 3016 2328 
Q 3016 3291 2770 3770 
Q 2525 4250 2034 4250 
z
M 2034 4750 
Q 2819 4750 3233 4129 
Q 3647 3509 3647 2328 
Q 3647 1150 3233 529 
Q 2819 -91 2034 -91 
Q 1250 -91 836 529 
Q 422 1150 422 2328 
Q 422 3509 836 4129 
Q 1250 4750 2034 4750 
z
" transform="scale(0.015625)"/>
       </defs>
       <use xlink:href="#DejaVuSans-30"/>
      </g>
     </g>
    </g>
    <g id="xtick_2">
     <g id="line2d_2">
      <g>
       <use xlink:href="#mee715ba0c0" x="125.365195" y="307.584" style="stroke: #000000; stroke-width: 0.8"/>
      </g>
     </g>
     <g id="text_2">
      <!-- 10 -->
      <g transform="translate(119.002695 322.182437) scale(0.1 -0.1)">
       <defs>
        <path id="DejaVuSans-31" d="M 794 531 
L 1825 531 
L 1825 4091 
L 703 3866 
L 703 4441 
L 1819 4666 
L 2450 4666 
L 2450 531 
L 3481 531 
L 3481 0 
L 794 0 
L 794 531 
z
" transform="scale(0.015625)"/>
       </defs>
       <use xlink:href="#DejaVuSans-31"/>
       <use xlink:href="#DejaVuSans-30" x="63.623047"/>
      </g>
     </g>
    </g>
    <g id="xtick_3">
     <g id="line2d_3">
      <g>
       <use xlink:href="#mee715ba0c0" x="176.897662" y="307.584" style="stroke: #000000; stroke-width: 0.8"/>
      </g>
     </g>
     <g id="text_3">
      <!-- 20 -->
      <g transform="translate(170.535162 322.182437) scale(0.1 -0.1)">
       <defs>
        <path id="DejaVuSans-32" d="M 1228 531 
L 3431 531 
L 3431 0 
L 469 0 
L 469 531 
Q 828 903 1448 1529 
Q 2069 2156 2228 2338 
Q 2531 2678 2651 2914 
Q 2772 3150 2772 3378 
Q 2772 3750 2511 3984 
Q 2250 4219 1831 4219 
Q 1534 4219 1204 4116 
Q 875 4013 500 3803 
L 500 4441 
Q 881 4594 1212 4672 
Q 1544 4750 1819 4750 
Q 2544 4750 2975 4387 
Q 3406 4025 3406 3419 
Q 3406 3131 3298 2873 
Q 3191 2616 2906 2266 
Q 2828 2175 2409 1742 
Q 1991 1309 1228 531 
z
" transform="scale(0.015625)"/>
       </defs>
       <use xlink:href="#DejaVuSans-32"/>
       <use xlink:href="#DejaVuSans-30" x="63.623047"/>
      </g>
     </g>
    </g>
    <g id="xtick_4">
     <g id="line2d_4">
      <g>
       <use xlink:href="#mee715ba0c0" x="228.43013" y="307.584" style="stroke: #000000; stroke-width: 0.8"/>
      </g>
     </g>
     <g id="text_4">
      <!-- 30 -->
      <g transform="translate(222.06763 322.182437) scale(0.1 -0.1)">
       <defs>
        <path id="DejaVuSans-33" d="M 2597 2516 
Q 3050 2419 3304 2112 
Q 3559 1806 3559 1356 
Q 3559 666 3084 287 
Q 2609 -91 1734 -91 
Q 1441 -91 1130 -33 
Q 819 25 488 141 
L 488 750 
Q 750 597 1062 519 
Q 1375 441 1716 441 
Q 2309 441 2620 675 
Q 2931 909 2931 1356 
Q 2931 1769 2642 2001 
Q 2353 2234 1838 2234 
L 1294 2234 
L 1294 2753 
L 1863 2753 
Q 2328 2753 2575 2939 
Q 2822 3125 2822 3475 
Q 2822 3834 2567 4026 
Q 2313 4219 1838 4219 
Q 1578 4219 1281 4162 
Q 984 4106 628 3988 
L 628 4550 
Q 988 4650 1302 4700 
Q 1616 4750 1894 4750 
Q 2613 4750 3031 4423 
Q 3450 4097 3450 3541 
Q 3450 3153 3228 2886 
Q 3006 2619 2597 2516 
z
" transform="scale(0.015625)"/>
       </defs>
       <use xlink:href="#DejaVuSans-33"/>
       <use xlink:href="#DejaVuSans-30" x="63.623047"/>
      </g>
     </g>
    </g>
    <g id="xtick_5">
     <g id="line2d_5">
      <g>
       <use xlink:href="#mee715ba0c0" x="279.962597" y="307.584" style="stroke: #000000; stroke-width: 0.8"/>
      </g>
     </g>
     <g id="text_5">
      <!-- 40 -->
      <g transform="translate(273.600097 322.182437) scale(0.1 -0.1)">
       <defs>
        <path id="DejaVuSans-34" d="M 2419 4116 
L 825 1625 
L 2419 1625 
L 2419 4116 
z
M 2253 4666 
L 3047 4666 
L 3047 1625 
L 3713 1625 
L 3713 1100 
L 3047 1100 
L 3047 0 
L 2419 0 
L 2419 1100 
L 313 1100 
L 313 1709 
L 2253 4666 
z
" transform="scale(0.015625)"/>
       </defs>
       <use xlink:href="#DejaVuSans-34"/>
       <use xlink:href="#DejaVuSans-30" x="63.623047"/>
      </g>
     </g>
    </g>
    <g id="xtick_6">
     <g id="line2d_6">
      <g>
       <use xlink:href="#mee715ba0c0" x="331.495065" y="307.584" style="stroke: #000000; stroke-width: 0.8"/>
      </g>
     </g>
     <g id="text_6">
      <!-- 50 -->
      <g transform="translate(325.132565 322.182437) scale(0.1 -0.1)">
       <defs>
        <path id="DejaVuSans-35" d="M 691 4666 
L 3169 4666 
L 3169 4134 
L 1269 4134 
L 1269 2991 
Q 1406 3038 1543 3061 
Q 1681 3084 1819 3084 
Q 2600 3084 3056 2656 
Q 3513 2228 3513 1497 
Q 3513 744 3044 326 
Q 2575 -91 1722 -91 
Q 1428 -91 1123 -41 
Q 819 9 494 109 
L 494 744 
Q 775 591 1075 516 
Q 1375 441 1709 441 
Q 2250 441 2565 725 
Q 2881 1009 2881 1497 
Q 2881 1984 2565 2268 
Q 2250 2553 1709 2553 
Q 1456 2553 1204 2497 
Q 953 2441 691 2322 
L 691 4666 
z
" transform="scale(0.015625)"/>
       </defs>
       <use xlink:href="#DejaVuSans-35"/>
       <use xlink:href="#DejaVuSans-30" x="63.623047"/>
      </g>
     </g>
    </g>
    <g id="xtick_7">
     <g id="line2d_7">
      <g>
       <use xlink:href="#mee715ba0c0" x="383.027532" y="307.584" style="stroke: #000000; stroke-width: 0.8"/>
      </g>
     </g>
     <g id="text_7">
      <!-- 60 -->
      <g transform="translate(376.665032 322.182437) scale(0.1 -0.1)">
       <defs>
        <path id="DejaVuSans-36" d="M 2113 2584 
Q 1688 2584 1439 2293 
Q 1191 2003 1191 1497 
Q 1191 994 1439 701 
Q 1688 409 2113 409 
Q 2538 409 2786 701 
Q 3034 994 3034 1497 
Q 3034 2003 2786 2293 
Q 2538 2584 2113 2584 
z
M 3366 4563 
L 3366 3988 
Q 3128 4100 2886 4159 
Q 2644 4219 2406 4219 
Q 1781 4219 1451 3797 
Q 1122 3375 1075 2522 
Q 1259 2794 1537 2939 
Q 1816 3084 2150 3084 
Q 2853 3084 3261 2657 
Q 3669 2231 3669 1497 
Q 3669 778 3244 343 
Q 2819 -91 2113 -91 
Q 1303 -91 875 529 
Q 447 1150 447 2328 
Q 447 3434 972 4092 
Q 1497 4750 2381 4750 
Q 2619 4750 2861 4703 
Q 3103 4656 3366 4563 
z
" transform="scale(0.015625)"/>
       </defs>
       <use xlink:href="#DejaVuSans-36"/>
       <use xlink:href="#DejaVuSans-30" x="63.623047"/>
      </g>
     </g>
    </g>
    <g id="text_8">
     <!-- Epoch -->
     <g transform="translate(220.849063 335.860562) scale(0.1 -0.1)">
      <defs>
       <path id="DejaVuSans-45" d="M 628 4666 
L 3578 4666 
L 3578 4134 
L 1259 4134 
L 1259 2753 
L 3481 2753 
L 3481 2222 
L 1259 2222 
L 1259 531 
L 3634 531 
L 3634 0 
L 628 0 
L 628 4666 
z
" transform="scale(0.015625)"/>
       <path id="DejaVuSans-70" d="M 1159 525 
L 1159 -1331 
L 581 -1331 
L 581 3500 
L 1159 3500 
L 1159 2969 
Q 1341 3281 1617 3432 
Q 1894 3584 2278 3584 
Q 2916 3584 3314 3078 
Q 3713 2572 3713 1747 
Q 3713 922 3314 415 
Q 2916 -91 2278 -91 
Q 1894 -91 1617 61 
Q 1341 213 1159 525 
z
M 3116 1747 
Q 3116 2381 2855 2742 
Q 2594 3103 2138 3103 
Q 1681 3103 1420 2742 
Q 1159 2381 1159 1747 
Q 1159 1113 1420 752 
Q 1681 391 2138 391 
Q 2594 391 2855 752 
Q 3116 1113 3116 1747 
z
" transform="scale(0.015625)"/>
       <path id="DejaVuSans-6f" d="M 1959 3097 
Q 1497 3097 1228 2736 
Q 959 2375 959 1747 
Q 959 1119 1226 758 
Q 1494 397 1959 397 
Q 2419 397 2687 759 
Q 2956 1122 2956 1747 
Q 2956 2369 2687 2733 
Q 2419 3097 1959 3097 
z
M 1959 3584 
Q 2709 3584 3137 3096 
Q 3566 2609 3566 1747 
Q 3566 888 3137 398 
Q 2709 -91 1959 -91 
Q 1206 -91 779 398 
Q 353 888 353 1747 
Q 353 2609 779 3096 
Q 1206 3584 1959 3584 
z
" transform="scale(0.015625)"/>
       <path id="DejaVuSans-63" d="M 3122 3366 
L 3122 2828 
Q 2878 2963 2633 3030 
Q 2388 3097 2138 3097 
Q 1578 3097 1268 2742 
Q 959 2388 959 1747 
Q 959 1106 1268 751 
Q 1578 397 2138 397 
Q 2388 397 2633 464 
Q 2878 531 3122 666 
L 3122 134 
Q 2881 22 2623 -34 
Q 2366 -91 2075 -91 
Q 1284 -91 818 406 
Q 353 903 353 1747 
Q 353 2603 823 3093 
Q 1294 3584 2113 3584 
Q 2378 3584 2631 3529 
Q 2884 3475 3122 3366 
z
" transform="scale(0.015625)"/>
       <path id="DejaVuSans-68" d="M 3513 2113 
L 3513 0 
L 2938 0 
L 2938 2094 
Q 2938 2591 2744 2837 
Q 2550 3084 2163 3084 
Q 1697 3084 1428 2787 
Q 1159 2491 1159 1978 
L 1159 0 
L 581 0 
L 581 4863 
L 1159 4863 
L 1159 2956 
Q 1366 3272 1645 3428 
Q 1925 3584 2291 3584 
Q 2894 3584 3203 3211 
Q 3513 2838 3513 2113 
z
" transform="scale(0.015625)"/>
      </defs>
      <use xlink:href="#DejaVuSans-45"/>
      <use xlink:href="#DejaVuSans-70" x="63.183594"/>
      <use xlink:href="#DejaVuSans-6f" x="126.660156"/>
      <use xlink:href="#DejaVuSans-63" x="187.841797"/>
      <use xlink:href="#DejaVuSans-68" x="242.822266"/>
     </g>
    </g>
   </g>
   <g id="matplotlib.axis_2">
    <g id="ytick_1">
     <g id="line2d_8">
      <defs>
       <path id="m9c944efd18" d="M 0 0 
L -3.5 0 
" style="stroke: #000000; stroke-width: 0.8"/>
      </defs>
      <g>
       <use xlink:href="#m9c944efd18" x="57.6" y="304.43937" style="stroke: #000000; stroke-width: 0.8"/>
      </g>
     </g>
     <g id="text_9">
      <!-- 0.0 -->
      <g transform="translate(34.696875 308.238589) scale(0.1 -0.1)">
       <defs>
        <path id="DejaVuSans-2e" d="M 684 794 
L 1344 794 
L 1344 0 
L 684 0 
L 684 794 
z
" transform="scale(0.015625)"/>
       </defs>
       <use xlink:href="#DejaVuSans-30"/>
       <use xlink:href="#DejaVuSans-2e" x="63.623047"/>
       <use xlink:href="#DejaVuSans-30" x="95.410156"/>
      </g>
     </g>
    </g>
    <g id="ytick_2">
     <g id="line2d_9">
      <g>
       <use xlink:href="#m9c944efd18" x="57.6" y="253.414891" style="stroke: #000000; stroke-width: 0.8"/>
      </g>
     </g>
     <g id="text_10">
      <!-- 0.5 -->
      <g transform="translate(34.696875 257.21411) scale(0.1 -0.1)">
       <use xlink:href="#DejaVuSans-30"/>
       <use xlink:href="#DejaVuSans-2e" x="63.623047"/>
       <use xlink:href="#DejaVuSans-35" x="95.410156"/>
      </g>
     </g>
    </g>
    <g id="ytick_3">
     <g id="line2d_10">
      <g>
       <use xlink:href="#m9c944efd18" x="57.6" y="202.390412" style="stroke: #000000; stroke-width: 0.8"/>
      </g>
     </g>
     <g id="text_11">
      <!-- 1.0 -->
      <g transform="translate(34.696875 206.189631) scale(0.1 -0.1)">
       <use xlink:href="#DejaVuSans-31"/>
       <use xlink:href="#DejaVuSans-2e" x="63.623047"/>
       <use xlink:href="#DejaVuSans-30" x="95.410156"/>
      </g>
     </g>
    </g>
    <g id="ytick_4">
     <g id="line2d_11">
      <g>
       <use xlink:href="#m9c944efd18" x="57.6" y="151.365932" style="stroke: #000000; stroke-width: 0.8"/>
      </g>
     </g>
     <g id="text_12">
      <!-- 1.5 -->
      <g transform="translate(34.696875 155.165151) scale(0.1 -0.1)">
       <use xlink:href="#DejaVuSans-31"/>
       <use xlink:href="#DejaVuSans-2e" x="63.623047"/>
       <use xlink:href="#DejaVuSans-35" x="95.410156"/>
      </g>
     </g>
    </g>
    <g id="ytick_5">
     <g id="line2d_12">
      <g>
       <use xlink:href="#m9c944efd18" x="57.6" y="100.341453" style="stroke: #000000; stroke-width: 0.8"/>
      </g>
     </g>
     <g id="text_13">
      <!-- 2.0 -->
      <g transform="translate(34.696875 104.140672) scale(0.1 -0.1)">
       <use xlink:href="#DejaVuSans-32"/>
       <use xlink:href="#DejaVuSans-2e" x="63.623047"/>
       <use xlink:href="#DejaVuSans-30" x="95.410156"/>
      </g>
     </g>
    </g>
    <g id="ytick_6">
     <g id="line2d_13">
      <g>
       <use xlink:href="#m9c944efd18" x="57.6" y="49.316974" style="stroke: #000000; stroke-width: 0.8"/>
      </g>
     </g>
     <g id="text_14">
      <!-- 2.5 -->
      <g transform="translate(34.696875 53.116193) scale(0.1 -0.1)">
       <use xlink:href="#DejaVuSans-32"/>
       <use xlink:href="#DejaVuSans-2e" x="63.623047"/>
       <use xlink:href="#DejaVuSans-35" x="95.410156"/>
      </g>
     </g>
    </g>
    <g id="text_15">
     <!-- train_loss -->
     <g transform="translate(28.339062 198.323312) rotate(-90) scale(0.1 -0.1)">
      <defs>
       <path id="DejaVuSans-74" d="M 1172 4494 
L 1172 3500 
L 2356 3500 
L 2356 3053 
L 1172 3053 
L 1172 1153 
Q 1172 725 1289 603 
Q 1406 481 1766 481 
L 2356 481 
L 2356 0 
L 1766 0 
Q 1100 0 847 248 
Q 594 497 594 1153 
L 594 3053 
L 172 3053 
L 172 3500 
L 594 3500 
L 594 4494 
L 1172 4494 
z
" transform="scale(0.015625)"/>
       <path id="DejaVuSans-72" d="M 2631 2963 
Q 2534 3019 2420 3045 
Q 2306 3072 2169 3072 
Q 1681 3072 1420 2755 
Q 1159 2438 1159 1844 
L 1159 0 
L 581 0 
L 581 3500 
L 1159 3500 
L 1159 2956 
Q 1341 3275 1631 3429 
Q 1922 3584 2338 3584 
Q 2397 3584 2469 3576 
Q 2541 3569 2628 3553 
L 2631 2963 
z
" transform="scale(0.015625)"/>
       <path id="DejaVuSans-61" d="M 2194 1759 
Q 1497 1759 1228 1600 
Q 959 1441 959 1056 
Q 959 750 1161 570 
Q 1363 391 1709 391 
Q 2188 391 2477 730 
Q 2766 1069 2766 1631 
L 2766 1759 
L 2194 1759 
z
M 3341 1997 
L 3341 0 
L 2766 0 
L 2766 531 
Q 2569 213 2275 61 
Q 1981 -91 1556 -91 
Q 1019 -91 701 211 
Q 384 513 384 1019 
Q 384 1609 779 1909 
Q 1175 2209 1959 2209 
L 2766 2209 
L 2766 2266 
Q 2766 2663 2505 2880 
Q 2244 3097 1772 3097 
Q 1472 3097 1187 3025 
Q 903 2953 641 2809 
L 641 3341 
Q 956 3463 1253 3523 
Q 1550 3584 1831 3584 
Q 2591 3584 2966 3190 
Q 3341 2797 3341 1997 
z
" transform="scale(0.015625)"/>
       <path id="DejaVuSans-69" d="M 603 3500 
L 1178 3500 
L 1178 0 
L 603 0 
L 603 3500 
z
M 603 4863 
L 1178 4863 
L 1178 4134 
L 603 4134 
L 603 4863 
z
" transform="scale(0.015625)"/>
       <path id="DejaVuSans-6e" d="M 3513 2113 
L 3513 0 
L 2938 0 
L 2938 2094 
Q 2938 2591 2744 2837 
Q 2550 3084 2163 3084 
Q 1697 3084 1428 2787 
Q 1159 2491 1159 1978 
L 1159 0 
L 581 0 
L 581 3500 
L 1159 3500 
L 1159 2956 
Q 1366 3272 1645 3428 
Q 1925 3584 2291 3584 
Q 2894 3584 3203 3211 
Q 3513 2838 3513 2113 
z
" transform="scale(0.015625)"/>
       <path id="DejaVuSans-5f" d="M 3263 -1063 
L 3263 -1509 
L -63 -1509 
L -63 -1063 
L 3263 -1063 
z
" transform="scale(0.015625)"/>
       <path id="DejaVuSans-6c" d="M 603 4863 
L 1178 4863 
L 1178 0 
L 603 0 
L 603 4863 
z
" transform="scale(0.015625)"/>
       <path id="DejaVuSans-73" d="M 2834 3397 
L 2834 2853 
Q 2591 2978 2328 3040 
Q 2066 3103 1784 3103 
Q 1356 3103 1142 2972 
Q 928 2841 928 2578 
Q 928 2378 1081 2264 
Q 1234 2150 1697 2047 
L 1894 2003 
Q 2506 1872 2764 1633 
Q 3022 1394 3022 966 
Q 3022 478 2636 193 
Q 2250 -91 1575 -91 
Q 1294 -91 989 -36 
Q 684 19 347 128 
L 347 722 
Q 666 556 975 473 
Q 1284 391 1588 391 
Q 1994 391 2212 530 
Q 2431 669 2431 922 
Q 2431 1156 2273 1281 
Q 2116 1406 1581 1522 
L 1381 1569 
Q 847 1681 609 1914 
Q 372 2147 372 2553 
Q 372 3047 722 3315 
Q 1072 3584 1716 3584 
Q 2034 3584 2315 3537 
Q 2597 3491 2834 3397 
z
" transform="scale(0.015625)"/>
      </defs>
      <use xlink:href="#DejaVuSans-74"/>
      <use xlink:href="#DejaVuSans-72" x="39.208984"/>
      <use xlink:href="#DejaVuSans-61" x="80.322266"/>
      <use xlink:href="#DejaVuSans-69" x="141.601562"/>
      <use xlink:href="#DejaVuSans-6e" x="169.384766"/>
      <use xlink:href="#DejaVuSans-5f" x="232.763672"/>
      <use xlink:href="#DejaVuSans-6c" x="282.763672"/>
      <use xlink:href="#DejaVuSans-6f" x="310.546875"/>
      <use xlink:href="#DejaVuSans-73" x="371.728516"/>
      <use xlink:href="#DejaVuSans-73" x="423.828125"/>
     </g>
    </g>
   </g>
   <g id="line2d_14">
    <path d="M 73.832727 54.478418 
L 78.985974 96.734087 
L 84.139221 182.225123 
L 89.292468 188.142828 
L 94.445714 198.060154 
L 99.598961 201.890824 
L 104.752208 204.233863 
L 109.905455 206.173784 
L 115.058701 207.839721 
L 120.211948 210.43568 
L 125.365195 212.379129 
L 130.518442 213.867934 
L 135.671688 215.150431 
L 140.824935 217.078886 
L 145.978182 217.289441 
L 151.131429 218.49096 
L 156.284675 218.284498 
L 161.437922 218.468947 
L 166.591169 218.585368 
L 171.744416 218.902386 
L 176.897662 219.177179 
L 182.050909 220.274132 
L 187.204156 221.349249 
L 192.357403 221.792876 
L 197.510649 223.002923 
L 202.663896 225.013864 
L 207.817143 224.86624 
L 212.97039 225.342823 
L 218.123636 225.4195 
L 223.276883 225.276669 
L 228.43013 225.983071 
L 233.583377 227.039179 
L 238.736623 227.895042 
L 243.88987 228.469665 
L 249.043117 230.771664 
L 254.196364 231.343926 
L 259.34961 233.459221 
L 264.502857 234.075649 
L 269.656104 234.964535 
L 274.809351 235.83822 
L 279.962597 236.942624 
L 285.115844 237.758409 
L 290.269091 238.599388 
L 295.422338 239.510925 
L 300.575584 241.035807 
L 305.728831 241.40884 
L 310.882078 242.10683 
L 316.035325 242.689147 
L 321.188571 243.932282 
L 326.341818 243.716934 
L 331.495065 245.370146 
L 336.648312 246.480487 
L 341.801558 247.695345 
L 346.954805 248.106522 
L 352.108052 248.702154 
L 357.261299 249.385515 
L 362.414545 249.744515 
L 367.567792 250.162201 
L 372.721039 251.465889 
L 377.874286 250.345706 
L 383.027532 251.03203 
L 388.180779 252.68397 
L 393.334026 252.901885 
L 398.487273 252.71414 
" clip-path="url(#p0b0a913efa)" style="fill: none; stroke: #0000ff; stroke-width: 1.5; stroke-linecap: square"/>
   </g>
   <g id="line2d_15">
    <path d="M 73.832727 54.321949 
L 78.985974 82.962344 
L 84.139221 99.06389 
L 89.292468 174.185688 
L 94.445714 191.952538 
L 99.598961 199.800432 
L 104.752208 203.635427 
L 109.905455 207.695265 
L 115.058701 209.979504 
L 120.211948 209.814495 
L 125.365195 212.324878 
L 130.518442 212.450952 
L 135.671688 213.818331 
L 140.824935 215.094817 
L 145.978182 216.687416 
L 151.131429 217.487156 
L 156.284675 218.548209 
L 161.437922 218.059728 
L 166.591169 220.371928 
L 171.744416 221.072825 
L 176.897662 222.023346 
L 182.050909 223.707482 
L 187.204156 224.684626 
L 192.357403 222.044902 
L 197.510649 221.506946 
L 202.663896 224.950982 
L 207.817143 228.169744 
L 212.97039 228.348408 
L 218.123636 233.103742 
L 223.276883 233.36474 
L 228.43013 236.395318 
L 233.583377 238.640817 
L 238.736623 237.475459 
L 243.88987 241.870789 
L 249.043117 243.958729 
L 254.196364 244.327499 
L 259.34961 246.098293 
L 264.502857 246.01231 
L 269.656104 248.622727 
L 274.809351 248.899108 
L 279.962597 252.74066 
L 285.115844 254.856423 
L 290.269091 254.314695 
L 295.422338 256.642022 
L 300.575584 257.379001 
L 305.728831 259.009285 
L 310.882078 258.250378 
L 316.035325 260.555787 
L 321.188571 260.401031 
L 326.341818 261.992705 
L 331.495065 261.492345 
L 336.648312 261.860661 
L 341.801558 263.466499 
L 346.954805 263.707719 
L 352.108052 266.171543 
L 357.261299 266.932123 
L 362.414545 267.174967 
L 367.567792 267.573143 
L 372.721039 267.370753 
L 377.874286 268.625267 
L 383.027532 268.192107 
L 388.180779 268.711883 
L 393.334026 268.711491 
L 398.487273 268.357122 
" clip-path="url(#p0b0a913efa)" style="fill: none; stroke-dasharray: 5.55,2.4; stroke-dashoffset: 0; stroke: #0033e6; stroke-width: 1.5"/>
   </g>
   <g id="line2d_16">
    <path d="M 73.832727 72.384814 
L 78.985974 158.549936 
L 84.139221 192.432065 
L 89.292468 202.737722 
L 94.445714 209.48328 
L 99.598961 217.403745 
L 104.752208 222.325809 
L 109.905455 225.597897 
L 115.058701 223.505077 
L 120.211948 230.588487 
L 125.365195 231.492117 
L 130.518442 232.081775 
L 135.671688 235.878146 
L 140.824935 237.173355 
L 145.978182 239.22466 
L 151.131429 236.519671 
L 156.284675 241.630167 
L 161.437922 243.196568 
L 166.591169 246.193559 
L 171.744416 247.761402 
L 176.897662 248.730486 
L 182.050909 250.33362 
L 187.204156 251.819153 
L 192.357403 253.382252 
L 197.510649 253.689894 
L 202.663896 254.930387 
L 207.817143 254.537734 
L 212.97039 255.581644 
L 218.123636 255.886786 
L 223.276883 256.848441 
L 228.43013 259.114867 
L 233.583377 259.888509 
L 238.736623 260.059034 
L 243.88987 260.711006 
L 249.043117 262.204109 
L 254.196364 263.749911 
L 259.34961 264.694945 
L 264.502857 264.960219 
L 269.656104 265.095517 
L 274.809351 263.42646 
L 279.962597 263.498883 
L 285.115844 266.32345 
L 290.269091 266.705351 
L 295.422338 268.780899 
L 300.575584 268.971841 
L 305.728831 268.924296 
L 310.882078 270.353848 
L 316.035325 271.648452 
L 321.188571 271.364927 
L 326.341818 272.526112 
L 331.495065 273.634886 
L 336.648312 271.361642 
L 341.801558 274.399483 
L 346.954805 276.807977 
L 352.108052 274.382492 
L 357.261299 275.40462 
L 362.414545 277.258232 
L 367.567792 278.442862 
L 372.721039 277.37426 
L 377.874286 277.193361 
L 383.027532 278.126242 
L 388.180779 277.148088 
L 393.334026 277.684351 
L 398.487273 278.031597 
" clip-path="url(#p0b0a913efa)" style="fill: none; stroke-dasharray: 9.6,2.4,1.5,2.4; stroke-dashoffset: 0; stroke: #0066cc; stroke-width: 1.5"/>
   </g>
   <g id="line2d_17">
    <path d="M 73.832727 53.568 
L 78.985974 181.392149 
L 84.139221 208.051967 
L 89.292468 221.297011 
L 94.445714 231.268089 
L 99.598961 241.261447 
L 104.752208 248.918183 
L 109.905455 249.928933 
L 115.058701 259.154854 
L 120.211948 260.591407 
L 125.365195 262.570816 
L 130.518442 267.676924 
L 135.671688 268.205562 
L 140.824935 268.037211 
L 145.978182 269.119301 
L 151.131429 271.248689 
L 156.284675 271.346475 
L 161.437922 272.628847 
L 166.591169 274.312685 
L 171.744416 276.382551 
L 176.897662 276.670632 
L 182.050909 276.41214 
L 187.204156 277.175545 
L 192.357403 272.41193 
L 197.510649 276.71193 
L 202.663896 275.152563 
L 207.817143 278.729395 
L 212.97039 281.287575 
L 218.123636 281.497868 
L 223.276883 281.95794 
L 228.43013 280.829255 
L 233.583377 284.042291 
L 238.736623 284.690087 
L 243.88987 284.312737 
L 249.043117 285.74399 
L 254.196364 286.137896 
L 259.34961 288.17226 
L 264.502857 287.214157 
L 269.656104 287.098214 
L 274.809351 286.287911 
L 279.962597 288.524874 
L 285.115844 288.990229 
L 290.269091 288.949046 
L 295.422338 286.86764 
L 300.575584 288.596889 
L 305.728831 288.432367 
L 310.882078 287.768929 
L 316.035325 288.859704 
L 321.188571 290.473548 
L 326.341818 289.352972 
L 331.495065 290.303492 
L 336.648312 289.63535 
L 341.801558 290.528978 
L 346.954805 292.126552 
L 352.108052 290.954107 
L 357.261299 289.00773 
L 362.414545 289.725378 
L 367.567792 291.9148 
L 372.721039 290.045636 
L 377.874286 292.240876 
L 383.027532 292.3463 
L 388.180779 291.014508 
L 393.334026 291.129183 
L 398.487273 291.201258 
" clip-path="url(#p0b0a913efa)" style="fill: none; stroke-dasharray: 1.5,2.475; stroke-dashoffset: 0; stroke: #0099b2; stroke-width: 1.5"/>
   </g>
   <g id="line2d_18">
    <path d="M 73.832727 110.311697 
L 78.985974 200.667907 
L 84.139221 222.335079 
L 89.292468 239.34349 
L 94.445714 249.305358 
L 99.598961 257.09301 
L 104.752208 262.67144 
L 109.905455 269.354785 
L 115.058701 269.20006 
L 120.211948 269.049087 
L 125.365195 270.433366 
L 130.518442 271.844451 
L 135.671688 277.1471 
L 140.824935 280.193082 
L 145.978182 280.689063 
L 151.131429 281.73118 
L 156.284675 281.29882 
L 161.437922 281.887366 
L 166.591169 281.316802 
L 171.744416 283.754302 
L 176.897662 284.334213 
L 182.050909 286.593406 
L 187.204156 286.979576 
L 192.357403 287.75677 
L 197.510649 286.291395 
L 202.663896 283.973754 
L 207.817143 288.464201 
L 212.97039 288.845813 
L 218.123636 290.414534 
L 223.276883 289.647448 
L 228.43013 290.150565 
L 233.583377 286.519384 
L 238.736623 289.077851 
L 243.88987 286.935258 
L 249.043117 290.828024 
L 254.196364 289.155964 
L 259.34961 292.253605 
L 264.502857 291.386654 
L 269.656104 291.755167 
L 274.809351 292.777847 
L 279.962597 292.333949 
L 285.115844 291.435393 
L 290.269091 293.093531 
L 295.422338 294.110363 
L 300.575584 293.370637 
L 305.728831 293.783874 
L 310.882078 294.023881 
L 316.035325 294.017045 
L 321.188571 293.568642 
L 326.341818 293.876985 
L 331.495065 292.93521 
L 336.648312 295.183771 
L 341.801558 294.182167 
L 346.954805 295.488 
L 352.108052 294.695533 
L 357.261299 290.130494 
L 362.414545 289.106879 
L 367.567792 295.364149 
L 372.721039 294.219146 
L 377.874286 294.155452 
L 383.027532 295.308971 
L 388.180779 295.424301 
L 393.334026 289.047966 
L 398.487273 294.940625 
" clip-path="url(#p0b0a913efa)" style="fill: none; stroke: #00cc99; stroke-width: 1.5; stroke-linecap: square"/>
   </g>
   <g id="patch_3">
    <path d="M 57.6 307.584 
L 57.6 41.472 
" style="fill: none; stroke: #000000; stroke-width: 0.8; stroke-linejoin: miter; stroke-linecap: square"/>
   </g>
   <g id="patch_4">
    <path d="M 414.72 307.584 
L 414.72 41.472 
" style="fill: none; stroke: #000000; stroke-width: 0.8; stroke-linejoin: miter; stroke-linecap: square"/>
   </g>
   <g id="patch_5">
    <path d="M 57.6 307.584 
L 414.72 307.584 
" style="fill: none; stroke: #000000; stroke-width: 0.8; stroke-linejoin: miter; stroke-linecap: square"/>
   </g>
   <g id="patch_6">
    <path d="M 57.6 41.472 
L 414.72 41.472 
" style="fill: none; stroke: #000000; stroke-width: 0.8; stroke-linejoin: miter; stroke-linecap: square"/>
   </g>
   <g id="text_16">
    <!-- Train loss for all Transformer variations -->
    <g transform="translate(119.727187 35.472) scale(0.12 -0.12)">
     <defs>
      <path id="DejaVuSans-54" d="M -19 4666 
L 3928 4666 
L 3928 4134 
L 2272 4134 
L 2272 0 
L 1638 0 
L 1638 4134 
L -19 4134 
L -19 4666 
z
" transform="scale(0.015625)"/>
      <path id="DejaVuSans-20" transform="scale(0.015625)"/>
      <path id="DejaVuSans-66" d="M 2375 4863 
L 2375 4384 
L 1825 4384 
Q 1516 4384 1395 4259 
Q 1275 4134 1275 3809 
L 1275 3500 
L 2222 3500 
L 2222 3053 
L 1275 3053 
L 1275 0 
L 697 0 
L 697 3053 
L 147 3053 
L 147 3500 
L 697 3500 
L 697 3744 
Q 697 4328 969 4595 
Q 1241 4863 1831 4863 
L 2375 4863 
z
" transform="scale(0.015625)"/>
      <path id="DejaVuSans-6d" d="M 3328 2828 
Q 3544 3216 3844 3400 
Q 4144 3584 4550 3584 
Q 5097 3584 5394 3201 
Q 5691 2819 5691 2113 
L 5691 0 
L 5113 0 
L 5113 2094 
Q 5113 2597 4934 2840 
Q 4756 3084 4391 3084 
Q 3944 3084 3684 2787 
Q 3425 2491 3425 1978 
L 3425 0 
L 2847 0 
L 2847 2094 
Q 2847 2600 2669 2842 
Q 2491 3084 2119 3084 
Q 1678 3084 1418 2786 
Q 1159 2488 1159 1978 
L 1159 0 
L 581 0 
L 581 3500 
L 1159 3500 
L 1159 2956 
Q 1356 3278 1631 3431 
Q 1906 3584 2284 3584 
Q 2666 3584 2933 3390 
Q 3200 3197 3328 2828 
z
" transform="scale(0.015625)"/>
      <path id="DejaVuSans-65" d="M 3597 1894 
L 3597 1613 
L 953 1613 
Q 991 1019 1311 708 
Q 1631 397 2203 397 
Q 2534 397 2845 478 
Q 3156 559 3463 722 
L 3463 178 
Q 3153 47 2828 -22 
Q 2503 -91 2169 -91 
Q 1331 -91 842 396 
Q 353 884 353 1716 
Q 353 2575 817 3079 
Q 1281 3584 2069 3584 
Q 2775 3584 3186 3129 
Q 3597 2675 3597 1894 
z
M 3022 2063 
Q 3016 2534 2758 2815 
Q 2500 3097 2075 3097 
Q 1594 3097 1305 2825 
Q 1016 2553 972 2059 
L 3022 2063 
z
" transform="scale(0.015625)"/>
      <path id="DejaVuSans-76" d="M 191 3500 
L 800 3500 
L 1894 563 
L 2988 3500 
L 3597 3500 
L 2284 0 
L 1503 0 
L 191 3500 
z
" transform="scale(0.015625)"/>
     </defs>
     <use xlink:href="#DejaVuSans-54"/>
     <use xlink:href="#DejaVuSans-72" x="46.333984"/>
     <use xlink:href="#DejaVuSans-61" x="87.447266"/>
     <use xlink:href="#DejaVuSans-69" x="148.726562"/>
     <use xlink:href="#DejaVuSans-6e" x="176.509766"/>
     <use xlink:href="#DejaVuSans-20" x="239.888672"/>
     <use xlink:href="#DejaVuSans-6c" x="271.675781"/>
     <use xlink:href="#DejaVuSans-6f" x="299.458984"/>
     <use xlink:href="#DejaVuSans-73" x="360.640625"/>
     <use xlink:href="#DejaVuSans-73" x="412.740234"/>
     <use xlink:href="#DejaVuSans-20" x="464.839844"/>
     <use xlink:href="#DejaVuSans-66" x="496.626953"/>
     <use xlink:href="#DejaVuSans-6f" x="531.832031"/>
     <use xlink:href="#DejaVuSans-72" x="593.013672"/>
     <use xlink:href="#DejaVuSans-20" x="634.126953"/>
     <use xlink:href="#DejaVuSans-61" x="665.914062"/>
     <use xlink:href="#DejaVuSans-6c" x="727.193359"/>
     <use xlink:href="#DejaVuSans-6c" x="754.976562"/>
     <use xlink:href="#DejaVuSans-20" x="782.759766"/>
     <use xlink:href="#DejaVuSans-54" x="814.546875"/>
     <use xlink:href="#DejaVuSans-72" x="860.880859"/>
     <use xlink:href="#DejaVuSans-61" x="901.994141"/>
     <use xlink:href="#DejaVuSans-6e" x="963.273438"/>
     <use xlink:href="#DejaVuSans-73" x="1026.652344"/>
     <use xlink:href="#DejaVuSans-66" x="1078.751953"/>
     <use xlink:href="#DejaVuSans-6f" x="1113.957031"/>
     <use xlink:href="#DejaVuSans-72" x="1175.138672"/>
     <use xlink:href="#DejaVuSans-6d" x="1214.501953"/>
     <use xlink:href="#DejaVuSans-65" x="1311.914062"/>
     <use xlink:href="#DejaVuSans-72" x="1373.4375"/>
     <use xlink:href="#DejaVuSans-20" x="1414.550781"/>
     <use xlink:href="#DejaVuSans-76" x="1446.337891"/>
     <use xlink:href="#DejaVuSans-61" x="1505.517578"/>
     <use xlink:href="#DejaVuSans-72" x="1566.796875"/>
     <use xlink:href="#DejaVuSans-69" x="1607.910156"/>
     <use xlink:href="#DejaVuSans-61" x="1635.693359"/>
     <use xlink:href="#DejaVuSans-74" x="1696.972656"/>
     <use xlink:href="#DejaVuSans-69" x="1736.181641"/>
     <use xlink:href="#DejaVuSans-6f" x="1763.964844"/>
     <use xlink:href="#DejaVuSans-6e" x="1825.146484"/>
     <use xlink:href="#DejaVuSans-73" x="1888.525391"/>
    </g>
   </g>
   <g id="legend_1">
    <g id="patch_7">
     <path d="M 234.884062 124.25325 
L 407.72 124.25325 
Q 409.72 124.25325 409.72 122.25325 
L 409.72 48.472 
Q 409.72 46.472 407.72 46.472 
L 234.884062 46.472 
Q 232.884062 46.472 232.884062 48.472 
L 232.884062 122.25325 
Q 232.884062 124.25325 234.884062 124.25325 
z
" style="fill: #ffffff; opacity: 0.8; stroke: #cccccc; stroke-linejoin: miter"/>
    </g>
    <g id="line2d_19">
     <path d="M 236.884062 54.570438 
L 246.884062 54.570438 
L 256.884063 54.570438 
" style="fill: none; stroke: #0000ff; stroke-width: 1.5; stroke-linecap: square"/>
    </g>
    <g id="text_17">
     <!-- transformer_small -->
     <g transform="translate(264.884063 58.070438) scale(0.1 -0.1)">
      <use xlink:href="#DejaVuSans-74"/>
      <use xlink:href="#DejaVuSans-72" x="39.208984"/>
      <use xlink:href="#DejaVuSans-61" x="80.322266"/>
      <use xlink:href="#DejaVuSans-6e" x="141.601562"/>
      <use xlink:href="#DejaVuSans-73" x="204.980469"/>
      <use xlink:href="#DejaVuSans-66" x="257.080078"/>
      <use xlink:href="#DejaVuSans-6f" x="292.285156"/>
      <use xlink:href="#DejaVuSans-72" x="353.466797"/>
      <use xlink:href="#DejaVuSans-6d" x="392.830078"/>
      <use xlink:href="#DejaVuSans-65" x="490.242188"/>
      <use xlink:href="#DejaVuSans-72" x="551.765625"/>
      <use xlink:href="#DejaVuSans-5f" x="592.878906"/>
      <use xlink:href="#DejaVuSans-73" x="642.878906"/>
      <use xlink:href="#DejaVuSans-6d" x="694.978516"/>
      <use xlink:href="#DejaVuSans-61" x="792.390625"/>
      <use xlink:href="#DejaVuSans-6c" x="853.669922"/>
      <use xlink:href="#DejaVuSans-6c" x="881.453125"/>
     </g>
    </g>
    <g id="line2d_20">
     <path d="M 236.884062 69.526688 
L 246.884062 69.526688 
L 256.884063 69.526688 
" style="fill: none; stroke-dasharray: 5.55,2.4; stroke-dashoffset: 0; stroke: #0033e6; stroke-width: 1.5"/>
    </g>
    <g id="text_18">
     <!-- transformer_mid -->
     <g transform="translate(264.884063 73.026688) scale(0.1 -0.1)">
      <defs>
       <path id="DejaVuSans-64" d="M 2906 2969 
L 2906 4863 
L 3481 4863 
L 3481 0 
L 2906 0 
L 2906 525 
Q 2725 213 2448 61 
Q 2172 -91 1784 -91 
Q 1150 -91 751 415 
Q 353 922 353 1747 
Q 353 2572 751 3078 
Q 1150 3584 1784 3584 
Q 2172 3584 2448 3432 
Q 2725 3281 2906 2969 
z
M 947 1747 
Q 947 1113 1208 752 
Q 1469 391 1925 391 
Q 2381 391 2643 752 
Q 2906 1113 2906 1747 
Q 2906 2381 2643 2742 
Q 2381 3103 1925 3103 
Q 1469 3103 1208 2742 
Q 947 2381 947 1747 
z
" transform="scale(0.015625)"/>
      </defs>
      <use xlink:href="#DejaVuSans-74"/>
      <use xlink:href="#DejaVuSans-72" x="39.208984"/>
      <use xlink:href="#DejaVuSans-61" x="80.322266"/>
      <use xlink:href="#DejaVuSans-6e" x="141.601562"/>
      <use xlink:href="#DejaVuSans-73" x="204.980469"/>
      <use xlink:href="#DejaVuSans-66" x="257.080078"/>
      <use xlink:href="#DejaVuSans-6f" x="292.285156"/>
      <use xlink:href="#DejaVuSans-72" x="353.466797"/>
      <use xlink:href="#DejaVuSans-6d" x="392.830078"/>
      <use xlink:href="#DejaVuSans-65" x="490.242188"/>
      <use xlink:href="#DejaVuSans-72" x="551.765625"/>
      <use xlink:href="#DejaVuSans-5f" x="592.878906"/>
      <use xlink:href="#DejaVuSans-6d" x="642.878906"/>
      <use xlink:href="#DejaVuSans-69" x="740.291016"/>
      <use xlink:href="#DejaVuSans-64" x="768.074219"/>
     </g>
    </g>
    <g id="line2d_21">
     <path d="M 236.884062 84.482938 
L 246.884062 84.482938 
L 256.884063 84.482938 
" style="fill: none; stroke-dasharray: 9.6,2.4,1.5,2.4; stroke-dashoffset: 0; stroke: #0066cc; stroke-width: 1.5"/>
    </g>
    <g id="text_19">
     <!-- transformer_attn_mask -->
     <g transform="translate(264.884063 87.982938) scale(0.1 -0.1)">
      <defs>
       <path id="DejaVuSans-6b" d="M 581 4863 
L 1159 4863 
L 1159 1991 
L 2875 3500 
L 3609 3500 
L 1753 1863 
L 3688 0 
L 2938 0 
L 1159 1709 
L 1159 0 
L 581 0 
L 581 4863 
z
" transform="scale(0.015625)"/>
      </defs>
      <use xlink:href="#DejaVuSans-74"/>
      <use xlink:href="#DejaVuSans-72" x="39.208984"/>
      <use xlink:href="#DejaVuSans-61" x="80.322266"/>
      <use xlink:href="#DejaVuSans-6e" x="141.601562"/>
      <use xlink:href="#DejaVuSans-73" x="204.980469"/>
      <use xlink:href="#DejaVuSans-66" x="257.080078"/>
      <use xlink:href="#DejaVuSans-6f" x="292.285156"/>
      <use xlink:href="#DejaVuSans-72" x="353.466797"/>
      <use xlink:href="#DejaVuSans-6d" x="392.830078"/>
      <use xlink:href="#DejaVuSans-65" x="490.242188"/>
      <use xlink:href="#DejaVuSans-72" x="551.765625"/>
      <use xlink:href="#DejaVuSans-5f" x="592.878906"/>
      <use xlink:href="#DejaVuSans-61" x="642.878906"/>
      <use xlink:href="#DejaVuSans-74" x="704.158203"/>
      <use xlink:href="#DejaVuSans-74" x="743.367188"/>
      <use xlink:href="#DejaVuSans-6e" x="782.576172"/>
      <use xlink:href="#DejaVuSans-5f" x="845.955078"/>
      <use xlink:href="#DejaVuSans-6d" x="895.955078"/>
      <use xlink:href="#DejaVuSans-61" x="993.367188"/>
      <use xlink:href="#DejaVuSans-73" x="1054.646484"/>
      <use xlink:href="#DejaVuSans-6b" x="1106.746094"/>
     </g>
    </g>
    <g id="line2d_22">
     <path d="M 236.884062 99.439188 
L 246.884062 99.439188 
L 256.884063 99.439188 
" style="fill: none; stroke-dasharray: 1.5,2.475; stroke-dashoffset: 0; stroke: #0099b2; stroke-width: 1.5"/>
    </g>
    <g id="text_20">
     <!-- transformer_pos_enc -->
     <g transform="translate(264.884063 102.939188) scale(0.1 -0.1)">
      <use xlink:href="#DejaVuSans-74"/>
      <use xlink:href="#DejaVuSans-72" x="39.208984"/>
      <use xlink:href="#DejaVuSans-61" x="80.322266"/>
      <use xlink:href="#DejaVuSans-6e" x="141.601562"/>
      <use xlink:href="#DejaVuSans-73" x="204.980469"/>
      <use xlink:href="#DejaVuSans-66" x="257.080078"/>
      <use xlink:href="#DejaVuSans-6f" x="292.285156"/>
      <use xlink:href="#DejaVuSans-72" x="353.466797"/>
      <use xlink:href="#DejaVuSans-6d" x="392.830078"/>
      <use xlink:href="#DejaVuSans-65" x="490.242188"/>
      <use xlink:href="#DejaVuSans-72" x="551.765625"/>
      <use xlink:href="#DejaVuSans-5f" x="592.878906"/>
      <use xlink:href="#DejaVuSans-70" x="642.878906"/>
      <use xlink:href="#DejaVuSans-6f" x="706.355469"/>
      <use xlink:href="#DejaVuSans-73" x="767.537109"/>
      <use xlink:href="#DejaVuSans-5f" x="819.636719"/>
      <use xlink:href="#DejaVuSans-65" x="869.636719"/>
      <use xlink:href="#DejaVuSans-6e" x="931.160156"/>
      <use xlink:href="#DejaVuSans-63" x="994.539062"/>
     </g>
    </g>
    <g id="line2d_23">
     <path d="M 236.884062 114.395438 
L 246.884062 114.395438 
L 256.884063 114.395438 
" style="fill: none; stroke: #00cc99; stroke-width: 1.5; stroke-linecap: square"/>
    </g>
    <g id="text_21">
     <!-- transformer_skip_connexion -->
     <g transform="translate(264.884063 117.895438) scale(0.1 -0.1)">
      <defs>
       <path id="DejaVuSans-78" d="M 3513 3500 
L 2247 1797 
L 3578 0 
L 2900 0 
L 1881 1375 
L 863 0 
L 184 0 
L 1544 1831 
L 300 3500 
L 978 3500 
L 1906 2253 
L 2834 3500 
L 3513 3500 
z
" transform="scale(0.015625)"/>
      </defs>
      <use xlink:href="#DejaVuSans-74"/>
      <use xlink:href="#DejaVuSans-72" x="39.208984"/>
      <use xlink:href="#DejaVuSans-61" x="80.322266"/>
      <use xlink:href="#DejaVuSans-6e" x="141.601562"/>
      <use xlink:href="#DejaVuSans-73" x="204.980469"/>
      <use xlink:href="#DejaVuSans-66" x="257.080078"/>
      <use xlink:href="#DejaVuSans-6f" x="292.285156"/>
      <use xlink:href="#DejaVuSans-72" x="353.466797"/>
      <use xlink:href="#DejaVuSans-6d" x="392.830078"/>
      <use xlink:href="#DejaVuSans-65" x="490.242188"/>
      <use xlink:href="#DejaVuSans-72" x="551.765625"/>
      <use xlink:href="#DejaVuSans-5f" x="592.878906"/>
      <use xlink:href="#DejaVuSans-73" x="642.878906"/>
      <use xlink:href="#DejaVuSans-6b" x="694.978516"/>
      <use xlink:href="#DejaVuSans-69" x="752.888672"/>
      <use xlink:href="#DejaVuSans-70" x="780.671875"/>
      <use xlink:href="#DejaVuSans-5f" x="844.148438"/>
      <use xlink:href="#DejaVuSans-63" x="894.148438"/>
      <use xlink:href="#DejaVuSans-6f" x="949.128906"/>
      <use xlink:href="#DejaVuSans-6e" x="1010.310547"/>
      <use xlink:href="#DejaVuSans-6e" x="1073.689453"/>
      <use xlink:href="#DejaVuSans-65" x="1137.068359"/>
      <use xlink:href="#DejaVuSans-78" x="1196.841797"/>
      <use xlink:href="#DejaVuSans-69" x="1256.021484"/>
      <use xlink:href="#DejaVuSans-6f" x="1283.804688"/>
      <use xlink:href="#DejaVuSans-6e" x="1344.986328"/>
     </g>
    </g>
   </g>
  </g>
 </g>
 <defs>
  <clipPath id="p0b0a913efa">
   <rect x="57.6" y="41.472" width="357.12" height="266.112"/>
  </clipPath>
 </defs>
</svg>
