<svg version="1.1" xmlns="http://www.w3.org/2000/svg" viewBox="0 0 809.0411644225311 397.63920575255656" width="809.0411644225311" height="397.63920575255656">
  <!-- svg-source:excalidraw -->
  
  <defs>
    <style class="style-fonts">
      @font-face {
        font-family: "Virgil";
        src: url("https://excalidraw.com/Virgil.woff2");
      }
      @font-face {
        font-family: "Cascadia";
        src: url("https://excalidraw.com/Cascadia.woff2");
      }
    </style>
  </defs>
  <rect x="0" y="0" width="809.0411644225311" height="397.63920575255656" fill="#ffffff"></rect><g stroke-linecap="round" transform="translate(239.86968511226382 62.26128591623956) rotate(0 70 100)"><path d="M0 0 C28.6 0, 57.2 0, 140 0 M0 0 C35.01 0, 70.02 0, 140 0 M140 0 C140 67.83, 140 135.66, 140 200 M140 0 C140 62.34, 140 124.69, 140 200 M140 200 C108.06 200, 76.12 200, 0 200 M140 200 C95.95 200, 51.91 200, 0 200 M0 200 C0 143.16, 0 86.33, 0 0 M0 200 C0 158.63, 0 117.25, 0 0" stroke="#000000" stroke-width="1" fill="none"></path></g><g stroke-linecap="round" transform="translate(259.8473971516942 142.05518056589233) rotate(0 49.94428009857597 49.94428009857597)"><path d="M0 0 C36.47 0, 72.95 0, 99.89 0 M0 0 C26.42 0, 52.85 0, 99.89 0 M99.89 0 C99.89 38.15, 99.89 76.31, 99.89 99.89 M99.89 0 C99.89 30.24, 99.89 60.47, 99.89 99.89 M99.89 99.89 C65.66 99.89, 31.44 99.89, 0 99.89 M99.89 99.89 C68.15 99.89, 36.42 99.89, 0 99.89 M0 99.89 C0 71.09, 0 42.29, 0 0 M0 99.89 C0 74, 0 48.11, 0 0" stroke="#000000" stroke-width="1" fill="none"></path></g><g transform="translate(245.0546673001141 66.89460090793534) rotate(0 36.5 9.5)"><text x="36.5" y="15" font-family="Helvetica, Segoe UI Emoji" font-size="16px" fill="#000000" text-anchor="middle" style="white-space: pre;" direction="ltr">Shift SSM</text></g><g stroke-linecap="round" transform="translate(459.0331701550192 141.22499861104723) rotate(0 50 50)"><path d="M0 0 C35.01 0, 70.02 0, 100 0 M0 0 C21.94 0, 43.87 0, 100 0 M100 0 C100 34.56, 100 69.12, 100 100 M100 0 C100 37.63, 100 75.27, 100 100 M100 100 C79.23 100, 58.47 100, 0 100 M100 100 C61.57 100, 23.14 100, 0 100 M0 100 C0 64.34, 0 28.68, 0 0 M0 100 C0 72.5, 0 45, 0 0" stroke="#000000" stroke-width="1" fill="none"></path></g><g stroke-opacity="0.6" fill-opacity="0.6" stroke-linecap="round" transform="translate(459.1668313673927 141.4219634427102) rotate(0 10 10)"><path d="M0 0 L20 0 L20 20 L0 20" stroke="none" stroke-width="0" fill="#fa5252"></path><path d="M0 0 C7.85 0, 15.71 0, 20 0 M0 0 C4.01 0, 8.03 0, 20 0 M20 0 C20 6.13, 20 12.26, 20 20 M20 0 C20 4.27, 20 8.55, 20 20 M20 20 C15.51 20, 11.03 20, 0 20 M20 20 C13.14 20, 6.28 20, 0 20 M0 20 C0 15.4, 0 10.81, 0 0 M0 20 C0 16, 0 11.99, 0 0" stroke="#000000" stroke-width="1" fill="none"></path></g><g stroke-opacity="0.6" fill-opacity="0.6" stroke-linecap="round" transform="translate(479.1668313673927 161.4219634427102) rotate(0 10 10)"><path d="M0 0 L20 0 L20 20 L0 20" stroke="none" stroke-width="0" fill="#4c6ef5"></path><path d="M0 0 C6.75 0, 13.49 0, 20 0 M0 0 C5.18 0, 10.36 0, 20 0 M20 0 C20 4.62, 20 9.25, 20 20 M20 0 C20 5.33, 20 10.65, 20 20 M20 20 C13.01 20, 6.02 20, 0 20 M20 20 C13.76 20, 7.52 20, 0 20 M0 20 C0 14.52, 0 9.05, 0 0 M0 20 C0 12.9, 0 5.8, 0 0" stroke="#000000" stroke-width="1" fill="none"></path></g><g stroke-opacity="0.6" fill-opacity="0.6" stroke-linecap="round" transform="translate(499.0331701550192 181.4219634427102) rotate(0 10 10)"><path d="M0 0 L20 0 L20 20 L0 20" stroke="none" stroke-width="0" fill="#fab005"></path><path d="M0 0 C4.16 0, 8.32 0, 20 0 M0 0 C6.59 0, 13.18 0, 20 0 M20 0 C20 6.05, 20 12.1, 20 20 M20 0 C20 6.14, 20 12.27, 20 20 M20 20 C14.01 20, 8.03 20, 0 20 M20 20 C13.53 20, 7.06 20, 0 20 M0 20 C0 13.37, 0 6.74, 0 0 M0 20 C0 12.36, 0 4.72, 0 0" stroke="#000000" stroke-width="1" fill="none"></path></g><g stroke-opacity="0.6" fill-opacity="0.6" stroke-linecap="round" transform="translate(519.0331701550192 201.3550500434037) rotate(0 10 10)"><path d="M0 0 L20 0 L20 20 L0 20" stroke="none" stroke-width="0" fill="#fd7e14"></path><path d="M0 0 C5.92 0, 11.84 0, 20 0 M0 0 C4.34 0, 8.68 0, 20 0 M20 0 C20 5.43, 20 10.87, 20 20 M20 0 C20 5.77, 20 11.53, 20 20 M20 20 C15.11 20, 10.22 20, 0 20 M20 20 C12.63 20, 5.25 20, 0 20 M0 20 C0 14.96, 0 9.92, 0 0 M0 20 C0 13.97, 0 7.93, 0 0" stroke="#000000" stroke-width="1" fill="none"></path></g><g stroke-opacity="0.6" fill-opacity="0.6" stroke-linecap="round" transform="translate(539.0331701550192 221.28846781657592) rotate(0 10 10)"><path d="M0 0 L20 0 L20 20 L0 20" stroke="none" stroke-width="0" fill="#40c057"></path><path d="M0 0 C7.3 0, 14.61 0, 20 0 M0 0 C5.83 0, 11.65 0, 20 0 M20 0 C20 4.02, 20 8.04, 20 20 M20 0 C20 4.55, 20 9.1, 20 20 M20 20 C12.34 20, 4.68 20, 0 20 M20 20 C14.86 20, 9.72 20, 0 20 M0 20 C0 13.26, 0 6.53, 0 0 M0 20 C0 14.58, 0 9.17, 0 0" stroke="#000000" stroke-width="1" fill="none"></path></g><g stroke-linecap="round" transform="translate(439.3174976984972 61.442602318238414) rotate(0 70 100)"><path d="M0 0 C33.9 0, 67.81 0, 140 0 M0 0 C51.12 0, 102.24 0, 140 0 M140 0 C140 52.91, 140 105.82, 140 200 M140 0 C140 76.39, 140 152.79, 140 200 M140 200 C97.62 200, 55.24 200, 0 200 M140 200 C92.03 200, 44.06 200, 0 200 M0 200 C0 136.46, 0 72.91, 0 0 M0 200 C0 142.33, 0 84.67, 0 0" stroke="#000000" stroke-width="1" fill="none"></path></g><g transform="translate(443.8846130213992 65.90568245405609) rotate(0 52 9.5)"><text x="52" y="15" font-family="Helvetica, Segoe UI Emoji" font-size="16px" fill="#000000" text-anchor="middle" style="white-space: pre;" direction="ltr">Diagonal SSM</text></g><g transform="translate(157.54581721651311 172.0218936529957) rotate(0 13 21)"><text x="0" y="33" font-family="Helvetica, Segoe UI Emoji" font-size="36px" fill="#000000" text-anchor="start" style="white-space: pre;" direction="ltr">K</text></g><g stroke-linecap="round" transform="translate(140.38953426630724 162.69288586531138) rotate(0 30 30)"><path d="M0 0 C13.37 0, 26.74 0, 60 0 M0 0 C14.22 0, 28.44 0, 60 0 M60 0 C60 20.04, 60 40.09, 60 60 M60 0 C60 14.65, 60 29.3, 60 60 M60 60 C46.02 60, 32.04 60, 0 60 M60 60 C38.61 60, 17.21 60, 0 60 M0 60 C0 39.28, 0 18.56, 0 0 M0 60 C0 43.86, 0 27.72, 0 0" stroke="#000000" stroke-width="1" fill="none"></path></g><g transform="translate(157.54581721651311 271.9716193243404) rotate(0 13 21)"><text x="0" y="33" font-family="Helvetica, Segoe UI Emoji" font-size="36px" fill="#000000" text-anchor="start" style="white-space: pre;" direction="ltr">V</text></g><g stroke-linecap="round" transform="translate(140.38953426630724 262.6928858653114) rotate(0 30 30)"><path d="M0 0 C22.34 0, 44.69 0, 60 0 M0 0 C23.3 0, 46.59 0, 60 0 M60 0 C60 23.44, 60 46.89, 60 60 M60 0 C60 18.14, 60 36.28, 60 60 M60 60 C39.87 60, 19.73 60, 0 60 M60 60 C44.64 60, 29.27 60, 0 60 M0 60 C0 42.52, 0 25.03, 0 0 M0 60 C0 39.78, 0 19.56, 0 0" stroke="#000000" stroke-width="1" fill="none"></path></g><g transform="translate(157.54717809243056 71.73478472628585) rotate(0 15 21)"><text x="0" y="33" font-family="Helvetica, Segoe UI Emoji" font-size="36px" fill="#000000" text-anchor="start" style="white-space: pre;" direction="ltr">Q</text></g><g stroke-linecap="round" transform="translate(140.39089514222468 62.40577693860155) rotate(0 30 30)"><path d="M0 0 C17.44 0, 34.87 0, 60 0 M0 0 C12.98 0, 25.96 0, 60 0 M60 0 C60 22.92, 60 45.84, 60 60 M60 0 C60 14.92, 60 29.85, 60 60 M60 60 C46.83 60, 33.66 60, 0 60 M60 60 C42.69 60, 25.38 60, 0 60 M0 60 C0 38.78, 0 17.56, 0 0 M0 60 C0 46.45, 0 32.89, 0 0" stroke="#000000" stroke-width="1" fill="none"></path></g><g transform="translate(57.62384022460839 171.928713809216) rotate(0 13 21)"><text x="0" y="33" font-family="Helvetica, Segoe UI Emoji" font-size="36px" fill="#000000" text-anchor="start" style="white-space: pre;" direction="ltr">X</text></g><g stroke-linecap="round" transform="translate(40.35014362994184 162.7171196659923) rotate(0 30 30)"><path d="M0 0 C12.39 0, 24.78 0, 60 0 M0 0 C14.11 0, 28.21 0, 60 0 M60 0 C60 14.55, 60 29.09, 60 60 M60 0 C60 15.24, 60 30.48, 60 60 M60 60 C45.14 60, 30.28 60, 0 60 M60 60 C39.48 60, 18.96 60, 0 60 M0 60 C0 44.76, 0 29.52, 0 0 M0 60 C0 38.21, 0 16.42, 0 0" stroke="#000000" stroke-width="1" fill="none"></path></g><g transform="translate(725.9994227224047 169.05457331297782) rotate(0 12.5 41.5)"><text x="0" y="33.5" font-family="Helvetica, Segoe UI Emoji" font-size="36px" fill="#000000" text-anchor="start" style="white-space: pre;" direction="ltr">Y</text><text x="0" y="75" font-family="Helvetica, Segoe UI Emoji" font-size="36px" fill="#000000" text-anchor="start" style="white-space: pre;" direction="ltr"></text></g><g stroke-linecap="round" transform="translate(708.8431397721988 159.72556552529352) rotate(0 30 30)"><path d="M0 0 C12.26 0, 24.51 0, 60 0 M0 0 C13.33 0, 26.67 0, 60 0 M60 0 C60 19.04, 60 38.09, 60 60 M60 0 C60 16.4, 60 32.79, 60 60 M60 60 C44.23 60, 28.46 60, 0 60 M60 60 C38.56 60, 17.12 60, 0 60 M0 60 C0 37.81, 0 15.62, 0 0 M0 60 C0 42.38, 0 24.76, 0 0" stroke="#000000" stroke-width="1" fill="none"></path></g><g stroke-linecap="round" transform="translate(300.1530631450223 282.6928858653114) rotate(0 20 21)"><path d="M40 21 C40 22.22, 39.9 23.45, 39.7 24.65 C39.5 25.84, 39.19 27.04, 38.79 28.18 C38.4 29.32, 37.9 30.45, 37.32 31.5 C36.74 32.55, 36.07 33.57, 35.32 34.5 C34.58 35.43, 33.74 36.31, 32.86 37.09 C31.97 37.87, 31 38.58, 30 39.19 C29 39.79, 27.93 40.32, 26.84 40.73 C25.75 41.15, 24.61 41.47, 23.47 41.68 C22.33 41.89, 21.16 42, 20 42 C18.84 42, 17.67 41.89, 16.53 41.68 C15.39 41.47, 14.25 41.15, 13.16 40.73 C12.07 40.32, 11 39.79, 10 39.19 C9 38.58, 8.03 37.87, 7.14 37.09 C6.26 36.31, 5.42 35.43, 4.68 34.5 C3.93 33.57, 3.26 32.55, 2.68 31.5 C2.1 30.45, 1.6 29.32, 1.21 28.18 C0.81 27.04, 0.5 25.84, 0.3 24.65 C0.1 23.45, 0 22.22, 0 21 C0 19.78, 0.1 18.55, 0.3 17.35 C0.5 16.16, 0.81 14.96, 1.21 13.82 C1.6 12.68, 2.1 11.55, 2.68 10.5 C3.26 9.45, 3.93 8.43, 4.68 7.5 C5.42 6.57, 6.26 5.69, 7.14 4.91 C8.03 4.13, 9 3.42, 10 2.81 C11 2.21, 12.07 1.68, 13.16 1.27 C14.25 0.85, 15.39 0.53, 16.53 0.32 C17.67 0.11, 18.84 0, 20 0 C21.16 0, 22.33 0.11, 23.47 0.32 C24.61 0.53, 25.75 0.85, 26.84 1.27 C27.93 1.68, 29 2.21, 30 2.81 C31 3.42, 31.97 4.13, 32.86 4.91 C33.74 5.69, 34.58 6.57, 35.32 7.5 C36.07 8.43, 36.74 9.45, 37.32 10.5 C37.9 11.55, 38.4 12.68, 38.79 13.82 C39.19 14.96, 39.5 16.16, 39.7 17.35 C39.9 18.55, 39.95 20.39, 40 21 C40.05 21.61, 40.05 20.39, 40 21" stroke="#000000" stroke-width="1" fill="none"></path></g><g transform="translate(312.4818262945019 289.7712006944555) rotate(0 9 24)"><text x="0" y="38" font-family="Helvetica, Segoe UI Emoji" font-size="41.317123003027504px" fill="#000000" text-anchor="start" style="white-space: pre;" direction="ltr">*</text></g><g stroke-linecap="round"><g transform="translate(80.29842566918487 161.7171196659923) rotate(0 29.47355347443862 -29.596953683152208)"><path d="M0 0 C-0.04 -16.88, -0.08 -33.76, -0.15 -59.02 M0 0 C-0.05 -20.53, -0.1 -41.06, -0.15 -59.02 M-0.15 -59.02 C19.64 -59.08, 39.42 -59.14, 59.09 -59.19 M-0.15 -59.02 C14.12 -59.07, 28.38 -59.11, 59.09 -59.19" stroke="#000000" stroke-width="1" fill="none"></path></g><g transform="translate(80.29842566918487 161.7171196659923) rotate(0 29.47355347443862 -29.596953683152208)"><path d="M31.29 -48.98 C39.24 -51.9, 47.19 -54.82, 59.09 -59.19 M31.29 -48.98 C40.96 -52.54, 50.63 -56.09, 59.09 -59.19" stroke="#000000" stroke-width="1" fill="none"></path></g><g transform="translate(80.29842566918487 161.7171196659923) rotate(0 29.47355347443862 -29.596953683152208)"><path d="M31.23 -69.24 C39.2 -66.37, 47.16 -63.5, 59.09 -59.19 M31.23 -69.24 C40.92 -65.75, 50.61 -62.25, 59.09 -59.19" stroke="#000000" stroke-width="1" fill="none"></path></g></g><mask></mask><g stroke-linecap="round"><g transform="translate(80.3087466960583 223.7171196659923) rotate(0 29.462552009606483 39.48788309965954)"><path d="M0 0 C-0.03 16.13, -0.06 32.26, -0.16 78.98 M0 0 C-0.05 24.36, -0.1 48.72, -0.16 78.98 M-0.16 78.98 C15.32 78.98, 30.79 78.98, 59.08 78.98 M-0.16 78.98 C12.44 78.98, 25.04 78.98, 59.08 78.98" stroke="#000000" stroke-width="1" fill="none"></path></g><g transform="translate(80.3087466960583 223.7171196659923) rotate(0 29.462552009606483 39.48788309965954)"><path d="M31.25 89.11 C36.93 87.04, 42.62 84.97, 59.08 78.98 M31.25 89.11 C39.83 85.98, 48.42 82.86, 59.08 78.98" stroke="#000000" stroke-width="1" fill="none"></path></g><g transform="translate(80.3087466960583 223.7171196659923) rotate(0 29.462552009606483 39.48788309965954)"><path d="M31.25 68.85 C36.93 70.91, 42.62 72.98, 59.08 78.98 M31.25 68.85 C39.83 71.97, 48.42 75.1, 59.08 78.98" stroke="#000000" stroke-width="1" fill="none"></path></g></g><mask></mask><g stroke-linecap="round"><g transform="translate(101.35014362994184 182.72104123773613) rotate(0 19.5196953181827 -0.008751129584084083)"><path d="M0 0 C10.66 0, 21.32 -0.01, 39.04 -0.02 M0 0 C8.92 0, 17.85 -0.01, 39.04 -0.02" stroke="#000000" stroke-width="1" fill="none"></path></g><g transform="translate(101.35014362994184 182.72104123773613) rotate(0 19.5196953181827 -0.008751129584084083)"><path d="M20.7 6.67 C25.71 4.84, 30.72 3.02, 39.04 -0.02 M20.7 6.67 C24.89 5.14, 29.08 3.61, 39.04 -0.02" stroke="#000000" stroke-width="1" fill="none"></path></g><g transform="translate(101.35014362994184 182.72104123773613) rotate(0 19.5196953181827 -0.008751129584084083)"><path d="M20.69 -6.69 C25.7 -4.86, 30.71 -3.04, 39.04 -0.02 M20.69 -6.69 C24.89 -5.16, 29.08 -3.64, 39.04 -0.02" stroke="#000000" stroke-width="1" fill="none"></path></g></g><mask></mask><g stroke-linecap="round"><g transform="translate(201.38953426630724 182.50434884457945) rotate(0 21.03015388230321 -0.21527627135947114)"><path d="M0 0 C9.72 -0.1, 19.44 -0.2, 42.06 -0.43 M0 0 C9.51 -0.1, 19.03 -0.19, 42.06 -0.43" stroke="#000000" stroke-width="1" fill="none"></path></g><g transform="translate(201.38953426630724 182.50434884457945) rotate(0 21.03015388230321 -0.21527627135947114)"><path d="M22.37 6.96 C26.92 5.26, 31.47 3.55, 42.06 -0.43 M22.37 6.96 C26.83 5.29, 31.28 3.62, 42.06 -0.43" stroke="#000000" stroke-width="1" fill="none"></path></g><g transform="translate(201.38953426630724 182.50434884457945) rotate(0 21.03015388230321 -0.21527627135947114)"><path d="M22.22 -7.42 C26.81 -5.81, 31.39 -4.19, 42.06 -0.43 M22.22 -7.42 C26.71 -5.84, 31.2 -4.26, 42.06 -0.43" stroke="#000000" stroke-width="1" fill="none"></path></g></g><mask></mask><g stroke-linecap="round"><g transform="translate(201.38953426630724 302.6928858653114) rotate(0 48.89261715543586 0)"><path d="M0 0 C22.12 0, 44.24 0, 97.79 0 M0 0 C20.26 0, 40.53 0, 97.79 0" stroke="#000000" stroke-width="1" fill="none"></path></g><g transform="translate(201.38953426630724 302.6928858653114) rotate(0 48.89261715543586 0)"><path d="M69.59 10.26 C75.97 7.94, 82.35 5.62, 97.79 0 M69.59 10.26 C75.44 8.13, 81.28 6.01, 97.79 0" stroke="#000000" stroke-width="1" fill="none"></path></g><g transform="translate(201.38953426630724 302.6928858653114) rotate(0 48.89261715543586 0)"><path d="M69.59 -10.26 C75.97 -7.94, 82.35 -5.62, 97.79 0 M69.59 -10.26 C75.44 -8.13, 81.28 -6.01, 97.79 0" stroke="#000000" stroke-width="1" fill="none"></path></g></g><mask></mask><g stroke-linecap="round"><g transform="translate(319.67630990013686 262.1220444476012) rotate(0 -0.030892956720563802 10.208535238833065)"><path d="M0 0 C-0.02 6.66, -0.04 13.32, -0.06 20.42 M0 0 C-0.01 4.57, -0.03 9.13, -0.06 20.42" stroke="#000000" stroke-width="1" fill="none"></path></g><g transform="translate(319.67630990013686 262.1220444476012) rotate(0 -0.030892956720563802 10.208535238833065)"><path d="M-3.52 10.81 C-2.39 13.95, -1.27 17.08, -0.06 20.42 M-3.52 10.81 C-2.75 12.96, -1.98 15.11, -0.06 20.42" stroke="#000000" stroke-width="1" fill="none"></path></g><g transform="translate(319.67630990013686 262.1220444476012) rotate(0 -0.030892956720563802 10.208535238833065)"><path d="M3.46 10.83 C2.31 13.96, 1.16 17.09, -0.06 20.42 M3.46 10.83 C2.67 12.98, 1.88 15.12, -0.06 20.42" stroke="#000000" stroke-width="1" fill="none"></path></g></g><mask></mask><g stroke-linecap="round"><g transform="translate(339.9992922049781 302.5673362180635) rotate(0 49.15910274675957 -60.06816035019796)"><path d="M0 0 C13.57 0.03, 27.15 0.06, 60.15 0.13 M0 0 C20.94 0.04, 41.88 0.09, 60.15 0.13 M60.15 0.13 C60.15 -32.14, 60.15 -64.4, 60.15 -119.87 M60.15 0.13 C60.15 -45.51, 60.15 -91.15, 60.15 -119.87 M60.15 -119.87 C68.48 -119.96, 76.81 -120.04, 98.32 -120.26 M60.15 -119.87 C75.4 -120.03, 90.64 -120.18, 98.32 -120.26" stroke="#000000" stroke-width="1" fill="none"></path></g><g transform="translate(339.9992922049781 302.5673362180635) rotate(0 49.15910274675957 -60.06816035019796)"><path d="M80.45 -113.55 C84.48 -115.07, 88.52 -116.58, 98.32 -120.26 M80.45 -113.55 C86.67 -115.89, 92.89 -118.22, 98.32 -120.26" stroke="#000000" stroke-width="1" fill="none"></path></g><g transform="translate(339.9992922049781 302.5673362180635) rotate(0 49.15910274675957 -60.06816035019796)"><path d="M80.32 -126.61 C84.38 -125.17, 88.44 -123.74, 98.32 -120.26 M80.32 -126.61 C86.59 -124.4, 92.85 -122.19, 98.32 -120.26" stroke="#000000" stroke-width="1" fill="none"></path></g></g><mask></mask><g stroke-linecap="round"><g transform="translate(201.39089514222468 102.60274880874113) rotate(0 219.38108400139882 0.09013705657025639)"><path d="M0 0 C5.28 0.03, 10.57 0.05, 18.76 0.09 M0 0 C6.51 0.03, 13.03 0.06, 18.76 0.09 M18.76 0.09 C18.76 -12.92, 18.76 -25.93, 18.76 -59.91 M18.76 0.09 C18.76 -23.55, 18.76 -47.19, 18.76 -59.91 M18.76 -59.91 C114.9 -59.91, 211.03 -59.91, 438.76 -59.91 M18.76 -59.91 C161.88 -59.91, 305 -59.91, 438.76 -59.91 M438.76 -59.91 C438.76 -32.35, 438.76 -4.78, 438.76 60.09 M438.76 -59.91 C438.76 -12.52, 438.76 34.88, 438.76 60.09" stroke="#000000" stroke-width="1" fill="none"></path></g><g transform="translate(201.39089514222468 102.60274880874113) rotate(0 219.38108400139882 0.09013705657025639)"><path d="M428.5 31.9 C431.39 39.84, 434.28 47.78, 438.76 60.09 M428.5 31.9 C432.06 41.69, 435.63 51.47, 438.76 60.09" stroke="#000000" stroke-width="1" fill="none"></path></g><g transform="translate(201.39089514222468 102.60274880874113) rotate(0 219.38108400139882 0.09013705657025639)"><path d="M449.02 31.9 C446.13 39.84, 443.24 47.78, 438.76 60.09 M449.02 31.9 C445.46 41.69, 441.9 51.47, 438.76 60.09" stroke="#000000" stroke-width="1" fill="none"></path></g></g><mask></mask><g stroke-linecap="round"><g transform="translate(580.3174976984973 182.3318297191754) rotate(0 19.91778272326252 0.18075469069322025)"><path d="M0 0 C11.7 0.11, 23.39 0.21, 39.84 0.36 M0 0 C11.14 0.1, 22.27 0.2, 39.84 0.36" stroke="#000000" stroke-width="1" fill="none"></path></g><g transform="translate(580.3174976984973 182.3318297191754) rotate(0 19.91778272326252 0.18075469069322025)"><path d="M21.06 7 C26.57 5.05, 32.08 3.1, 39.84 0.36 M21.06 7 C26.31 5.15, 31.56 3.29, 39.84 0.36" stroke="#000000" stroke-width="1" fill="none"></path></g><g transform="translate(580.3174976984973 182.3318297191754) rotate(0 19.91778272326252 0.18075469069322025)"><path d="M21.18 -6.62 C26.66 -4.57, 32.13 -2.52, 39.84 0.36 M21.18 -6.62 C26.4 -4.67, 31.61 -2.72, 39.84 0.36" stroke="#000000" stroke-width="1" fill="none"></path></g></g><mask></mask><g stroke-linecap="round" transform="translate(620.1530631450223 162.69288586531138) rotate(0 20 20)"><path d="M40 20 C40 21.16, 39.9 22.33, 39.7 23.47 C39.5 24.61, 39.19 25.75, 38.79 26.84 C38.4 27.93, 37.9 29, 37.32 30 C36.74 31, 36.07 31.97, 35.32 32.86 C34.58 33.74, 33.74 34.58, 32.86 35.32 C31.97 36.07, 31 36.74, 30 37.32 C29 37.9, 27.93 38.4, 26.84 38.79 C25.75 39.19, 24.61 39.5, 23.47 39.7 C22.33 39.9, 21.16 40, 20 40 C18.84 40, 17.67 39.9, 16.53 39.7 C15.39 39.5, 14.25 39.19, 13.16 38.79 C12.07 38.4, 11 37.9, 10 37.32 C9 36.74, 8.03 36.07, 7.14 35.32 C6.26 34.58, 5.42 33.74, 4.68 32.86 C3.93 31.97, 3.26 31, 2.68 30 C2.1 29, 1.6 27.93, 1.21 26.84 C0.81 25.75, 0.5 24.61, 0.3 23.47 C0.1 22.33, 0 21.16, 0 20 C0 18.84, 0.1 17.67, 0.3 16.53 C0.5 15.39, 0.81 14.25, 1.21 13.16 C1.6 12.07, 2.1 11, 2.68 10 C3.26 9, 3.93 8.03, 4.68 7.14 C5.42 6.26, 6.26 5.42, 7.14 4.68 C8.03 3.93, 9 3.26, 10 2.68 C11 2.1, 12.07 1.6, 13.16 1.21 C14.25 0.81, 15.39 0.5, 16.53 0.3 C17.67 0.1, 18.84 0, 20 0 C21.16 0, 22.33 0.1, 23.47 0.3 C24.61 0.5, 25.75 0.81, 26.84 1.21 C27.93 1.6, 29 2.1, 30 2.68 C31 3.26, 31.97 3.93, 32.86 4.68 C33.74 5.42, 34.58 6.26, 35.32 7.14 C36.07 8.03, 36.74 9, 37.32 10 C37.9 11, 38.4 12.07, 38.79 13.16 C39.19 14.25, 39.5 15.39, 39.7 16.53 C39.9 17.67, 39.95 19.42, 40 20 C40.05 20.58, 40.05 19.42, 40 20" stroke="#000000" stroke-width="1" fill="none"></path></g><g stroke-linecap="round"><g transform="translate(661.1413563494514 181.99178076269095) rotate(0 23.35089171137372 -0.7816359322870312)"><path d="M0 0 C9.92 -0.33, 19.85 -0.66, 46.7 -1.56 M0 0 C17.47 -0.58, 34.95 -1.17, 46.7 -1.56" stroke="#000000" stroke-width="1" fill="none"></path></g><g transform="translate(661.1413563494514 181.99178076269095) rotate(0 23.35089171137372 -0.7816359322870312)"><path d="M25.03 7.16 C29.63 5.3, 34.24 3.45, 46.7 -1.56 M25.03 7.16 C33.14 3.89, 41.25 0.63, 46.7 -1.56" stroke="#000000" stroke-width="1" fill="none"></path></g><g transform="translate(661.1413563494514 181.99178076269095) rotate(0 23.35089171137372 -0.7816359322870312)"><path d="M24.49 -8.82 C29.21 -7.27, 33.93 -5.73, 46.7 -1.56 M24.49 -8.82 C32.8 -6.1, 41.11 -3.39, 46.7 -1.56" stroke="#000000" stroke-width="1" fill="none"></path></g></g><mask></mask><g transform="translate(632.5985354649197 168.8465883655948) rotate(0 9 24)"><text x="0" y="38" font-family="Helvetica, Segoe UI Emoji" font-size="41.317123003027504px" fill="#000000" text-anchor="start" style="white-space: pre;" direction="ltr">*</text></g><g transform="translate(290.6994708240405 330.32303527095974) rotate(0 30 6)"><text x="30" y="10" font-family="Helvetica, Segoe UI Emoji" font-size="10.213630100951477px" fill="#000000" text-anchor="middle" style="white-space: pre;" direction="ltr">Elementwise</text></g><g transform="translate(611.3175187902445 206.9157687971707) rotate(0 30 6)"><text x="30" y="10" font-family="Helvetica, Segoe UI Emoji" font-size="10.213630100951477px" fill="#000000" text-anchor="middle" style="white-space: pre;" direction="ltr">Elementwise</text></g><g transform="translate(259.2617332483455 91.19903045408205) rotate(0 49.5 18)"><text x="0" y="10" font-family="Helvetica, Segoe UI Emoji" font-size="10.213630100951477px" fill="#000000" text-anchor="start" style="white-space: pre;" direction="ltr">A special shift matrix </text><text x="0" y="22" font-family="Helvetica, Segoe UI Emoji" font-size="10.213630100951477px" fill="#000000" text-anchor="start" style="white-space: pre;" direction="ltr">encodes associations</text><text x="0" y="34" font-family="Helvetica, Segoe UI Emoji" font-size="10.213630100951477px" fill="#000000" text-anchor="start" style="white-space: pre;" direction="ltr">with past elements.  </text></g><g transform="translate(455.45734455137205 91.26913736956374) rotate(0 57 12)"><text x="0" y="10" font-family="Helvetica, Segoe UI Emoji" font-size="10.213630100951477px" fill="#000000" text-anchor="start" style="white-space: pre;" direction="ltr">An S4D layer captures</text><text x="0" y="22" font-family="Helvetica, Segoe UI Emoji" font-size="10.213630100951477px" fill="#000000" text-anchor="start" style="white-space: pre;" direction="ltr">long-term dependencies.</text></g><g stroke-opacity="0.6" fill-opacity="0.6" stroke-linecap="round" transform="translate(259.42887809626905 161.2994297731302) rotate(0 10 10)"><path d="M0 0 L20 0 L20 20 L0 20" stroke="none" stroke-width="0" fill="#fa5252"></path><path d="M0 0 C5.5 0, 11.01 0, 20 0 M0 0 C4.18 0, 8.35 0, 20 0 M20 0 C20 4.45, 20 8.89, 20 20 M20 0 C20 6.89, 20 13.79, 20 20 M20 20 C14.87 20, 9.73 20, 0 20 M20 20 C12.45 20, 4.91 20, 0 20 M0 20 C0 15.01, 0 10.01, 0 0 M0 20 C0 15.01, 0 10.01, 0 0" stroke="#000000" stroke-width="1" fill="none"></path></g><g stroke-opacity="0.6" fill-opacity="0.6" stroke-linecap="round" transform="translate(279.42887809626905 181.2994297731302) rotate(0 10 10)"><path d="M0 0 L20 0 L20 20 L0 20" stroke="none" stroke-width="0" fill="#4c6ef5"></path><path d="M0 0 C5.97 0, 11.93 0, 20 0 M0 0 C6.46 0, 12.93 0, 20 0 M20 0 C20 4.74, 20 9.47, 20 20 M20 0 C20 7.21, 20 14.42, 20 20 M20 20 C15.71 20, 11.43 20, 0 20 M20 20 C14.47 20, 8.93 20, 0 20 M0 20 C0 13.41, 0 6.82, 0 0 M0 20 C0 14.9, 0 9.81, 0 0" stroke="#000000" stroke-width="1" fill="none"></path></g><g stroke-opacity="0.6" fill-opacity="0.6" stroke-linecap="round" transform="translate(299.2952168838956 201.2994297731302) rotate(0 10 10)"><path d="M0 0 L20 0 L20 20 L0 20" stroke="none" stroke-width="0" fill="#fab005"></path><path d="M0 0 C5.27 0, 10.53 0, 20 0 M0 0 C7.86 0, 15.71 0, 20 0 M20 0 C20 5.52, 20 11.04, 20 20 M20 0 C20 7.08, 20 14.16, 20 20 M20 20 C13.8 20, 7.61 20, 0 20 M20 20 C12.46 20, 4.93 20, 0 20 M0 20 C0 13.56, 0 7.11, 0 0 M0 20 C0 12.72, 0 5.45, 0 0" stroke="#000000" stroke-width="1" fill="none"></path></g><g stroke-opacity="0.6" fill-opacity="0.6" stroke-linecap="round" transform="translate(319.2952168838956 221.23251637382373) rotate(0 10.000000000000014 10)"><path d="M0 0 L20 0 L20 20 L0 20" stroke="none" stroke-width="0" fill="#fd7e14"></path><path d="M0 0 C5.96 0, 11.92 0, 20 0 M0 0 C5.67 0, 11.33 0, 20 0 M20 0 C20 7.62, 20 15.24, 20 20 M20 0 C20 6.63, 20 13.27, 20 20 M20 20 C13.04 20, 6.09 20, 0 20 M20 20 C13.93 20, 7.86 20, 0 20 M0 20 C0 14.56, 0 9.12, 0 0 M0 20 C0 14.27, 0 8.54, 0 0" stroke="#000000" stroke-width="1" fill="none"></path></g><g transform="translate(535.7462572101365 312.7248598655831) rotate(0 108.51638682498208 15.727012583330747)"><text x="0" y="24.45402516666146" font-family="Helvetica, Segoe UI Emoji" font-size="27.275524562656273px" fill="#343a40" text-anchor="start" style="white-space: pre;" direction="ltr">H3 layer structure</text></g><g stroke-opacity="0.5" fill-opacity="0.5" stroke-linecap="round" transform="translate(10 10) rotate(0 394.52058221126555 188.81960287627828)"><path d="M0 0 C236.7 0, 473.4 0, 789.04 0 M0 0 C220.78 0, 441.56 0, 789.04 0 M789.04 0 C789.04 114.88, 789.04 229.77, 789.04 377.64 M789.04 0 C789.04 76.1, 789.04 152.2, 789.04 377.64 M789.04 377.64 C548.2 377.64, 307.36 377.64, 0 377.64 M789.04 377.64 C596.53 377.64, 404.02 377.64, 0 377.64 M0 377.64 C0 233.92, 0 90.19, 0 0 M0 377.64 C0 300.6, 0 223.55, 0 0" stroke="#000000" stroke-width="2" fill="none"></path></g></svg>