<svg xmlns="http://www.w3.org/2000/svg" style="cursor: move;" viewBox="778.46 158.69 1119.61 441.26"><g transform="translate(152.21055377813713,-123.80983490973199) scale(1.1758934365798717)"><rect class="rect" id="0_0" width="64" height="64" x="533" y="358.5" style="fill: rgb(160, 160, 160); stroke: black; stroke-width: 1; opacity: 0.8;"/><rect class="rect" id="0_1" width="64" height="64" x="541" y="366.5" style="fill: rgb(224, 224, 224); stroke: black; stroke-width: 1; opacity: 0.8;"/><rect class="rect" id="0_2" width="64" height="64" x="549" y="374.5" style="fill: rgb(160, 160, 160); stroke: black; stroke-width: 1; opacity: 0.8;"/><rect class="rect" id="1_0" width="64" height="64" x="623" y="274.5" style="fill: rgb(160, 160, 160); stroke: black; stroke-width: 1; opacity: 0.8;"/><rect class="rect" id="1_1" width="64" height="64" x="631" y="282.5" style="fill: rgb(224, 224, 224); stroke: black; stroke-width: 1; opacity: 0.8;"/><rect class="rect" id="1_2" width="64" height="64" x="639" y="290.5" style="fill: rgb(160, 160, 160); stroke: black; stroke-width: 1; opacity: 0.8;"/><rect class="rect" id="1_3" width="64" height="64" x="647" y="298.5" style="fill: rgb(224, 224, 224); stroke: black; stroke-width: 1; opacity: 0.8;"/><rect class="rect" id="1_4" width="64" height="64" x="655" y="306.5" style="fill: rgb(160, 160, 160); stroke: black; stroke-width: 1; opacity: 0.8;"/><rect class="rect" id="1_5" width="64" height="64" x="663" y="314.5" style="fill: rgb(224, 224, 224); stroke: black; stroke-width: 1; opacity: 0.8;"/><rect class="rect" id="1_6" width="64" height="64" x="671" y="322.5" style="fill: rgb(160, 160, 160); stroke: black; stroke-width: 1; opacity: 0.8;"/><rect class="rect" id="1_7" width="64" height="64" x="679" y="330.5" style="fill: rgb(224, 224, 224); stroke: black; stroke-width: 1; opacity: 0.8;"/><rect class="rect" id="1_8" width="64" height="64" x="687" y="338.5" style="fill: rgb(160, 160, 160); stroke: black; stroke-width: 1; opacity: 0.8;"/><rect class="rect" id="1_9" width="64" height="64" x="695" y="346.5" style="fill: rgb(224, 224, 224); stroke: black; stroke-width: 1; opacity: 0.8;"/><rect class="rect" id="1_10" width="64" height="64" x="703" y="354.5" style="fill: rgb(160, 160, 160); stroke: black; stroke-width: 1; opacity: 0.8;"/><rect class="rect" id="1_11" width="64" height="64" x="711" y="362.5" style="fill: rgb(224, 224, 224); stroke: black; stroke-width: 1; opacity: 0.8;"/><rect class="rect" id="1_12" width="64" height="64" x="719" y="370.5" style="fill: rgb(160, 160, 160); stroke: black; stroke-width: 1; opacity: 0.8;"/><rect class="rect" id="1_13" width="64" height="64" x="727" y="378.5" style="fill: rgb(224, 224, 224); stroke: black; stroke-width: 1; opacity: 0.8;"/><rect class="rect" id="1_14" width="64" height="64" x="735" y="386.5" style="fill: rgb(160, 160, 160); stroke: black; stroke-width: 1; opacity: 0.8;"/><rect class="rect" id="1_15" width="64" height="64" x="743" y="394.5" style="fill: rgb(224, 224, 224); stroke: black; stroke-width: 1; opacity: 0.8;"/><rect class="rect" id="1_16" width="64" height="64" x="751" y="402.5" style="fill: rgb(160, 160, 160); stroke: black; stroke-width: 1; opacity: 0.8;"/><rect class="rect" id="1_17" width="64" height="64" x="759" y="410.5" style="fill: rgb(224, 224, 224); stroke: black; stroke-width: 1; opacity: 0.8;"/><rect class="rect" id="1_18" width="64" height="64" x="767" y="418.5" style="fill: rgb(160, 160, 160); stroke: black; stroke-width: 1; opacity: 0.8;"/><rect class="rect" id="1_19" width="64" height="64" x="775" y="426.5" style="fill: rgb(224, 224, 224); stroke: black; stroke-width: 1; opacity: 0.8;"/><rect class="rect" id="1_20" width="64" height="64" x="783" y="434.5" style="fill: rgb(160, 160, 160); stroke: black; stroke-width: 1; opacity: 0.8;"/><rect class="rect" id="1_21" width="64" height="64" x="791" y="442.5" style="fill: rgb(224, 224, 224); stroke: black; stroke-width: 1; opacity: 0.8;"/><rect class="rect" id="1_22" width="64" height="64" x="799" y="450.5" style="fill: rgb(160, 160, 160); stroke: black; stroke-width: 1; opacity: 0.8;"/><rect class="rect" id="1_23" width="64" height="64" x="807" y="458.5" style="fill: rgb(224, 224, 224); stroke: black; stroke-width: 1; opacity: 0.8;"/><rect class="rect" id="2_0" width="8" height="8" x="851" y="302.5" style="fill: rgb(160, 160, 160); stroke: black; stroke-width: 1; opacity: 0.8;"/><rect class="rect" id="2_1" width="8" height="8" x="859" y="310.5" style="fill: rgb(224, 224, 224); stroke: black; stroke-width: 1; opacity: 0.8;"/><rect class="rect" id="2_2" width="8" height="8" x="867" y="318.5" style="fill: rgb(160, 160, 160); stroke: black; stroke-width: 1; opacity: 0.8;"/><rect class="rect" id="2_3" width="8" height="8" x="875" y="326.5" style="fill: rgb(224, 224, 224); stroke: black; stroke-width: 1; opacity: 0.8;"/><rect class="rect" id="2_4" width="8" height="8" x="883" y="334.5" style="fill: rgb(160, 160, 160); stroke: black; stroke-width: 1; opacity: 0.8;"/><rect class="rect" id="2_5" width="8" height="8" x="891" y="342.5" style="fill: rgb(224, 224, 224); stroke: black; stroke-width: 1; opacity: 0.8;"/><rect class="rect" id="2_6" width="8" height="8" x="899" y="350.5" style="fill: rgb(160, 160, 160); stroke: black; stroke-width: 1; opacity: 0.8;"/><rect class="rect" id="2_7" width="8" height="8" x="907" y="358.5" style="fill: rgb(224, 224, 224); stroke: black; stroke-width: 1; opacity: 0.8;"/><rect class="rect" id="2_8" width="8" height="8" x="915" y="366.5" style="fill: rgb(160, 160, 160); stroke: black; stroke-width: 1; opacity: 0.8;"/><rect class="rect" id="2_9" width="8" height="8" x="923" y="374.5" style="fill: rgb(224, 224, 224); stroke: black; stroke-width: 1; opacity: 0.8;"/><rect class="rect" id="2_10" width="8" height="8" x="931" y="382.5" style="fill: rgb(160, 160, 160); stroke: black; stroke-width: 1; opacity: 0.8;"/><rect class="rect" id="2_11" width="8" height="8" x="939" y="390.5" style="fill: rgb(224, 224, 224); stroke: black; stroke-width: 1; opacity: 0.8;"/><rect class="rect" id="2_12" width="8" height="8" x="947" y="398.5" style="fill: rgb(160, 160, 160); stroke: black; stroke-width: 1; opacity: 0.8;"/><rect class="rect" id="2_13" width="8" height="8" x="955" y="406.5" style="fill: rgb(224, 224, 224); stroke: black; stroke-width: 1; opacity: 0.8;"/><rect class="rect" id="2_14" width="8" height="8" x="963" y="414.5" style="fill: rgb(160, 160, 160); stroke: black; stroke-width: 1; opacity: 0.8;"/><rect class="rect" id="2_15" width="8" height="8" x="971" y="422.5" style="fill: rgb(224, 224, 224); stroke: black; stroke-width: 1; opacity: 0.8;"/><rect class="rect" id="2_16" width="8" height="8" x="979" y="430.5" style="fill: rgb(160, 160, 160); stroke: black; stroke-width: 1; opacity: 0.8;"/><rect class="rect" id="2_17" width="8" height="8" x="987" y="438.5" style="fill: rgb(224, 224, 224); stroke: black; stroke-width: 1; opacity: 0.8;"/><rect class="rect" id="2_18" width="8" height="8" x="995" y="446.5" style="fill: rgb(160, 160, 160); stroke: black; stroke-width: 1; opacity: 0.8;"/><rect class="rect" id="2_19" width="8" height="8" x="1003" y="454.5" style="fill: rgb(224, 224, 224); stroke: black; stroke-width: 1; opacity: 0.8;"/><rect class="rect" id="2_20" width="8" height="8" x="1011" y="462.5" style="fill: rgb(160, 160, 160); stroke: black; stroke-width: 1; opacity: 0.8;"/><rect class="rect" id="2_21" width="8" height="8" x="1019" y="470.5" style="fill: rgb(224, 224, 224); stroke: black; stroke-width: 1; opacity: 0.8;"/><rect class="rect" id="2_22" width="8" height="8" x="1027" y="478.5" style="fill: rgb(160, 160, 160); stroke: black; stroke-width: 1; opacity: 0.8;"/><rect class="rect" id="2_23" width="8" height="8" x="1035" y="486.5" style="fill: rgb(224, 224, 224); stroke: black; stroke-width: 1; opacity: 0.8;"/><rect class="rect" id="3_0" width="8" height="8" x="1053" y="302.5" style="fill: rgb(160, 160, 160); stroke: black; stroke-width: 1; opacity: 0.8;"/><rect class="rect" id="3_1" width="8" height="8" x="1061" y="310.5" style="fill: rgb(224, 224, 224); stroke: black; stroke-width: 1; opacity: 0.8;"/><rect class="rect" id="3_2" width="8" height="8" x="1069" y="318.5" style="fill: rgb(160, 160, 160); stroke: black; stroke-width: 1; opacity: 0.8;"/><rect class="rect" id="3_3" width="8" height="8" x="1077" y="326.5" style="fill: rgb(224, 224, 224); stroke: black; stroke-width: 1; opacity: 0.8;"/><rect class="rect" id="3_4" width="8" height="8" x="1085" y="334.5" style="fill: rgb(160, 160, 160); stroke: black; stroke-width: 1; opacity: 0.8;"/><rect class="rect" id="3_5" width="8" height="8" x="1093" y="342.5" style="fill: rgb(224, 224, 224); stroke: black; stroke-width: 1; opacity: 0.8;"/><rect class="rect" id="3_6" width="8" height="8" x="1101" y="350.5" style="fill: rgb(160, 160, 160); stroke: black; stroke-width: 1; opacity: 0.8;"/><rect class="rect" id="3_7" width="8" height="8" x="1109" y="358.5" style="fill: rgb(224, 224, 224); stroke: black; stroke-width: 1; opacity: 0.8;"/><rect class="rect" id="3_8" width="8" height="8" x="1117" y="366.5" style="fill: rgb(160, 160, 160); stroke: black; stroke-width: 1; opacity: 0.8;"/><rect class="rect" id="3_9" width="8" height="8" x="1125" y="374.5" style="fill: rgb(224, 224, 224); stroke: black; stroke-width: 1; opacity: 0.8;"/><rect class="rect" id="3_10" width="8" height="8" x="1133" y="382.5" style="fill: rgb(160, 160, 160); stroke: black; stroke-width: 1; opacity: 0.8;"/><rect class="rect" id="3_11" width="8" height="8" x="1141" y="390.5" style="fill: rgb(224, 224, 224); stroke: black; stroke-width: 1; opacity: 0.8;"/><rect class="rect" id="3_12" width="8" height="8" x="1149" y="398.5" style="fill: rgb(160, 160, 160); stroke: black; stroke-width: 1; opacity: 0.8;"/><rect class="rect" id="3_13" width="8" height="8" x="1157" y="406.5" style="fill: rgb(224, 224, 224); stroke: black; stroke-width: 1; opacity: 0.8;"/><rect class="rect" id="3_14" width="8" height="8" x="1165" y="414.5" style="fill: rgb(160, 160, 160); stroke: black; stroke-width: 1; opacity: 0.8;"/><rect class="rect" id="3_15" width="8" height="8" x="1173" y="422.5" style="fill: rgb(224, 224, 224); stroke: black; stroke-width: 1; opacity: 0.8;"/><rect class="rect" id="3_16" width="8" height="8" x="1181" y="430.5" style="fill: rgb(160, 160, 160); stroke: black; stroke-width: 1; opacity: 0.8;"/><rect class="rect" id="3_17" width="8" height="8" x="1189" y="438.5" style="fill: rgb(224, 224, 224); stroke: black; stroke-width: 1; opacity: 0.8;"/><rect class="rect" id="3_18" width="8" height="8" x="1197" y="446.5" style="fill: rgb(160, 160, 160); stroke: black; stroke-width: 1; opacity: 0.8;"/><rect class="rect" id="3_19" width="8" height="8" x="1205" y="454.5" style="fill: rgb(224, 224, 224); stroke: black; stroke-width: 1; opacity: 0.8;"/><rect class="rect" id="3_20" width="8" height="8" x="1213" y="462.5" style="fill: rgb(160, 160, 160); stroke: black; stroke-width: 1; opacity: 0.8;"/><rect class="rect" id="3_21" width="8" height="8" x="1221" y="470.5" style="fill: rgb(224, 224, 224); stroke: black; stroke-width: 1; opacity: 0.8;"/><rect class="rect" id="3_22" width="8" height="8" x="1229" y="478.5" style="fill: rgb(160, 160, 160); stroke: black; stroke-width: 1; opacity: 0.8;"/><rect class="rect" id="3_23" width="8" height="8" x="1237" y="486.5" style="fill: rgb(224, 224, 224); stroke: black; stroke-width: 1; opacity: 0.8;"/><rect class="conv" id="conv_0" width="7" height="7" x="598.3868232630201" y="383.2823304294245" style="fill-opacity: 0; stroke: black; stroke-width: 1; stroke-opacity: 0.8;"/><rect class="conv" id="conv_1" width="8" height="8" x="856.787991845363" y="504.34114015608765" style="fill-opacity: 0; stroke: black; stroke-width: 1; stroke-opacity: 0.8;"/><rect class="conv" id="conv_2" width="3" height="3" x="1038.8638799993278" y="489.0341723744307" style="fill-opacity: 0; stroke: black; stroke-width: 1; stroke-opacity: 0.8;"/><line class="link" id="conv_0" x1="605.3868232630201" y1="390.2823304294245" x2="862.4518717339174" y2="468.36086223654684" style="stroke: black; stroke-width: 0.5; stroke-opacity: 0.8;"/><line class="link" id="conv_0" x1="605.3868232630201" y1="383.2823304294245" x2="862.4518717339174" y2="468.36086223654684" style="stroke: black; stroke-width: 0.5; stroke-opacity: 0.8;"/><line class="link" id="conv_1" x1="864.787991845363" y1="512.3411401560877" x2="1042.1125702636232" y2="493.0487343080125" style="stroke: black; stroke-width: 0.5; stroke-opacity: 0.8;"/><line class="link" id="conv_1" x1="864.787991845363" y1="504.34114015608765" x2="1042.1125702636232" y2="493.0487343080125" style="stroke: black; stroke-width: 0.5; stroke-opacity: 0.8;"/><line class="link" id="conv_2" x1="1041.8638799993278" y1="492.0341723744307" x2="1243.1822079989245" y2="490.55467579908907" style="stroke: black; stroke-width: 0.5; stroke-opacity: 0.8;"/><line class="link" id="conv_2" x1="1041.8638799993278" y1="489.0341723744307" x2="1243.1822079989245" y2="490.55467579908907" style="stroke: black; stroke-width: 0.5; stroke-opacity: 0.8;"/><polygon class="poly" id="fc_0" points="1257,307.9903320081219 1267,307.9903320081219 1448.0193359837563,489.0096679918781 1438.0193359837563,489.0096679918781" style="fill: rgb(224, 224, 224); stroke: black; stroke-width: 1; opacity: 0.8;"/><polygon class="poly" id="fc_1" points="1450.0193359837563,394.2573593128807 1460.0193359837563,394.2573593128807 1468.504617357995,402.74264068711926 1458.504617357995,402.74264068711926" style="fill: rgb(224, 224, 224); stroke: black; stroke-width: 1; opacity: 0.8;"/><line class="line" id="fc_0" x1="1245" y1="494.5" x2="1438.0193359837563" y2="489.0096679918781" style="stroke: black; stroke-width: 0.5; stroke-opacity: 0.8; opacity: 1;"/><line class="line" id="fc_0" x1="1061" y1="302.5" x2="1257" y2="307.9903320081219" style="stroke: black; stroke-width: 0.5; stroke-opacity: 0.8; opacity: 1;"/><line class="line" id="fc_1" x1="1448.0193359837563" y1="489.0096679918781" x2="1458.5046173579947" y2="402.7426406871193" style="stroke: black; stroke-width: 0.5; stroke-opacity: 0.8; opacity: 1;"/><line class="line" id="fc_1" x1="1267" y1="307.9903320081219" x2="1450.0193359837563" y2="394.2573593128807" style="stroke: black; stroke-width: 0.5; stroke-opacity: 0.8; opacity: 1;"/><text class="text" dy=".35em" font-family="sans-serif" x="665" y="606.5" style="font-size: 16px; opacity: 1;">Convolution</text><text class="text" dy=".35em" font-family="sans-serif" x="894" y="606.5" style="font-size: 16px; opacity: 1;">Max-Pool</text><text class="text" dy=".35em" font-family="sans-serif" x="1081" y="606.5" style="font-size: 16px; opacity: 1;">Convolution</text><text class="text" dy=".35em" font-family="sans-serif" x="1281.254833995939" y="606.5" style="font-size: 16px; opacity: 1;">Dense</text><text class="info" dy="-0.3em" font-family="sans-serif" x="533" y="343.5" style="font-size: 16px;">3@64x64</text><text class="info" dy="-0.3em" font-family="sans-serif" x="623" y="259.5" style="font-size: 16px;">24@64x64</text><text class="info" dy="-0.3em" font-family="sans-serif" x="851" y="287.5" style="font-size: 16px;">24@8x8</text><text class="info" dy="-0.3em" font-family="sans-serif" x="1053" y="287.5" style="font-size: 16px;">24@8x8</text><text class="info" dy="-0.3em" font-family="sans-serif" x="1257" y="292.9903320081219" style="font-size: 16px;">1x256</text><text class="info" dy="-0.3em" font-family="sans-serif" x="1450.0193359837563" y="379.2573593128807" style="font-size: 16px;">1x12</text></g></svg>